<svg width="31" height="30" viewBox="0 0 31 30" fill="none" xmlns="http://www.w3.org/2000/svg">
<path d="M23.5883 21.0375L24.0758 24.9875C24.2008 26.025 23.0883 26.75 22.2008 26.2125L16.9633 23.1C16.3883 23.1 15.8258 23.0625 15.2758 22.9875C16.2008 21.9 16.7508 20.525 16.7508 19.0375C16.7508 15.4875 13.6758 12.6125 9.87579 12.6125C8.42579 12.6125 7.08829 13.025 5.97579 13.75C5.93829 13.4375 5.92578 13.125 5.92578 12.8C5.92578 7.11249 10.8633 2.5 16.9633 2.5C23.0633 2.5 28.0008 7.11249 28.0008 12.8C28.0008 16.175 26.2633 19.1625 23.5883 21.0375Z" stroke="#285BBE" stroke-width="1.5" stroke-linecap="round" stroke-linejoin="round"/>
<path d="M16.75 19.0372C16.75 20.5247 16.2 21.8998 15.275 22.9873C14.0375 24.4873 12.075 25.4498 9.875 25.4498L6.6125 27.3872C6.0625 27.7247 5.3625 27.2623 5.4375 26.6248L5.75 24.1623C4.075 22.9998 3 21.1372 3 19.0372C3 16.8372 4.17501 14.8998 5.97501 13.7498C7.08751 13.0248 8.425 12.6123 9.875 12.6123C13.675 12.6123 16.75 15.4872 16.75 19.0372Z" stroke="#285BBE" stroke-width="1.5" stroke-linecap="round" stroke-linejoin="round"/>
</svg>
