<svg width="31" height="30" viewBox="0 0 31 30" fill="none" xmlns="http://www.w3.org/2000/svg">
<path d="M3 11.25V8.125C3 5.0125 5.5125 2.5 8.625 2.5H11.75" stroke="#285BBE" stroke-width="1.5" stroke-linecap="round" stroke-linejoin="round"/>
<path d="M19.25 2.5H22.375C25.4875 2.5 28 5.0125 28 8.125V11.25" stroke="#285BBE" stroke-width="1.5" stroke-linecap="round" stroke-linejoin="round"/>
<path d="M28 20V21.875C28 24.9875 25.4875 27.5 22.375 27.5H20.5" stroke="#285BBE" stroke-width="1.5" stroke-linecap="round" stroke-linejoin="round"/>
<path d="M11.75 27.5H8.625C5.5125 27.5 3 24.9875 3 21.875V18.75" stroke="#285BBE" stroke-width="1.5" stroke-linecap="round" stroke-linejoin="round"/>
<path d="M21.75 11.875V18.125C21.75 20.625 20.5 21.875 18 21.875H13C10.5 21.875 9.25 20.625 9.25 18.125V11.875C9.25 9.375 10.5 8.125 13 8.125H18C20.5 8.125 21.75 9.375 21.75 11.875Z" stroke="#285BBE" stroke-width="1.5" stroke-linecap="round" stroke-linejoin="round"/>
<path d="M24.25 15H6.75" stroke="#285BBE" stroke-width="1.5" stroke-linecap="round" stroke-linejoin="round"/>
</svg>
