<svg width="31" height="30" viewBox="0 0 31 30" fill="none" xmlns="http://www.w3.org/2000/svg">
<path d="M21.625 21.125C25 17.75 25 12.125 21.625 8.75" stroke="#285BBE" stroke-width="1.5" stroke-miterlimit="10" stroke-linecap="round" stroke-linejoin="round"/>
<path d="M9.375 8.875C6 12.25 6 17.875 9.375 21.25" stroke="#285BBE" stroke-width="1.5" stroke-miterlimit="10" stroke-linecap="round" stroke-linejoin="round"/>
<path d="M12.625 17C12.625 18.125 13.5 19 14.625 19H16.75C17.625 19 18.5 18.25 18.5 17.25C18.5 16.125 18 15.75 17.375 15.5L13.875 14.25C13 14.125 12.625 13.75 12.625 12.75C12.625 11.75 13.375 11 14.375 11H16.625C17.75 11 18.625 11.875 18.625 13" stroke="#285BBE" stroke-width="1.5" stroke-linecap="round" stroke-linejoin="round"/>
<path d="M15.5 9.75V20.25" stroke="#285BBE" stroke-width="1.5" stroke-linecap="round" stroke-linejoin="round"/>
<path d="M15.5 27.5C22.4036 27.5 28 21.9036 28 15C28 8.09644 22.4036 2.5 15.5 2.5C8.59644 2.5 3 8.09644 3 15C3 21.9036 8.59644 27.5 15.5 27.5Z" stroke="#285BBE" stroke-width="1.5" stroke-miterlimit="10" stroke-linecap="round" stroke-linejoin="round"/>
</svg>
