<svg width="202" height="77" viewBox="0 0 202 77" fill="none" xmlns="http://www.w3.org/2000/svg">
<rect width="201.453" height="76.5523" rx="8.95349" fill="white"/>
<g clip-path="url(#clip0_42_392)">
<path fill-rule="evenodd" clip-rule="evenodd" d="M8.95349 0C4.00861 0 0 4.00861 0 8.95348V67.6604C0 72.6053 4.00861 76.6139 8.95349 76.6139H92.3238C97.2687 76.6139 101.277 72.6053 101.277 67.6605V8.95349C101.277 4.00861 97.2687 0 92.3238 0H8.95349ZM53.7272 53.5248L63.1308 24.1386H53.7272L48.3118 41.0567L43.1902 24.1386H34.0805L28.665 40.8468L23.5434 24.1386H13.3422L22.7458 53.5248H33.3668L38.3625 37.8242L43.1062 53.5248H53.7272ZM87.6627 44.2472C87.7467 42.9038 87.7886 42.1621 87.7886 42.0222C87.7886 39.5314 87.2149 37.3904 86.0674 35.5992C84.948 33.8081 83.4227 32.4507 81.4916 31.5272C79.5885 30.6036 77.4755 30.1418 75.1526 30.1418C72.6897 30.1418 70.4648 30.6456 68.4777 31.6531C66.5186 32.6606 64.9654 34.074 63.8179 35.8931C62.6984 37.6843 62.1387 39.7273 62.1387 42.0222C62.1387 44.2891 62.7124 46.3322 63.8599 48.1513C65.0073 49.9705 66.6306 51.3978 68.7296 52.4333C70.8286 53.4408 73.2635 53.9446 76.0342 53.9446C80.4841 53.9446 83.8285 52.7132 86.0674 50.2503L81.1138 45.2547C80.3021 45.8704 79.5465 46.3042 78.8468 46.5561C78.1752 46.808 77.3355 46.9339 76.328 46.9339C75.1526 46.9339 74.173 46.71 73.3894 46.2622C72.6058 45.7864 72.046 45.1148 71.7102 44.2472H87.6627ZM72.8017 37.4044C73.4454 36.8726 74.257 36.6068 75.2365 36.6068C76.2161 36.6068 77.0277 36.8866 77.6714 37.4464C78.3151 37.9781 78.7349 38.7198 78.9308 39.6713H71.5423C71.7382 38.6918 72.158 37.9361 72.8017 37.4044Z" fill="#285BBE"/>
<path d="M136.388 48.4034H125.221L123.248 53.525H113.173L126.019 24.1389H135.758L148.604 53.525H138.361L136.388 48.4034ZM133.659 41.2668L130.804 33.8783L127.95 41.2668H133.659Z" fill="#285BBE"/>
<path d="M158.917 33.0387C160.596 31.1076 163.073 30.142 166.347 30.142V38.5381C165.592 38.4261 164.892 38.3702 164.248 38.3702C161.002 38.3702 159.379 40.0214 159.379 43.3238V53.525H149.891V30.5618H158.917V33.0387Z" fill="#285BBE"/>
<path d="M193.264 42.0224C193.264 42.1624 193.222 42.904 193.138 44.2474H177.186C177.521 45.115 178.081 45.7867 178.865 46.2624C179.648 46.7102 180.628 46.9341 181.803 46.9341C182.811 46.9341 183.651 46.8082 184.322 46.5563C185.022 46.3044 185.778 45.8706 186.589 45.2549L191.543 50.2506C189.304 52.7134 185.959 53.9448 181.51 53.9448C178.739 53.9448 176.304 53.4411 174.205 52.4335C172.106 51.398 170.483 49.9707 169.335 48.1516C168.188 46.3324 167.614 44.2894 167.614 42.0224C167.614 39.7275 168.174 37.6845 169.293 35.8933C170.441 34.0742 171.994 32.6608 173.953 31.6533C175.94 30.6458 178.165 30.142 180.628 30.142C182.951 30.142 185.064 30.6038 186.967 31.5274C188.898 32.4509 190.423 33.8083 191.543 35.5995C192.69 37.3906 193.264 39.5316 193.264 42.0224ZM180.712 36.607C179.732 36.607 178.921 36.8729 178.277 37.4046C177.633 37.9364 177.214 38.692 177.018 39.6715H184.406C184.21 38.72 183.79 37.9783 183.147 37.4466C182.503 36.8869 181.691 36.607 180.712 36.607Z" fill="#285BBE"/>
</g>
<defs>
<clipPath id="clip0_42_392">
<rect width="193.264" height="76.6139" fill="white"/>
</clipPath>
</defs>
</svg>
