<svg width="847" height="436" viewBox="0 0 847 436" fill="none" xmlns="http://www.w3.org/2000/svg">
<path d="M700.987 189.696C707.358 185.893 709.057 178.216 704.783 172.549C700.509 166.881 691.879 165.369 685.509 169.172C679.138 172.975 677.439 180.652 681.713 186.319C685.987 191.987 694.617 193.499 700.987 189.696Z" fill="#E0E0E0"/>
<path d="M652.009 192.59C660.18 192.59 666.803 186.698 666.803 179.429C666.803 172.16 660.18 166.267 652.009 166.267C643.839 166.267 637.215 172.16 637.215 179.429C637.215 186.698 643.839 192.59 652.009 192.59Z" fill="#E0E0E0"/>
<path d="M620.32 170.105C628.989 170.105 636.017 163.853 636.017 156.14C636.017 148.427 628.989 142.174 620.32 142.174C611.65 142.174 604.622 148.427 604.622 156.14C604.622 163.853 611.65 170.105 620.32 170.105Z" fill="#E0E0E0"/>
<path d="M613.883 134.941C622.939 134.941 630.281 128.409 630.281 120.352C630.281 112.296 622.939 105.764 613.883 105.764C604.826 105.764 597.485 112.296 597.485 120.352C597.485 128.409 604.826 134.941 613.883 134.941Z" fill="#E0E0E0"/>
<path d="M633.973 104.097C643.335 104.097 650.925 97.3448 650.925 89.016C650.925 80.6873 643.335 73.9355 633.973 73.9355C624.611 73.9355 617.022 80.6873 617.022 89.016C617.022 97.3448 624.611 104.097 633.973 104.097Z" fill="#E0E0E0"/>
<path d="M672.563 93.0649C682.767 93.0649 691.039 85.7059 691.039 76.6281C691.039 67.5503 682.767 60.1913 672.563 60.1913C662.359 60.1913 654.087 67.5503 654.087 76.6281C654.087 85.7059 662.359 93.0649 672.563 93.0649Z" fill="#E0E0E0"/>
<path d="M736.899 158.557C738.592 152.14 734.117 145.716 726.903 144.21C719.69 142.703 712.469 146.685 710.776 153.102C709.083 159.52 713.558 165.943 720.771 167.45C727.985 168.956 735.206 164.975 736.899 158.557Z" fill="#E0E0E0"/>
<path d="M731.051 131.022C737.924 131.022 743.496 126.065 743.496 119.951C743.496 113.836 737.924 108.879 731.051 108.879C724.177 108.879 718.605 113.836 718.605 119.951C718.605 126.065 724.177 131.022 731.051 131.022Z" fill="#E0E0E0"/>
<path d="M710.35 98.7214C716.631 98.7214 721.723 94.1917 721.723 88.6041C721.723 83.0165 716.631 78.4868 710.35 78.4868C704.07 78.4868 698.978 83.0165 698.978 88.6041C698.978 94.1917 704.07 98.7214 710.35 98.7214Z" fill="#E0E0E0"/>
<path d="M233.772 80.1244C235.032 79.8771 236.329 79.816 237.611 79.9436C240.608 80.2031 243.456 81.228 245.812 82.8948C248.168 84.5615 249.933 86.799 250.892 89.3375C251.8 91.7288 251.968 94.2934 251.378 96.7622C250.711 99.5039 249.138 102.006 246.86 103.946C244.435 106.05 241.314 107.405 237.957 107.812C234.6 108.219 231.185 107.656 228.215 106.206C225.45 104.862 223.198 102.816 221.744 100.329C220.437 98.0879 219.833 95.5754 219.994 93.0549C220.131 90.8677 220.847 88.7404 222.083 86.8459C223.852 84.0816 226.647 81.9506 229.988 80.8177C231.181 80.3926 232.444 80.1449 233.726 80.0842C233.726 80.1847 232.371 80.2751 230.112 81.0889C226.93 82.2974 224.293 84.4198 222.625 87.1171C221.397 89.0814 220.74 91.2878 220.714 93.5356C220.688 95.7834 221.295 98.0012 222.478 99.9873C223.147 101.131 224.007 102.178 225.03 103.092C226.094 104.065 227.33 104.876 228.69 105.493C231.498 106.856 234.722 107.384 237.891 107.001C241.061 106.618 244.01 105.343 246.307 103.363C248.458 101.53 249.948 99.1695 250.587 96.5813C251.161 94.2481 251.029 91.8212 250.203 89.5485C249.48 87.5543 248.238 85.7402 246.578 84.2537C244.162 82.0463 240.978 80.63 237.543 80.235C236.289 80.142 235.03 80.1051 233.772 80.1244Z" fill="#E0E0E0"/>
<path d="M239.656 62.4619C239.656 62.4619 239.577 62.3212 239.441 62.0098L238.831 60.6534C238.278 59.3976 237.499 57.5791 236.471 55.2381L236.629 55.3185L222.332 57.1169L222.524 56.9361C222.309 59.277 222.061 61.8792 221.801 64.6622V64.8028L221.654 64.8631C218.77 65.9353 216.062 67.3479 213.602 69.0627L213.466 69.1632L213.297 69.0929L205.392 65.8979L205.776 65.8075L197.068 76.0454V75.6636L202.715 81.6013L202.862 81.752L202.772 81.9329C201.59 84.5077 200.796 87.2104 200.411 89.9705V90.1814L200.185 90.2518L192.02 92.9745L192.28 92.6028C192.89 96.6215 193.556 100.912 194.234 105.322L193.861 105.011L202.546 105.684H202.805L202.907 105.895C204.106 108.447 205.682 110.846 207.594 113.028L207.752 113.209L207.639 113.42C206.51 115.64 205.279 118.052 204.025 120.453L203.901 119.981L215.386 127.757H214.833L221.518 122.734L221.722 122.583L221.97 122.673C224.845 123.726 227.864 124.435 230.948 124.783C231.107 124.894 230.587 124.532 231.31 125.044V125.165L231.411 125.386L231.603 125.848L231.987 126.762L232.744 128.581C233.264 129.797 233.76 131.002 234.269 132.208L233.794 131.957L248.103 130.229L247.719 130.58C247.975 127.981 248.231 125.406 248.487 122.854V122.623L248.735 122.533C251.607 121.469 254.308 120.07 256.765 118.373L256.968 118.233L257.205 118.323L265.111 121.548L264.603 121.669L273.355 111.451V111.913C271.458 109.904 269.583 107.894 267.708 105.955L267.55 105.784L267.652 105.593C268.842 103.02 269.643 100.317 270.035 97.5559V97.355L270.249 97.2846L278.426 94.582L278.188 94.9336C277.511 90.4527 276.878 86.2229 276.28 82.2042L276.585 82.4654L267.9 81.7621H267.708L267.629 81.6114C266.477 79.1143 264.966 76.7604 263.134 74.6087L263.033 74.478L263.101 74.3374C264.422 71.7754 265.619 69.4747 266.748 67.3045L266.827 67.5858L255.376 59.7593H255.624L248.848 64.7024H248.781H248.702C246.515 63.8892 244.246 63.2634 241.926 62.8336L240.209 62.5523L239.633 62.4518C239.828 62.4381 240.025 62.4381 240.22 62.4518C240.604 62.4518 241.18 62.5523 241.959 62.6829C244.281 63.0545 246.553 63.6439 248.735 64.4411H248.589C250.407 63.0647 252.575 61.4271 255.24 59.4177L255.353 59.3272L255.489 59.4076L267.008 67.1438L267.177 67.2543L267.087 67.4251C265.958 69.6153 264.828 71.9261 263.496 74.458V74.1867C265.454 76.4133 267.068 78.8631 268.295 81.4707L268.036 81.2999L276.72 81.963H276.991V82.2042C277.612 86.2229 278.256 90.4427 278.956 94.9236V95.1848L278.685 95.2752L270.52 97.998L270.769 97.7267C270.371 100.539 269.559 103.292 268.352 105.915L268.284 105.553C270.129 107.489 272.011 109.468 273.931 111.491L274.145 111.712L273.942 111.943L265.212 122.171L265.009 122.412L264.704 122.281L256.799 119.076H257.239C254.72 120.818 251.951 122.254 249.006 123.346L249.277 123.025C249.029 125.577 248.769 128.149 248.521 130.751V131.062H248.171L233.873 132.801H233.523L233.399 132.499L231.874 128.882L231.107 127.054L230.723 126.139L230.531 125.687L230.429 125.456V125.346V125.285C231.152 125.798 230.632 125.426 230.79 125.537C227.628 125.183 224.533 124.457 221.586 123.377L222.049 123.316L215.352 128.34L215.081 128.541L214.81 128.35L203.28 120.624L202.997 120.443L203.144 120.162L206.769 113.129L206.826 113.521C204.871 111.279 203.261 108.816 202.037 106.196L202.388 106.427L193.703 105.744H193.375V105.453C192.698 101.032 192.054 96.722 191.444 92.7233V92.442L191.738 92.3516L199.903 89.6389L199.666 89.9202C200.061 87.1087 200.881 84.3577 202.105 81.742V82.0735L196.504 76.0554L196.323 75.8645L196.492 75.6736C199.512 72.1103 202.421 68.7111 205.222 65.476L205.369 65.2951L205.606 65.3856L213.511 68.6207H213.207C215.717 66.8888 218.479 65.4661 221.417 64.3909L221.259 64.5818C221.541 61.7988 221.812 59.1966 222.061 56.8557V56.6949H222.241L236.55 55.0472H236.663V55.1377L238.854 60.553C239.091 61.1457 239.272 61.5577 239.407 61.9595C239.51 62.1186 239.593 62.287 239.656 62.4619Z" fill="#E0E0E0"/>
<path fill-rule="evenodd" clip-rule="evenodd" d="M170.529 136.639C174.948 137.129 179.274 138.143 183.392 139.653L192.845 132.62L209.118 143.671L204.002 153.648C206.734 156.78 208.99 160.219 210.711 163.876L222.987 164.881L225.731 182.855L214.178 186.692C213.631 190.625 212.492 194.474 210.79 198.136L218.695 206.545L206.34 220.993L195.115 216.442C191.598 218.878 187.732 220.885 183.618 222.409L182.489 233.33L162.262 235.772L157.948 225.494C153.529 225.002 149.203 223.988 145.085 222.48L135.633 229.513L119.393 218.521L124.509 208.535C121.774 205.406 119.522 201.966 117.812 198.307L105.525 197.302L102.78 179.308L114.333 175.47C114.881 171.538 116.021 167.689 117.721 164.027L109.816 155.617L122.171 141.17L133.397 145.721C136.915 143.29 140.781 141.287 144.893 139.763L146.022 128.832L166.249 126.391L170.529 136.639ZM162.228 161.615C157.936 162.131 153.912 163.768 150.665 166.319C147.418 168.869 145.095 172.219 143.989 175.945C142.882 179.67 143.043 183.604 144.45 187.249C145.856 190.893 148.447 194.085 151.893 196.419C155.338 198.754 159.485 200.127 163.808 200.365C168.132 200.603 172.437 199.695 176.18 197.755C179.923 195.816 182.935 192.933 184.836 189.47C186.737 186.008 187.441 182.122 186.859 178.303C186.071 173.197 183.039 168.576 178.429 165.454C173.819 162.332 168.005 160.962 162.262 161.645L162.228 161.615Z" fill="#E0E0E0"/>
<path d="M806.344 431.015C806.344 431.165 634.922 431.276 423.5 431.276C212.077 431.276 40.6558 431.125 40.6558 431.015C40.6558 430.904 212.043 430.753 423.5 430.753C634.956 430.753 806.344 430.834 806.344 431.015Z" fill="#263238"/>
<path d="M668.678 133.846H207.718C198.631 133.846 191.264 140.399 191.264 148.484V409.755C191.264 417.84 198.631 424.394 207.718 424.394H668.678C677.766 424.394 685.132 417.84 685.132 409.755V148.484C685.132 140.399 677.766 133.846 668.678 133.846Z" fill="#455A64"/>
<path d="M171.963 405.626H707.03V413.171C707.03 417.914 704.912 422.463 701.142 425.817C697.372 429.17 692.259 431.055 686.928 431.055H192.066C186.734 431.055 181.621 429.17 177.851 425.817C174.081 422.463 171.963 417.914 171.963 413.171V405.626Z" fill="#455A64"/>
<path d="M670.496 145.39H204.522V390.756H670.496V145.39Z" fill="#263238"/>
<path d="M389.519 402.903L396.159 412.297H489.589L495.755 402.903H389.519Z" fill="#263238"/>
<path d="M658.164 153.698H217.814C215.774 153.698 214.121 155.169 214.121 156.984V386.687C214.121 388.502 215.774 389.973 217.814 389.973H658.164C660.203 389.973 661.857 388.502 661.857 386.687V156.984C661.857 155.169 660.203 153.698 658.164 153.698Z" fill="#EBEBEB"/>
<path d="M661.383 390.314H213.647L214.121 171.351H661.383V390.314Z" fill="#FAFAFA"/>
<path d="M250.836 162.821C250.836 163.451 250.626 164.067 250.232 164.591C249.838 165.115 249.278 165.524 248.623 165.764C247.968 166.005 247.248 166.068 246.553 165.944C245.858 165.82 245.221 165.516 244.72 165.069C244.22 164.623 243.88 164.055 243.743 163.436C243.606 162.818 243.679 162.177 243.952 161.595C244.224 161.013 244.685 160.517 245.275 160.168C245.865 159.819 246.559 159.634 247.267 159.636C247.737 159.636 248.202 159.719 248.635 159.879C249.069 160.039 249.463 160.274 249.795 160.57C250.126 160.865 250.389 161.217 250.567 161.603C250.746 161.989 250.837 162.403 250.836 162.821Z" fill="#263238"/>
<path d="M229.164 162.821C229.164 163.451 228.954 164.067 228.56 164.591C228.166 165.115 227.607 165.524 226.952 165.764C226.297 166.005 225.577 166.068 224.882 165.944C224.187 165.82 223.549 165.516 223.049 165.069C222.549 164.623 222.209 164.055 222.072 163.436C221.935 162.818 222.007 162.177 222.28 161.595C222.553 161.013 223.013 160.517 223.604 160.168C224.194 159.819 224.887 159.634 225.596 159.636C226.065 159.636 226.53 159.719 226.964 159.879C227.398 160.039 227.792 160.274 228.123 160.57C228.455 160.865 228.717 161.217 228.896 161.603C229.075 161.989 229.166 162.403 229.164 162.821Z" fill="#263238"/>
<path d="M239.576 162.821C239.576 163.451 239.367 164.067 238.973 164.59C238.58 165.114 238.021 165.522 237.367 165.763C236.712 166.004 235.993 166.068 235.298 165.945C234.604 165.822 233.966 165.518 233.465 165.073C232.964 164.628 232.623 164.06 232.485 163.442C232.347 162.825 232.418 162.184 232.689 161.602C232.96 161.02 233.419 160.523 234.008 160.173C234.596 159.823 235.288 159.636 235.996 159.636C236.946 159.636 237.857 159.972 238.528 160.569C239.199 161.166 239.576 161.976 239.576 162.821Z" fill="#263238"/>
<path d="M680.886 402.883C680.886 403.044 571.273 403.164 436.092 403.164C300.911 403.164 191.264 403.044 191.264 402.883C191.264 402.722 300.809 402.602 436.092 402.602C571.375 402.602 680.886 402.742 680.886 402.883Z" fill="#263238"/>
<path d="M594.707 280.059H290.453C286.88 280.059 283.453 278.796 280.926 276.548C278.399 274.3 276.98 271.252 276.98 268.073C276.98 264.893 278.399 261.843 280.925 259.594C283.452 257.344 286.879 256.079 290.453 256.077H594.707C598.281 256.079 601.708 257.344 604.234 259.594C606.761 261.843 608.18 264.893 608.18 268.073C608.18 271.252 606.76 274.3 604.233 276.548C601.707 278.796 598.28 280.059 594.707 280.059Z" fill="#EBEBEB"/>
<path d="M447.656 280.059H431.405C429.611 280.072 427.832 279.769 426.171 279.166C424.51 278.562 423 277.672 421.729 276.546C420.458 275.42 419.451 274.08 418.766 272.605C418.081 271.13 417.733 269.548 417.74 267.952C417.714 266.387 418.042 264.834 418.703 263.383C419.364 261.933 420.345 260.615 421.588 259.508C422.832 258.4 424.312 257.526 425.942 256.937C427.572 256.348 429.318 256.055 431.078 256.077L447.656 256.137C451.294 256.19 454.762 257.516 457.309 259.827C459.856 262.138 461.277 265.248 461.265 268.485C461.265 275.166 455.121 280.059 447.656 280.059Z" fill="#E0E0E0"/>
<path d="M439.221 280.059H290.453C286.88 280.059 283.453 278.796 280.927 276.548C278.4 274.3 276.98 271.252 276.98 268.073C276.98 264.893 278.4 261.843 280.926 259.594C283.452 257.344 286.879 256.079 290.453 256.077H439.221C442.797 256.077 446.227 257.341 448.755 259.59C451.284 261.84 452.705 264.891 452.705 268.073C452.705 269.648 452.356 271.207 451.678 272.662C451 274.117 450.007 275.439 448.755 276.552C447.502 277.665 446.016 278.548 444.38 279.149C442.744 279.751 440.991 280.06 439.221 280.059Z" fill="#285BBE"/>
<g opacity="0.2">
<path opacity="0.2" d="M295.603 256.077L312.069 280.059H323.712L306.591 256.077H295.603Z" fill="white"/>
</g>
<g opacity="0.2">
<path opacity="0.2" d="M270.69 256.077L287.156 280.059H298.799L281.678 256.077H270.69Z" fill="white"/>
</g>
<g opacity="0.2">
<path opacity="0.2" d="M319.703 256.077L336.158 280.059H347.812L330.692 256.077H319.703Z" fill="white"/>
</g>
<g opacity="0.2">
<path opacity="0.2" d="M343.803 256.077L360.258 280.059H371.912L354.792 256.077H343.803Z" fill="white"/>
</g>
<g opacity="0.2">
<path opacity="0.2" d="M367.892 256.077L384.357 280.059H396.001L378.88 256.077H367.892Z" fill="white"/>
</g>
<g opacity="0.2">
<path opacity="0.2" d="M391.992 256.077L408.446 280.059H420.101L402.98 256.077H391.992Z" fill="white"/>
</g>
<g opacity="0.2">
<path opacity="0.2" d="M416.092 256.077L432.546 280.059H444.201L427.08 256.077H416.092Z" fill="white"/>
</g>
<g opacity="0.2">
<path opacity="0.2" d="M440.18 256.077L456.646 280.059H468.289L451.169 256.077H440.18Z" fill="white"/>
</g>
<path d="M368.965 303.036C371.822 303.036 373.482 304.302 373.482 306.492C373.482 308.683 371.845 310.109 368.965 310.109H366.345V313.123H364.425V303.036H368.965ZM366.345 308.582H368.886C370.636 308.582 371.63 307.909 371.63 306.573C371.63 305.237 370.636 304.563 368.886 304.563H366.345V308.582Z" fill="#285BBE"/>
<path d="M375.661 313.164V302.413H377.536V313.164H375.661Z" fill="#285BBE"/>
<path d="M388.309 309.949H381.782C381.891 310.504 382.222 311.005 382.714 311.359C383.206 311.714 383.825 311.898 384.458 311.878C384.912 311.88 385.362 311.801 385.781 311.646C386.2 311.49 386.58 311.262 386.898 310.973L387.891 311.918C387.431 312.346 386.874 312.683 386.257 312.907C385.64 313.13 384.977 313.235 384.311 313.214C383.725 313.249 383.137 313.173 382.587 312.99C382.036 312.808 381.536 312.523 381.118 312.156C380.701 311.788 380.376 311.345 380.165 310.858C379.954 310.37 379.863 309.848 379.896 309.326C379.867 308.807 379.96 308.289 380.169 307.804C380.378 307.319 380.699 306.878 381.11 306.509C381.521 306.14 382.014 305.852 382.558 305.662C383.101 305.473 383.683 305.386 384.266 305.407C387.361 305.427 388.49 307.176 388.309 309.949ZM386.683 308.733C386.684 308.458 386.621 308.185 386.498 307.933C386.376 307.68 386.196 307.452 385.971 307.264C385.745 307.075 385.478 306.93 385.187 306.837C384.896 306.744 384.586 306.706 384.278 306.724C383.646 306.704 383.03 306.902 382.559 307.276C382.088 307.651 381.797 308.172 381.748 308.733H386.683Z" fill="#285BBE"/>
<path d="M395.775 312.219C395.416 312.57 394.972 312.842 394.477 313.016C393.982 313.19 393.448 313.261 392.917 313.224C392.537 313.262 392.153 313.229 391.788 313.126C391.424 313.023 391.088 312.854 390.801 312.629C390.515 312.403 390.285 312.127 390.126 311.818C389.967 311.508 389.883 311.173 389.879 310.833C389.879 309.436 391.009 308.542 393.143 308.522H395.752V308.291C395.752 307.286 395.063 306.744 393.697 306.744C392.776 306.767 391.885 307.041 391.144 307.527L390.376 306.372C391.468 305.695 392.773 305.343 394.103 305.367C396.362 305.367 397.581 306.372 397.593 308.07V313.093H395.763L395.775 312.219ZM395.775 310.461V309.748H393.437C392.217 309.748 391.652 310.039 391.652 310.752C391.652 311.466 392.285 311.898 393.324 311.898C394.634 311.918 395.662 311.295 395.752 310.451L395.775 310.461Z" fill="#285BBE"/>
<path d="M406.052 306.181L405.363 307.407C404.617 306.989 403.76 306.753 402.878 306.724C402.155 306.724 401.613 306.945 401.613 307.497C401.613 308.914 406.21 308.14 406.198 310.933C406.198 312.511 404.617 313.214 402.878 313.214C401.614 313.234 400.382 312.857 399.4 312.149L400.066 310.963C400.884 311.559 401.901 311.895 402.957 311.918C403.759 311.918 404.38 311.667 404.38 311.094C404.38 309.517 399.863 310.401 399.863 307.618C399.863 306.061 401.388 305.397 403.048 305.397C404.114 305.392 405.158 305.664 406.052 306.181Z" fill="#285BBE"/>
<path d="M416.012 309.949H409.485C409.596 310.503 409.928 311.003 410.419 311.357C410.911 311.711 411.529 311.896 412.161 311.878C412.615 311.88 413.065 311.801 413.484 311.646C413.903 311.491 414.283 311.262 414.601 310.973L415.595 311.918C415.135 312.347 414.578 312.684 413.961 312.908C413.344 313.131 412.68 313.235 412.015 313.214C411.428 313.249 410.841 313.173 410.29 312.99C409.74 312.808 409.239 312.523 408.821 312.156C408.404 311.788 408.079 311.345 407.868 310.858C407.657 310.37 407.566 309.848 407.599 309.326C407.572 308.807 407.666 308.29 407.876 307.805C408.085 307.321 408.406 306.881 408.817 306.513C409.228 306.144 409.72 305.856 410.263 305.666C410.805 305.475 411.387 305.387 411.969 305.407C415.007 305.428 416.238 307.176 416.012 309.949ZM414.386 308.733C414.387 308.459 414.324 308.187 414.202 307.935C414.08 307.683 413.902 307.456 413.678 307.268C413.453 307.079 413.188 306.934 412.898 306.841C412.608 306.747 412.3 306.707 411.992 306.724C411.359 306.704 410.742 306.901 410.269 307.275C409.796 307.65 409.503 308.172 409.451 308.733H414.386Z" fill="#285BBE"/>
<path d="M432.67 313.164L429.971 305.267L427.238 313.164H425.25L421.49 303.036H423.5L426.267 311.265L429.011 303.056H430.897L433.664 311.285L436.408 303.056H438.385L434.59 313.184L432.67 313.164Z" fill="#285BBE"/>
<path d="M444.404 312.219C444.046 312.57 443.602 312.843 443.107 313.017C442.611 313.192 442.078 313.262 441.547 313.224C441.167 313.262 440.782 313.229 440.418 313.126C440.053 313.023 439.717 312.854 439.431 312.629C439.144 312.403 438.914 312.127 438.756 311.818C438.597 311.508 438.513 311.173 438.509 310.833C438.509 309.436 439.638 308.542 441.773 308.522H444.393V308.291C444.393 307.286 443.692 306.744 442.326 306.744C441.405 306.767 440.515 307.041 439.774 307.527L439.006 306.372C440.098 305.697 441.402 305.345 442.733 305.367C444.991 305.367 446.211 306.372 446.222 308.07V313.093H444.381L444.404 312.219ZM444.404 310.461V309.748H442.066C440.847 309.748 440.271 310.039 440.271 310.752C440.271 311.466 440.903 311.898 441.942 311.898C443.263 311.918 444.291 311.295 444.393 310.451L444.404 310.461Z" fill="#285BBE"/>
<path d="M451.089 303.267C451.089 303.466 451.023 303.66 450.899 303.826C450.775 303.991 450.598 304.12 450.392 304.196C450.186 304.272 449.959 304.292 449.74 304.253C449.521 304.214 449.319 304.118 449.161 303.978C449.003 303.837 448.896 303.658 448.852 303.463C448.809 303.269 448.831 303.066 448.917 302.883C449.002 302.699 449.147 302.542 449.332 302.432C449.518 302.322 449.737 302.263 449.96 302.263C450.259 302.263 450.547 302.369 450.759 302.557C450.97 302.745 451.089 303.001 451.089 303.267ZM449.079 313.164V305.427H450.931V313.123L449.079 313.164Z" fill="#285BBE"/>
<path d="M458.916 312.671C458.275 313.027 457.537 313.222 456.781 313.234C456.449 313.257 456.114 313.214 455.803 313.108C455.491 313.002 455.209 312.836 454.978 312.622C454.747 312.408 454.572 312.15 454.466 311.869C454.36 311.587 454.325 311.288 454.365 310.994V306.975H453.145V305.729H454.365V303.619H456.251V305.729H458.803V306.975H456.251V310.662C456.251 311.456 456.589 311.667 457.177 311.667C457.632 311.646 458.077 311.533 458.475 311.335L458.916 312.671Z" fill="#285BBE"/>
<path d="M469.023 302.413C467.767 304.31 467.104 306.471 467.104 308.673C467.104 310.874 467.767 313.035 469.023 314.932H467.329C466.041 313.045 465.36 310.88 465.36 308.673C465.36 306.465 466.041 304.3 467.329 302.413H469.023Z" fill="#285BBE"/>
<path d="M475.528 309.155V306.754H477.312V309.155H478.972V310.672H477.312V313.164H475.528V310.672H470.096V309.446L473.981 303.077H475.833L472.151 309.195L475.528 309.155Z" fill="#285BBE"/>
<path d="M482.733 304.574V306.754H484.292C486.765 306.754 488.358 308.05 488.358 309.828C488.358 311.888 486.697 313.224 484.145 313.224C482.701 313.19 481.298 312.789 480.102 312.069L480.859 310.682C481.715 311.341 482.799 311.721 483.931 311.757C485.41 311.757 486.302 311.074 486.302 309.929C486.302 308.783 485.41 308.271 483.953 308.271C483.264 308.271 481.694 308.331 480.96 308.401V303.046H487.872V304.584L482.733 304.574Z" fill="#285BBE"/>
<path d="M496.014 306.02C496.014 307.909 494.885 309.034 493.01 309.034C491.135 309.034 490.006 307.889 490.006 306.02C490.006 304.152 491.135 303.006 493.01 303.006C494.885 303.006 496.014 304.142 496.014 306.02ZM491.248 306.02C491.248 307.316 491.881 308.03 493.01 308.03C494.139 308.03 494.783 307.276 494.783 306.02C494.783 304.764 494.128 304.011 493.01 304.011C491.892 304.011 491.259 304.734 491.259 306.02H491.248ZM500.52 303.006H502.304L493.947 313.134H492.152L500.52 303.006ZM504.574 310.14C504.574 312.028 503.445 313.154 501.57 313.154C499.696 313.154 498.566 312.018 498.566 310.14C498.566 308.261 499.696 307.125 501.57 307.125C503.445 307.125 504.574 308.291 504.574 310.17V310.14ZM499.82 310.14C499.82 311.436 500.452 312.149 501.57 312.149C502.688 312.149 503.343 311.406 503.343 310.14C503.343 308.874 502.688 308.13 501.57 308.13C500.452 308.13 499.82 308.884 499.82 310.17V310.14Z" fill="#285BBE"/>
<path d="M509.16 302.413C510.448 304.3 511.129 306.465 511.129 308.673C511.129 310.88 510.448 313.045 509.16 314.932H507.466C508.722 313.035 509.385 310.874 509.385 308.673C509.385 306.471 508.722 304.31 507.466 302.413H509.16Z" fill="#285BBE"/>
<path d="M388.163 227.704H390.06V238.022H397.232V239.489H388.197L388.163 227.704Z" fill="black"/>
<path d="M398.078 233.592C398.024 232.343 398.391 231.108 399.131 230.047C399.872 228.985 400.952 228.144 402.233 227.632C403.514 227.12 404.938 226.96 406.322 227.173C407.706 227.386 408.987 227.963 410.001 228.828C411.014 229.693 411.713 230.808 412.009 232.03C412.305 233.252 412.184 234.524 411.661 235.684C411.138 236.844 410.238 237.838 409.075 238.539C407.913 239.241 406.541 239.617 405.137 239.62C404.223 239.654 403.312 239.523 402.457 239.235C401.602 238.947 400.821 238.509 400.162 237.946C399.502 237.382 398.978 236.706 398.62 235.958C398.262 235.21 398.078 234.405 398.078 233.592ZM410.264 233.592C410.275 232.683 409.982 231.791 409.422 231.031C408.862 230.27 408.06 229.675 407.119 229.321C406.178 228.968 405.14 228.871 404.136 229.044C403.133 229.216 402.21 229.651 401.485 230.291C400.76 230.932 400.266 231.75 400.065 232.641C399.864 233.533 399.966 234.457 400.358 235.297C400.749 236.137 401.413 236.854 402.264 237.357C403.115 237.86 404.115 238.127 405.137 238.123C405.813 238.142 406.487 238.039 407.116 237.818C407.746 237.598 408.318 237.265 408.798 236.841C409.279 236.416 409.656 235.909 409.908 235.351C410.16 234.792 410.281 234.194 410.264 233.592Z" fill="black"/>
<path d="M423.308 236.536H416.261L414.804 239.489H412.862L418.859 227.704H420.733L426.753 239.489H424.765L423.308 236.536ZM422.642 235.189L419.785 229.422L416.927 235.189H422.642Z" fill="black"/>
<path d="M428.717 227.704H434.296C438.554 227.704 441.445 230.095 441.445 233.592C441.445 237.088 438.554 239.489 434.296 239.489H428.717V227.704ZM434.183 238.022C437.458 238.022 439.559 236.234 439.559 233.592C439.559 230.949 437.458 229.171 434.183 229.171H430.603V238.022H434.183Z" fill="black"/>
<path d="M444.347 227.704H446.233V239.489H444.347V227.704Z" fill="black"/>
<path d="M461.603 227.704V239.489H460.045L452.139 230.698V239.489H450.242V227.704H451.733L459.638 236.485V227.704H461.603Z" fill="black"/>
<path d="M474.749 233.532H476.579V238.113C475.154 239.115 473.381 239.645 471.565 239.61C469.767 239.61 468.044 238.975 466.773 237.844C465.502 236.714 464.789 235.181 464.789 233.582C464.789 231.983 465.502 230.45 466.773 229.319C468.044 228.189 469.767 227.554 471.565 227.554C472.51 227.516 473.454 227.659 474.332 227.973C475.211 228.287 476.004 228.764 476.658 229.372L475.529 230.377C475.025 229.931 474.425 229.581 473.765 229.348C473.105 229.115 472.399 229.003 471.689 229.021C470.993 228.979 470.295 229.065 469.638 229.274C468.981 229.483 468.38 229.809 467.87 230.233C467.361 230.657 466.955 231.169 466.677 231.738C466.4 232.307 466.257 232.921 466.257 233.542C466.257 234.162 466.4 234.776 466.677 235.345C466.955 235.914 467.361 236.427 467.87 236.851C468.38 237.274 468.981 237.601 469.638 237.809C470.295 238.018 470.993 238.104 471.689 238.063C472.784 238.085 473.863 237.823 474.795 237.309L474.749 233.532Z" fill="black"/>
<path d="M479.255 238.424C479.252 238.273 479.283 238.123 479.347 237.983C479.41 237.843 479.505 237.715 479.625 237.608C479.746 237.501 479.889 237.417 480.046 237.361C480.204 237.304 480.373 237.276 480.543 237.279C480.71 237.279 480.875 237.309 481.029 237.367C481.182 237.425 481.321 237.51 481.437 237.617C481.553 237.724 481.644 237.85 481.703 237.989C481.763 238.128 481.791 238.276 481.785 238.424C481.791 238.574 481.763 238.723 481.704 238.863C481.644 239.003 481.554 239.13 481.439 239.239C481.323 239.347 481.184 239.434 481.03 239.495C480.876 239.555 480.711 239.587 480.543 239.59C480.372 239.59 480.202 239.56 480.045 239.501C479.887 239.442 479.744 239.356 479.624 239.247C479.504 239.139 479.41 239.01 479.347 238.869C479.283 238.728 479.252 238.576 479.255 238.424Z" fill="black"/>
<path d="M483.547 238.424C483.544 238.273 483.575 238.123 483.638 237.983C483.702 237.843 483.797 237.715 483.917 237.608C484.037 237.501 484.18 237.417 484.338 237.361C484.495 237.304 484.664 237.276 484.834 237.279C485.002 237.279 485.167 237.309 485.322 237.367C485.476 237.425 485.616 237.509 485.733 237.616C485.849 237.723 485.941 237.85 486.002 237.988C486.063 238.127 486.092 238.275 486.088 238.424C486.092 238.574 486.063 238.724 486.002 238.863C485.942 239.003 485.85 239.131 485.734 239.24C485.617 239.348 485.478 239.435 485.323 239.495C485.169 239.555 485.003 239.587 484.834 239.59C484.663 239.59 484.494 239.56 484.336 239.501C484.178 239.442 484.035 239.356 483.916 239.247C483.796 239.139 483.701 239.01 483.638 238.869C483.575 238.728 483.544 238.576 483.547 238.424Z" fill="black"/>
<path d="M487.871 238.424C487.868 238.273 487.899 238.123 487.963 237.983C488.027 237.843 488.121 237.715 488.242 237.608C488.362 237.501 488.505 237.417 488.662 237.361C488.82 237.304 488.989 237.276 489.159 237.279C489.327 237.278 489.493 237.306 489.648 237.364C489.803 237.421 489.944 237.506 490.061 237.613C490.178 237.72 490.27 237.847 490.33 237.987C490.39 238.126 490.418 238.275 490.412 238.424C490.418 238.575 490.39 238.724 490.33 238.865C490.27 239.006 490.179 239.134 490.062 239.243C489.945 239.351 489.805 239.438 489.65 239.498C489.495 239.557 489.328 239.589 489.159 239.59C488.988 239.59 488.818 239.56 488.661 239.501C488.503 239.442 488.36 239.356 488.24 239.247C488.12 239.139 488.026 239.01 487.963 238.869C487.899 238.728 487.868 238.576 487.871 238.424Z" fill="black"/>
<path d="M345.621 430.542L388.039 430.14L384.685 416.637L346.773 414.135L345.621 430.542Z" fill="#B78876"/>
<path d="M367.033 413.683L386.684 414.829C386.684 414.829 394.589 397.447 398.248 397.347L397.119 431.316L366.423 430.643L367.033 413.683Z" fill="#285BBE"/>
<path d="M384.673 425.288C384.775 425.618 385.009 425.903 385.332 426.088C385.655 426.274 386.044 426.346 386.424 426.292C386.796 426.215 387.121 426.014 387.332 425.729C387.542 425.445 387.621 425.1 387.553 424.765C387.438 424.424 387.185 424.133 386.843 423.948C386.501 423.762 386.095 423.696 385.701 423.76C385.32 423.875 385.004 424.118 384.82 424.437C384.637 424.756 384.6 425.126 384.719 425.468" fill="#E0E0E0"/>
<path d="M397.108 431.316L394.013 431.145L396.272 398.633C396.272 398.633 397.062 397.146 398.259 397.347L397.108 431.316Z" fill="#E0E0E0"/>
<path d="M386.503 414.276C386.695 414.276 386.751 415.11 387.316 415.944C387.881 416.778 388.66 417.23 388.581 417.381C388.502 417.531 387.452 417.26 386.763 416.245C386.074 415.231 386.334 414.236 386.503 414.276Z" fill="#263238"/>
<path d="M388.276 410.75C388.457 410.75 388.75 411.443 389.518 412.026C390.286 412.608 391.122 412.799 391.111 412.96C391.099 413.121 390.038 413.211 389.101 412.468C388.163 411.724 388.107 410.75 388.276 410.75Z" fill="#263238"/>
<path d="M393.143 408.851C393.143 409.012 392.24 409.212 391.224 408.76C390.207 408.308 389.846 407.525 390.004 407.454C390.162 407.384 390.681 407.886 391.517 408.248C392.353 408.61 393.132 408.69 393.143 408.851Z" fill="#263238"/>
<path d="M381.997 414.457C382.155 414.527 381.873 415.281 381.918 416.215C381.963 417.15 382.268 417.903 382.098 417.983C381.929 418.064 381.297 417.34 381.274 416.235C381.251 415.13 381.85 414.367 381.997 414.457Z" fill="#263238"/>
<path d="M378.021 414.286C378.173 414.847 378.149 415.434 377.954 415.984C377.816 416.596 377.592 417.19 377.287 417.752C377.101 418.097 376.893 418.432 376.666 418.757C376.544 418.943 376.387 419.109 376.203 419.249C376.067 419.354 375.896 419.416 375.716 419.426C375.536 419.435 375.358 419.39 375.209 419.3C375.082 419.214 374.978 419.104 374.908 418.976C374.837 418.849 374.801 418.708 374.803 418.566C374.81 418.351 374.851 418.138 374.927 417.933C375.038 417.587 375.186 417.25 375.367 416.928C375.676 416.359 376.084 415.837 376.576 415.381C377.423 414.618 378.134 414.377 378.168 414.427C378.202 414.477 377.626 414.869 376.926 415.653C376.515 416.11 376.173 416.613 375.91 417.15C375.756 417.475 375.632 417.811 375.537 418.154C375.424 418.516 375.413 418.817 375.537 418.918C375.661 419.018 375.639 418.918 375.751 418.918C375.884 418.806 376.002 418.682 376.102 418.546C376.322 418.263 376.521 417.967 376.7 417.662C377.012 417.142 377.27 416.597 377.468 416.034C377.602 415.44 377.787 414.855 378.021 414.286Z" fill="#263238"/>
<path d="M378.326 414.507C377.771 414.817 377.117 414.958 376.463 414.909C375.757 414.92 375.053 414.821 374.385 414.618C373.991 414.5 373.612 414.345 373.256 414.155C373.006 414.059 372.79 413.906 372.627 413.712C372.465 413.519 372.362 413.29 372.33 413.05C372.339 412.899 372.396 412.753 372.494 412.628C372.591 412.504 372.726 412.407 372.883 412.347C373.111 412.267 373.35 412.216 373.594 412.196C374.168 412.133 374.751 412.173 375.307 412.313C375.864 412.452 376.383 412.689 376.836 413.01C377.796 413.693 377.965 414.397 377.965 414.407C377.965 414.417 377.536 413.874 376.598 413.342C376.06 413.03 375.45 412.828 374.814 412.749C374.44 412.701 374.059 412.701 373.685 412.749C373.267 412.749 372.939 412.91 372.973 413.05C373.007 413.191 373.267 413.512 373.583 413.663C373.908 413.841 374.253 413.989 374.611 414.105C375.22 414.312 375.859 414.441 376.508 414.487C377.558 414.577 378.259 414.417 378.326 414.507Z" fill="#263238"/>
<path d="M81.8992 419.963L78.658 431.014L42.2935 430.723C42.2935 430.723 47.2738 427.377 65.5351 427.618L67.3082 419.963H81.8992Z" fill="#B78876"/>
<path d="M119.122 270.263C118.048 268.444 117.174 266.536 116.513 264.566C115.85 262.6 115.85 260.504 116.513 258.538C116.871 257.556 117.492 256.667 118.322 255.946C119.153 255.225 120.167 254.694 121.279 254.399C122.657 254.098 124.159 254.238 125.469 253.736C126.994 253.163 127.954 251.847 129.094 250.792C130.915 249.132 133.293 248.042 135.87 247.688C137.203 247.455 138.582 247.566 139.845 248.009C140.474 248.239 141.027 248.606 141.454 249.077C141.88 249.547 142.166 250.106 142.285 250.702C143.809 250.1 145.415 249.678 147.062 249.446C148.726 249.221 150.423 249.582 151.794 250.45C152.458 250.902 152.942 251.531 153.175 252.245C153.409 252.959 153.38 253.721 153.092 254.419C153.779 254.076 154.585 253.972 155.353 254.128C156.122 254.284 156.797 254.688 157.248 255.263C157.677 255.851 157.905 256.536 157.905 257.237C157.905 257.938 157.677 258.624 157.248 259.211C156.156 260.503 154.583 261.407 152.81 261.763C151.219 262.112 149.562 262.147 147.954 261.864" fill="#263238"/>
<path d="M137.089 313.887C140.223 313.545 143.077 312.113 145.028 309.905C146.979 307.697 147.869 304.892 147.502 302.102C147.073 298.857 146.7 296.154 146.7 296.154C146.7 296.154 155.893 294.446 155.531 286.197C155.17 277.949 152.494 259.071 152.494 259.071C147.11 257.294 141.291 256.827 135.637 257.719C129.983 258.611 124.699 260.829 120.33 264.144L119.009 265.149L123.741 304.423C123.903 305.829 124.379 307.193 125.142 308.434C125.904 309.675 126.937 310.768 128.18 311.65C129.423 312.531 130.851 313.183 132.381 313.567C133.911 313.951 135.512 314.06 137.089 313.887Z" fill="#B78876"/>
<path d="M146.7 296.033C142.426 296.295 138.161 295.421 134.447 293.522C134.447 293.522 137.643 299.329 146.869 298.163L146.7 296.033Z" fill="#AA6550"/>
<path d="M120.647 273.659C120.477 273.609 114.176 272.273 114.707 277.899C115.237 283.525 121.483 281.918 121.483 281.737C121.483 281.556 120.647 273.659 120.647 273.659Z" fill="#B78876"/>
<path d="M119.337 279.747C119.337 279.747 119.235 279.828 119.054 279.918C118.8 280.034 118.505 280.059 118.23 279.988C117.799 279.79 117.436 279.492 117.178 279.126C116.919 278.761 116.776 278.34 116.762 277.909C116.703 277.427 116.765 276.94 116.943 276.482C116.986 276.302 117.077 276.135 117.209 275.993C117.341 275.851 117.509 275.74 117.699 275.668C117.824 275.631 117.959 275.632 118.082 275.673C118.205 275.713 118.309 275.789 118.377 275.889C118.478 276.04 118.445 276.151 118.478 276.161C118.512 276.171 118.614 276.06 118.478 275.829C118.432 275.692 118.332 275.574 118.196 275.497C118.105 275.445 118.004 275.409 117.897 275.391C117.79 275.374 117.681 275.376 117.575 275.397C117.309 275.453 117.064 275.571 116.865 275.739C116.667 275.906 116.522 276.118 116.446 276.351C116.226 276.86 116.145 277.407 116.208 277.949C116.224 278.453 116.408 278.941 116.735 279.352C117.063 279.764 117.52 280.079 118.049 280.26C118.223 280.295 118.403 280.294 118.576 280.255C118.749 280.217 118.909 280.143 119.043 280.039C119.337 279.888 119.359 279.757 119.337 279.747Z" fill="#AA6550"/>
<path d="M150.36 272.694C150.376 273 150.259 273.3 150.035 273.532C149.81 273.763 149.494 273.91 149.151 273.94C148.983 273.958 148.813 273.947 148.651 273.906C148.488 273.865 148.336 273.796 148.204 273.703C148.071 273.609 147.961 273.493 147.879 273.361C147.798 273.23 147.746 273.085 147.728 272.936C147.706 272.628 147.821 272.326 148.047 272.093C148.272 271.86 148.592 271.715 148.937 271.69C149.105 271.67 149.275 271.681 149.439 271.721C149.602 271.761 149.754 271.83 149.887 271.924C150.02 272.018 150.13 272.134 150.211 272.267C150.292 272.399 150.343 272.544 150.36 272.694Z" fill="#263238"/>
<path d="M151.398 270.765C151.251 270.926 150.201 270.313 148.778 270.384C147.355 270.454 146.35 271.127 146.192 270.976C146.034 270.826 146.26 270.635 146.7 270.313C147.295 269.906 148.017 269.671 148.767 269.64C149.506 269.606 150.237 269.782 150.856 270.143C151.33 270.424 151.477 270.695 151.398 270.765Z" fill="#263238"/>
<path d="M136.796 273.277C136.813 273.583 136.696 273.883 136.471 274.114C136.247 274.346 135.93 274.492 135.588 274.523C135.42 274.541 135.25 274.529 135.087 274.489C134.925 274.448 134.773 274.379 134.64 274.285C134.508 274.192 134.398 274.076 134.316 273.944C134.235 273.813 134.183 273.668 134.165 273.518C134.14 273.211 134.253 272.907 134.48 272.673C134.706 272.44 135.028 272.296 135.373 272.272C135.541 272.254 135.711 272.266 135.874 272.307C136.037 272.348 136.189 272.417 136.321 272.51C136.453 272.604 136.564 272.72 136.645 272.851C136.727 272.983 136.778 273.128 136.796 273.277Z" fill="#263238"/>
<path d="M137.417 271.64C137.259 271.8 136.22 271.177 134.797 271.248C133.374 271.318 132.357 272.001 132.199 271.851C132.041 271.7 132.267 271.499 132.708 271.187C133.301 270.777 134.023 270.542 134.774 270.514C135.517 270.476 136.254 270.652 136.875 271.017C137.327 271.268 137.496 271.559 137.417 271.64Z" fill="#263238"/>
<path d="M143.12 280.802C143.846 280.555 144.605 280.393 145.379 280.32C145.74 280.27 146.079 280.19 146.124 279.968C146.145 279.634 146.041 279.302 145.83 279.024C145.446 278.25 145.04 277.447 144.611 276.603C143.492 274.564 142.563 272.447 141.833 270.273C143.146 272.228 144.279 274.274 145.221 276.392L146.35 278.823C146.601 279.205 146.693 279.653 146.61 280.089C146.565 280.205 146.491 280.309 146.393 280.395C146.295 280.48 146.176 280.544 146.045 280.581C145.848 280.642 145.643 280.679 145.435 280.692C144.671 280.811 143.894 280.848 143.12 280.802Z" fill="#263238"/>
<path d="M138.976 281.867C139.213 281.867 139.292 283.214 140.67 284.138C142.048 285.062 143.685 284.821 143.708 285.012C143.73 285.203 143.358 285.303 142.657 285.344C141.754 285.403 140.856 285.171 140.128 284.691C139.428 284.229 138.955 283.545 138.806 282.782C138.716 282.209 138.908 281.857 138.976 281.867Z" fill="#263238"/>
<path d="M150.755 268.555C150.517 268.856 149.524 268.605 148.338 268.645C147.152 268.686 146.17 268.937 145.921 268.645C145.808 268.505 145.921 268.203 146.373 267.912C146.936 267.553 147.611 267.36 148.304 267.359C149.001 267.333 149.69 267.506 150.269 267.852C150.698 268.123 150.856 268.414 150.755 268.555Z" fill="#263238"/>
<path d="M135.305 267.139C135.147 267.299 134.786 267.259 134.3 267.189C133.714 267.106 133.121 267.066 132.527 267.068C131.935 267.084 131.346 267.144 130.766 267.249C130.291 267.329 129.93 267.38 129.772 267.249C129.614 267.118 129.772 266.737 130.212 266.345C130.846 265.874 131.645 265.614 132.471 265.611C133.286 265.599 134.083 265.832 134.73 266.274C135.317 266.626 135.441 266.988 135.305 267.139Z" fill="#263238"/>
<path d="M153.104 261.603C148.7 262.879 143.955 262.879 139.552 261.603C134.662 260.196 129.196 259.925 128.157 260.899C127.118 261.874 127.603 266.074 123.301 267.932C123.301 267.932 124.983 275.849 121.369 276.05C117.756 276.251 117.869 263.622 117.869 263.622L125.943 258.649L135.181 255.765L144.092 254.55L152.776 255.695L153.104 261.603Z" fill="#263238"/>
<path d="M166.712 312.993L194.539 336.161L238.583 309.416L252.338 323.482L210.033 353.623C205.789 356.99 200.367 358.949 194.686 359.169C190.844 359.316 187.016 358.662 183.51 357.257C180.004 355.853 176.916 353.738 174.493 351.081L159.586 339.888L166.712 312.993Z" fill="#285BBE"/>
<path d="M140.862 303.036L166.712 312.993L165.854 319.362L177.882 361.801L190.959 370.29L180.129 384.447C177.69 387.621 174.503 390.285 170.789 392.253L145.007 405.897C142.587 406.682 139.922 406.621 137.551 405.726C135.18 404.831 133.28 403.168 132.234 401.074L109.433 355.049L86.5184 418.275C85.8009 420.258 84.3175 421.951 82.3311 423.054C80.3447 424.158 77.9834 424.6 75.6655 424.303L66.6309 423.127C65.9031 423.032 65.2059 422.802 64.5845 422.452C63.963 422.102 63.4312 421.64 63.0234 421.095C62.6156 420.55 62.341 419.936 62.2173 419.291C62.0937 418.646 62.1237 417.985 62.3055 417.35L87.9301 328.716C89.2784 324.112 91.4766 319.739 94.4351 315.776C97.1895 312.121 100.89 309.107 105.225 306.988C109.56 304.869 114.403 303.707 119.348 303.599L140.862 303.036Z" fill="#285BBE"/>
<path d="M149.919 303.699L148.959 299.088L121.562 297.45V303.579C121.754 305.327 124.95 304.804 127.931 305.9L141.347 308.281C144.623 308.512 151.602 307.437 149.919 303.699Z" fill="#285BBE"/>
<path d="M178.152 362.002C177.868 361.48 177.63 360.939 177.441 360.384C177.023 359.38 176.447 357.812 175.758 355.903C174.392 352.106 172.63 346.861 170.936 340.933C169.242 335.006 167.909 329.641 167.051 325.732C166.622 323.773 166.306 322.186 166.102 321.081C165.961 320.516 165.878 319.941 165.854 319.363C166.056 319.911 166.215 320.472 166.328 321.04C166.622 322.216 167.006 323.773 167.458 325.652C168.418 329.55 169.807 334.915 171.501 340.803C173.195 346.69 174.889 351.975 176.165 355.803C176.775 357.652 177.294 359.169 177.667 360.324C177.875 360.872 178.037 361.433 178.152 362.002Z" fill="#263238"/>
<path d="M117.711 334.081C117.43 335.161 117.052 336.22 116.581 337.246C115.768 339.316 114.752 341.918 113.622 344.781C112.493 347.645 111.477 350.247 110.663 352.317C110.308 353.376 109.874 354.413 109.365 355.421C109.552 354.327 109.855 353.25 110.268 352.206C110.923 350.197 111.906 347.554 113.069 344.611C114.232 341.667 115.328 339.024 116.186 337.116C116.597 336.068 117.107 335.053 117.711 334.081Z" fill="#263238"/>
<g opacity="0.2">
<path opacity="0.2" d="M109.342 355.15C111.548 359.591 113.742 364.031 115.926 368.472C116.232 369.205 116.679 369.885 117.247 370.481C117.537 370.781 117.908 371.01 118.325 371.147C118.742 371.284 119.191 371.325 119.63 371.265C121.256 370.934 121.663 369.075 121.719 367.598C122.103 357.883 121.719 347.936 117.913 338.813C117.642 338.15 117.134 337.367 116.344 337.457C115.553 337.548 115.305 338.261 115.113 338.864L109.76 355.943" fill="black"/>
</g>
<g opacity="0.2">
<path opacity="0.2" d="M180.434 356.064C180.871 355.822 181.227 355.48 181.463 355.073C181.7 354.667 181.808 354.211 181.778 353.753C181.699 352.841 181.423 351.95 180.964 351.131C177.973 344.921 173.949 339.146 169.027 334.001L174.437 351.081L180.434 356.064Z" fill="black"/>
</g>
<path d="M94.943 348.408C94.8752 348.408 95.1463 342.601 95.5528 335.438C95.9594 328.274 96.3208 322.477 96.3885 322.477C96.4563 322.477 96.1853 328.294 95.79 335.448C95.3947 342.601 95.0108 348.418 94.943 348.408Z" fill="#E0E0E0"/>
<path d="M100.025 328.274C100.078 328.427 100.101 328.587 100.093 328.746C100.121 329.185 100.121 329.624 100.093 330.063C99.9168 332.981 98.7907 335.791 96.8516 338.15C96.5626 338.502 96.2495 338.838 95.9143 339.155C95.7998 339.277 95.6711 339.388 95.5303 339.487C95.5303 339.487 96.0159 338.954 96.6596 338.05C98.4963 335.664 99.6053 332.894 99.8782 330.012C100.025 328.957 99.9911 328.274 100.025 328.274Z" fill="#E0E0E0"/>
<path d="M90.7874 329.078C90.7874 329.078 90.889 329.681 91.0923 330.625C91.3736 331.865 91.8052 333.075 92.3797 334.232C92.9631 335.38 93.6904 336.465 94.5481 337.467C95.2144 338.241 95.6774 338.673 95.6774 338.703C95.545 338.622 95.4237 338.528 95.316 338.422C95.0072 338.149 94.7168 337.861 94.4464 337.557C93.5369 336.569 92.7775 335.477 92.1877 334.312C91.5959 333.148 91.1819 331.918 90.9568 330.655C90.8817 330.276 90.8327 329.894 90.81 329.51C90.7876 329.367 90.78 329.222 90.7874 329.078Z" fill="#E0E0E0"/>
<path d="M98.8621 324.838C98.8793 324.965 98.8793 325.093 98.8621 325.22C98.8857 325.554 98.8857 325.89 98.8621 326.225C98.7508 327.349 98.5085 328.46 98.1394 329.54C97.7758 330.628 97.2836 331.679 96.6712 332.675C96.4954 332.98 96.2993 333.275 96.084 333.559C96.0122 333.669 95.9249 333.77 95.8242 333.86C95.8242 333.86 96.0953 333.378 96.5244 332.604C97.0796 331.618 97.5442 330.593 97.9135 329.54C98.2648 328.461 98.5216 327.359 98.6814 326.245C98.7136 325.773 98.7739 325.304 98.8621 324.838Z" fill="#E0E0E0"/>
<path d="M92.899 325.521C92.899 325.521 92.899 326.134 92.899 327.129C92.9336 328.415 93.1152 329.694 93.441 330.947C93.7795 332.191 94.2561 333.403 94.864 334.564C95.3383 335.458 95.6884 335.99 95.6545 336.01C95.549 335.901 95.4545 335.783 95.3722 335.659C95.2028 335.418 94.9769 335.076 94.7172 334.654C94.0618 333.491 93.5615 332.263 93.2265 330.997C92.8983 329.732 92.7353 328.437 92.7409 327.139C92.742 326.746 92.7684 326.354 92.8199 325.963C92.8196 325.813 92.8463 325.664 92.899 325.521Z" fill="#E0E0E0"/>
<path d="M94.7847 323.623C94.7847 323.623 94.6831 323.984 94.604 324.567C94.5158 325.322 94.5615 326.085 94.7396 326.828C95.2026 328.566 95.8689 329.912 95.8689 329.942C95.6762 329.669 95.5136 329.379 95.3833 329.078C95.0271 328.367 94.751 327.627 94.5589 326.868C94.3642 326.102 94.3412 325.31 94.4911 324.537C94.5186 324.218 94.6185 323.907 94.7847 323.623Z" fill="#E0E0E0"/>
<path d="M91.3066 336.794C91.3744 336.794 92.0294 337.889 93.1136 339.095C94.1977 340.3 95.2819 341.104 95.2367 341.185C94.9588 341.054 94.7039 340.888 94.4801 340.692C93.3615 339.797 92.4153 338.745 91.6793 337.578C91.5122 337.334 91.3866 337.07 91.3066 336.794Z" fill="#E0E0E0"/>
<path d="M100.138 338.13C99.9848 338.413 99.7912 338.676 99.5618 338.914C99.0472 339.519 98.4929 340.096 97.9016 340.642C97.3043 341.188 96.6667 341.698 95.9931 342.169C95.7308 342.378 95.4429 342.56 95.1348 342.712C95.3588 342.47 95.6126 342.251 95.8914 342.059C96.3657 341.667 97.0208 341.124 97.7096 340.491C98.3985 339.858 98.9858 339.266 99.4149 338.824C99.6297 338.572 99.8717 338.34 100.138 338.13Z" fill="#E0E0E0"/>
<path d="M75.7667 413.362C75.699 413.362 75.97 407.555 76.3766 400.391C76.7831 393.228 77.1445 387.431 77.2123 387.431C77.28 387.431 77.009 393.238 76.6024 400.401C76.1959 407.565 75.8345 413.362 75.7667 413.362Z" fill="#E0E0E0"/>
<path d="M80.8486 393.218C80.8719 393.378 80.8719 393.54 80.8486 393.7C80.8831 394.138 80.8831 394.578 80.8486 395.016C80.6726 397.935 79.5465 400.745 77.6074 403.104C77.3193 403.456 77.0062 403.792 76.6701 404.108C76.5573 404.235 76.4285 404.35 76.2861 404.45C76.2861 404.45 76.7717 403.918 77.4719 403.003C78.3835 401.82 79.1198 400.537 79.6628 399.186C80.2029 397.833 80.5482 396.425 80.6905 394.996C80.8486 393.911 80.8035 393.218 80.8486 393.218Z" fill="#E0E0E0"/>
<path d="M71.611 394.031C71.611 394.031 71.7127 394.624 71.916 395.579C72.4655 398.064 73.6477 400.405 75.3717 402.421C76.038 403.194 76.5011 403.626 76.5011 403.646C76.366 403.569 76.2443 403.474 76.1397 403.365C75.8276 403.099 75.5371 402.814 75.2701 402.511C73.4418 400.525 72.2378 398.143 71.7805 395.609C71.7052 395.227 71.6562 394.841 71.6336 394.453C71.6114 394.314 71.6038 394.172 71.611 394.031Z" fill="#E0E0E0"/>
<path d="M79.6745 389.822C79.6745 389.822 79.6745 389.953 79.6745 390.194C79.6745 390.435 79.6745 390.787 79.6745 391.198C79.471 393.467 78.7322 395.672 77.5062 397.669C77.269 398.05 77.0657 398.352 76.9189 398.553C76.8432 398.66 76.7563 398.761 76.6592 398.854C76.6592 398.854 76.9302 398.372 77.3594 397.598C77.9153 396.591 78.3798 395.547 78.7484 394.474C79.1031 393.399 79.3562 392.3 79.5051 391.188C79.618 390.324 79.6406 389.822 79.6745 389.822Z" fill="#E0E0E0"/>
<path d="M73.7227 390.485C73.7227 390.485 73.7227 391.098 73.7227 392.083C73.7567 393.368 73.9383 394.648 74.2648 395.9C74.5947 397.154 75.0638 398.376 75.6651 399.547C76.1395 400.442 76.4895 400.964 76.4557 400.984C76.4218 401.004 76.3427 400.874 76.1733 400.633C75.9303 400.311 75.7115 399.975 75.5183 399.628C74.8581 398.466 74.3575 397.239 74.0276 395.971C73.6943 394.703 73.5313 393.405 73.542 392.103C73.544 391.71 73.5703 391.317 73.621 390.927C73.6274 390.776 73.6617 390.626 73.7227 390.485Z" fill="#E0E0E0"/>
<path d="M75.6653 388.576C75.6653 388.576 75.5637 388.928 75.4846 389.51C75.3911 390.269 75.4368 391.036 75.6202 391.781C76.0719 393.519 76.7495 394.855 76.7495 394.886C76.5493 394.619 76.3862 394.333 76.2639 394.032C75.9095 393.32 75.6335 392.58 75.4395 391.821C75.2476 391.056 75.2208 390.265 75.3604 389.49C75.3882 389.17 75.4921 388.858 75.6653 388.576Z" fill="#E0E0E0"/>
<path d="M72.1304 401.738C72.1868 401.738 72.8531 402.833 73.9373 404.048C75.0215 405.264 76.1056 406.058 76.0604 406.138C75.7809 406.006 75.5258 405.837 75.3038 405.636C74.7424 405.19 74.2248 404.703 73.7566 404.179C73.2828 403.654 72.8632 403.093 72.503 402.501C72.33 402.268 72.2039 402.009 72.1304 401.738Z" fill="#E0E0E0"/>
<path d="M80.9621 403.074C80.8058 403.358 80.6125 403.624 80.3861 403.868C79.8705 404.468 79.3162 405.042 78.726 405.586C78.1241 406.138 77.4787 406.652 76.7948 407.123C76.5385 407.336 76.2495 407.515 75.9365 407.655C76.163 407.418 76.4166 407.203 76.6932 407.012C77.1675 406.62 77.8225 406.078 78.5114 405.445C79.2003 404.812 79.7876 404.209 80.2054 403.777C80.431 403.521 80.6845 403.286 80.9621 403.074Z" fill="#E0E0E0"/>
<path d="M117.552 330.043C117.485 330.043 117.756 324.235 118.151 317.072C118.546 309.908 118.93 304.111 118.998 304.111C119.066 304.111 118.783 309.918 118.388 317.082C117.993 324.245 117.62 330.043 117.552 330.043Z" fill="#E0E0E0"/>
<path d="M122.634 309.898C122.65 310.059 122.65 310.22 122.634 310.381C122.669 310.819 122.669 311.259 122.634 311.697C122.458 314.615 121.332 317.425 119.393 319.784C119.101 320.134 118.789 320.47 118.456 320.789C118.343 320.916 118.214 321.03 118.072 321.131C118.072 321.131 118.557 320.598 119.258 319.684C121.097 317.3 122.203 314.529 122.465 311.646C122.623 310.581 122.589 309.898 122.634 309.898Z" fill="#E0E0E0"/>
<path d="M113.397 310.712C113.397 310.712 113.487 311.305 113.701 312.259C113.971 313.498 114.4 314.704 114.978 315.856C115.567 317.006 116.298 318.095 117.157 319.101C117.823 319.865 118.287 320.307 118.287 320.327C118.157 320.247 118.039 320.153 117.936 320.046C117.626 319.775 117.332 319.49 117.056 319.192C116.146 318.203 115.387 317.112 114.797 315.947C114.209 314.78 113.791 313.551 113.555 312.29C113.476 311.797 113.43 311.405 113.419 311.134C113.382 310.996 113.375 310.853 113.397 310.712Z" fill="#E0E0E0"/>
<path d="M121.46 306.432C121.46 306.432 121.46 306.563 121.46 306.804C121.46 307.045 121.46 307.397 121.46 307.809C121.351 308.939 121.112 310.057 120.748 311.144C120.391 312.233 119.902 313.284 119.291 314.279C119.054 314.661 118.851 314.962 118.693 315.163C118.535 315.364 118.455 315.464 118.444 315.454C118.433 315.444 118.715 314.982 119.144 314.208C119.701 313.203 120.162 312.158 120.522 311.084C120.885 310.011 121.142 308.911 121.29 307.798C121.403 307.005 121.426 306.432 121.46 306.432Z" fill="#E0E0E0"/>
<path d="M115.497 307.156C115.497 307.156 115.497 307.778 115.497 308.763C115.531 310.049 115.713 311.328 116.039 312.581C116.367 313.833 116.84 315.052 117.45 316.218C117.913 317.122 118.275 317.644 118.23 317.665C118.121 317.557 118.026 317.439 117.947 317.313C117.713 316.988 117.498 316.653 117.304 316.308C116.638 315.149 116.138 313.92 115.813 312.651C115.474 311.384 115.311 310.085 115.327 308.783C115.327 308.291 115.327 307.889 115.395 307.608C115.417 307.455 115.45 307.304 115.497 307.156Z" fill="#E0E0E0"/>
<path d="M117.45 305.257C117.45 305.257 117.349 305.608 117.27 306.191C117.176 306.949 117.222 307.716 117.405 308.462C117.857 310.2 118.535 311.536 118.535 311.566C118.329 311.303 118.166 311.015 118.049 310.712C117.691 310.002 117.415 309.261 117.225 308.502C117.033 307.736 117.006 306.945 117.146 306.171C117.173 305.85 117.277 305.539 117.45 305.257Z" fill="#E0E0E0"/>
<path d="M113.916 318.418C113.916 318.418 114.627 319.513 115.723 320.729C116.818 321.945 117.891 322.738 117.846 322.819C117.567 322.687 117.311 322.517 117.089 322.316C115.962 321.421 115.015 320.361 114.289 319.182C114.118 318.947 113.992 318.689 113.916 318.418Z" fill="#E0E0E0"/>
<path d="M122.747 319.754C122.591 320.038 122.397 320.305 122.171 320.548C121.656 321.149 121.101 321.722 120.511 322.266C119.918 322.812 119.288 323.326 118.625 323.803C118.364 324.016 118.072 324.195 117.755 324.336C117.989 324.098 118.246 323.88 118.523 323.683C118.998 323.301 119.653 322.758 120.342 322.125C121.03 321.492 121.618 320.89 122.036 320.448C122.245 320.195 122.483 319.963 122.747 319.754Z" fill="#E0E0E0"/>
<path d="M142.036 325.381C141.968 325.381 142.239 319.564 142.634 312.41C143.03 305.257 143.414 299.449 143.47 299.449C143.527 299.449 143.267 305.257 142.872 312.42C142.476 319.584 142.092 325.381 142.036 325.381Z" fill="#E0E0E0"/>
<path d="M147.118 305.237C147.134 305.397 147.134 305.558 147.118 305.719C147.118 306.03 147.118 306.482 147.118 307.035C146.915 309.933 145.791 312.72 143.877 315.073C143.585 315.422 143.272 315.758 142.939 316.077C142.702 316.308 142.567 316.429 142.544 316.419C142.522 316.409 143.03 315.886 143.741 314.972C145.581 312.588 146.686 309.817 146.949 306.935C147.107 305.92 147.073 305.237 147.118 305.237Z" fill="#E0E0E0"/>
<path d="M137.88 306.05C137.88 306.05 137.97 306.643 138.185 307.598C138.455 308.836 138.883 310.043 139.461 311.194C140.05 312.344 140.781 313.433 141.641 314.44C142.296 315.203 142.77 315.645 142.77 315.665C142.638 315.584 142.516 315.49 142.409 315.384C142.194 315.193 141.889 314.902 141.539 314.53C140.636 313.537 139.877 312.447 139.28 311.285C138.695 310.118 138.281 308.889 138.049 307.628C137.97 307.135 137.914 306.744 137.903 306.472C137.868 306.334 137.861 306.191 137.88 306.05Z" fill="#E0E0E0"/>
<path d="M145.944 301.811C145.958 301.934 145.958 302.059 145.944 302.182C145.944 302.423 145.944 302.775 145.944 303.187C145.835 304.318 145.597 305.435 145.232 306.523C144.865 307.608 144.377 308.658 143.775 309.657C143.595 309.959 143.396 310.251 143.177 310.531C143.03 310.742 142.94 310.843 142.917 310.833C142.895 310.823 143.2 310.361 143.629 309.587C144.745 307.573 145.471 305.406 145.774 303.177C145.876 302.343 145.91 301.801 145.944 301.811Z" fill="#E0E0E0"/>
<path d="M140.037 302.494C140.037 302.494 140.037 303.117 140.037 304.101C140.082 305.387 140.267 306.665 140.59 307.919C140.919 309.171 141.392 310.39 142.002 311.556C142.465 312.46 142.815 312.983 142.781 313.003C142.672 312.896 142.578 312.778 142.499 312.651C142.33 312.42 142.104 312.068 141.844 311.646C141.189 310.483 140.688 309.256 140.353 307.989C140.023 306.721 139.864 305.423 139.879 304.121C139.878 303.729 139.901 303.336 139.947 302.946C139.957 302.792 139.987 302.641 140.037 302.494Z" fill="#E0E0E0"/>
<path d="M141.878 300.595C141.878 300.595 141.776 300.946 141.686 301.529C141.596 302.288 141.646 303.055 141.833 303.8C142.285 305.538 142.962 306.874 142.962 306.904C142.767 306.635 142.605 306.349 142.477 306.05C142.124 305.338 141.848 304.598 141.652 303.84C141.458 303.075 141.434 302.282 141.584 301.509C141.609 301.189 141.709 300.878 141.878 300.595Z" fill="#E0E0E0"/>
<path d="M138.388 313.756C138.456 313.756 139.111 314.851 140.206 316.067C141.302 317.283 142.363 318.076 142.318 318.157C142.044 318.023 141.792 317.853 141.573 317.655C141.007 317.21 140.486 316.722 140.014 316.198C139.55 315.669 139.135 315.108 138.772 314.52C138.601 314.284 138.472 314.027 138.388 313.756Z" fill="#E0E0E0"/>
<path d="M147.22 315.093C147.074 315.382 146.88 315.649 146.644 315.886C146.136 316.49 145.585 317.063 144.995 317.604C144.402 318.15 143.772 318.664 143.109 319.141C142.848 319.354 142.556 319.533 142.239 319.674C142.471 319.438 142.724 319.22 142.996 319.021C143.482 318.639 144.125 318.097 144.825 317.464C145.526 316.831 146.102 316.228 146.519 315.786C146.731 315.538 146.965 315.306 147.22 315.093Z" fill="#E0E0E0"/>
<path d="M152.098 345.716C152.031 345.716 152.302 339.899 152.697 332.745C153.092 325.592 153.476 319.785 153.544 319.785C153.612 319.785 153.341 325.592 152.934 332.755C152.527 339.919 152.166 345.716 152.098 345.716Z" fill="#E0E0E0"/>
<path d="M157.181 325.572C157.204 325.732 157.204 325.894 157.181 326.054C157.215 326.492 157.215 326.932 157.181 327.37C157.005 330.288 155.879 333.098 153.939 335.458C153.648 335.808 153.335 336.143 153.002 336.462C152.889 336.589 152.761 336.704 152.618 336.804C152.618 336.804 153.104 336.272 153.804 335.357C155.643 332.973 156.749 330.202 157.011 327.32C157.181 326.255 157.135 325.572 157.181 325.572Z" fill="#E0E0E0"/>
<path d="M147.943 326.385C147.943 326.385 148.033 326.978 148.248 327.933C148.516 329.172 148.949 330.38 149.535 331.529C150.117 332.681 150.844 333.77 151.703 334.775C152.37 335.538 152.833 335.98 152.833 336C152.698 335.922 152.576 335.828 152.471 335.719C152.245 335.528 151.952 335.237 151.59 334.865C150.681 333.876 149.922 332.785 149.332 331.62C148.744 330.453 148.326 329.224 148.089 327.963C148.01 327.47 147.965 327.079 147.954 326.807C147.935 326.667 147.932 326.526 147.943 326.385Z" fill="#E0E0E0"/>
<path d="M156.006 322.146C156.006 322.146 156.006 322.276 156.006 322.517C156.006 322.759 156.006 323.11 156.006 323.522C155.896 324.652 155.662 325.769 155.306 326.858C154.94 327.945 154.448 328.996 153.838 329.992C153.6 330.374 153.397 330.675 153.25 330.866C153.103 331.057 153.002 331.178 152.991 331.168C152.979 331.158 153.262 330.696 153.691 329.922C154.247 328.915 154.711 327.87 155.08 326.797C155.438 325.723 155.695 324.624 155.848 323.512C155.949 322.678 155.972 322.136 156.006 322.146Z" fill="#E0E0E0"/>
<path d="M150.043 322.829C150.043 322.829 150.043 323.452 150.043 324.436C150.078 325.722 150.259 327.001 150.585 328.254C150.919 329.505 151.391 330.724 151.997 331.891C152.471 332.795 152.821 333.318 152.787 333.338C152.753 333.358 152.663 333.217 152.505 332.986C152.262 332.665 152.043 332.329 151.85 331.982C151.19 330.82 150.689 329.592 150.359 328.324C150.02 327.058 149.857 325.759 149.874 324.456C149.876 324.064 149.902 323.671 149.953 323.281C149.968 323.128 149.998 322.977 150.043 322.829Z" fill="#E0E0E0"/>
<path d="M151.94 320.93C151.94 320.93 151.839 321.281 151.76 321.864C151.666 322.623 151.712 323.389 151.895 324.135C152.347 325.873 153.024 327.209 153.024 327.239C152.824 326.973 152.661 326.686 152.539 326.385C152.186 325.673 151.91 324.933 151.714 324.175C151.523 323.409 151.496 322.619 151.635 321.844C151.663 321.524 151.767 321.212 151.94 320.93Z" fill="#E0E0E0"/>
<path d="M148.462 334.091C148.462 334.091 149.173 335.186 150.269 336.402C151.364 337.618 152.437 338.412 152.392 338.492C152.112 338.36 151.857 338.19 151.635 337.99C151.079 337.554 150.561 337.081 150.088 336.573C149.617 336.047 149.197 335.485 148.835 334.895C148.659 334.648 148.533 334.376 148.462 334.091Z" fill="#E0E0E0"/>
<path d="M157.293 335.428C157.137 335.711 156.944 335.978 156.717 336.221C156.202 336.822 155.648 337.396 155.057 337.939C154.465 338.486 153.835 338.999 153.171 339.477C152.911 339.689 152.618 339.869 152.302 340.009C152.539 339.775 152.796 339.557 153.07 339.356C153.544 338.974 154.199 338.432 154.888 337.799C155.577 337.166 156.164 336.563 156.582 336.121C156.795 335.871 157.033 335.639 157.293 335.428Z" fill="#E0E0E0"/>
<path d="M187.029 353.773C186.961 353.773 184.894 348.278 182.41 341.456C179.925 334.634 177.96 329.098 178.017 329.078C178.073 329.058 180.14 334.574 182.636 341.395C185.132 348.217 187.085 353.753 187.029 353.773Z" fill="#E0E0E0"/>
<path d="M183.731 333.338C183.83 333.474 183.914 333.619 183.98 333.77C184.178 334.17 184.351 334.579 184.499 334.996C184.996 336.381 185.266 337.822 185.301 339.276C185.332 340.73 185.13 342.181 184.702 343.586C184.574 344.008 184.419 344.424 184.239 344.832C184.177 344.984 184.102 345.132 184.013 345.274C184.013 345.274 184.251 344.621 184.544 343.546C184.918 342.151 185.092 340.719 185.064 339.286C185.028 337.851 184.785 336.426 184.341 335.046C184.002 333.981 183.697 333.348 183.731 333.338Z" fill="#E0E0E0"/>
<path d="M175.419 337.015C175.419 337.015 175.746 337.548 176.322 338.371C177.077 339.441 177.963 340.431 178.965 341.325C179.967 342.217 181.081 343.002 182.285 343.666C183.211 344.178 183.821 344.44 183.81 344.47C183.653 344.437 183.501 344.386 183.358 344.319C182.97 344.166 182.593 343.992 182.229 343.797C180.992 343.156 179.853 342.376 178.841 341.476C177.823 340.578 176.942 339.564 176.221 338.462C176.006 338.136 175.81 337.801 175.634 337.457C175.539 337.319 175.467 337.171 175.419 337.015Z" fill="#E0E0E0"/>
<path d="M181.269 330.545C181.349 330.649 181.41 330.765 181.45 330.886C181.59 331.215 181.711 331.551 181.811 331.891C182.169 332.979 182.396 334.097 182.489 335.227C182.579 336.356 182.541 337.49 182.376 338.613C182.308 339.045 182.229 339.396 182.173 339.617C182.147 339.742 182.106 339.863 182.049 339.979C182.049 339.979 182.116 339.446 182.207 338.592C182.307 337.472 182.307 336.347 182.207 335.227C182.111 334.112 181.911 333.006 181.608 331.921C181.416 331.017 181.235 330.545 181.269 330.545Z" fill="#E0E0E0"/>
<path d="M175.973 333.036C175.973 333.036 176.21 333.609 176.628 334.523C177.715 336.919 179.354 339.085 181.439 340.883C182.229 341.566 182.771 341.948 182.749 341.978C182.6 341.916 182.463 341.835 182.342 341.737C181.982 341.506 181.638 341.254 181.314 340.984C179.155 339.22 177.495 337.027 176.47 334.584C176.278 334.112 176.142 333.73 176.063 333.458C176.013 333.322 175.982 333.18 175.973 333.036Z" fill="#E0E0E0"/>
<path d="M176.978 330.655C176.978 330.655 176.978 331.017 177.181 331.59C177.399 332.325 177.75 333.024 178.22 333.659C179.349 335.146 180.546 336.171 180.479 336.221C180.186 336.037 179.921 335.821 179.688 335.578C179.072 335.023 178.516 334.418 178.028 333.77C177.543 333.117 177.205 332.387 177.034 331.62C176.939 331.305 176.92 330.977 176.978 330.655Z" fill="#E0E0E0"/>
<path d="M178.988 344.058C178.988 344.008 180.117 344.852 181.597 345.645C183.076 346.439 184.431 346.861 184.409 346.921C184.099 346.895 183.797 346.82 183.516 346.7C182.809 346.461 182.125 346.168 181.472 345.826C180.823 345.485 180.211 345.092 179.643 344.651C179.388 344.488 179.166 344.288 178.988 344.058Z" fill="#E0E0E0"/>
<path d="M187.774 342.521C187.738 342.832 187.663 343.139 187.548 343.435C187.312 344.163 187.025 344.878 186.69 345.575C186.364 346.266 185.987 346.938 185.56 347.584C185.404 347.87 185.202 348.134 184.962 348.368C185.086 348.073 185.237 347.787 185.414 347.514C185.707 347.002 186.103 346.288 186.543 345.505C186.983 344.721 187.243 343.957 187.458 343.415C187.525 343.107 187.631 342.807 187.774 342.521Z" fill="#E0E0E0"/>
<path d="M224.331 325.381C224.331 325.381 220.287 329.952 215.205 335.508C210.123 341.064 205.945 345.555 205.9 345.555C205.855 345.555 209.931 340.984 215.025 335.418C220.118 329.852 224.274 325.351 224.331 325.381Z" fill="#E0E0E0"/>
<path d="M206.815 338.924C206.895 338.782 206.986 338.644 207.086 338.512C207.359 338.144 207.653 337.788 207.967 337.447C210.061 335.199 212.836 333.532 215.963 332.645C216.433 332.512 216.912 332.405 217.397 332.323C217.573 332.277 217.755 332.254 217.939 332.253C217.939 332.253 217.194 332.424 216.019 332.785C214.498 333.264 213.048 333.909 211.705 334.704C210.371 335.513 209.157 336.468 208.091 337.548C207.278 338.381 206.86 338.954 206.815 338.924Z" fill="#E0E0E0"/>
<path d="M214.799 343.144C214.799 343.144 215.127 342.611 215.59 341.737C216.19 340.593 216.644 339.394 216.945 338.16C217.244 336.926 217.384 335.665 217.363 334.403C217.363 333.398 217.25 332.835 217.295 332.835C217.343 332.97 217.377 333.108 217.397 333.247C217.462 333.63 217.503 334.016 217.521 334.403C217.596 335.68 217.482 336.96 217.182 338.211C216.864 339.458 216.367 340.663 215.703 341.797C215.514 342.147 215.295 342.483 215.048 342.802C214.982 342.925 214.899 343.04 214.799 343.144Z" fill="#E0E0E0"/>
<path d="M205.539 342.31C205.539 342.31 205.606 342.189 205.764 341.988C205.989 341.709 206.23 341.441 206.487 341.185C207.323 340.333 208.254 339.559 209.265 338.874C210.282 338.191 211.376 337.605 212.529 337.126C212.896 336.971 213.273 336.837 213.658 336.724C213.788 336.672 213.925 336.635 214.065 336.613C214.065 336.613 213.523 336.854 212.665 337.256C211.544 337.77 210.474 338.368 209.469 339.044C208.467 339.725 207.526 340.474 206.657 341.285C205.889 341.918 205.539 342.33 205.539 342.31Z" fill="#E0E0E0"/>
<path d="M210.745 344.892C210.745 344.892 211.162 344.4 211.795 343.596C212.622 342.539 213.33 341.411 213.907 340.23C214.473 339.047 214.901 337.814 215.183 336.553C215.409 335.548 215.477 334.975 215.522 334.975C215.539 335.119 215.539 335.264 215.522 335.407C215.495 335.802 215.442 336.194 215.364 336.583C215.117 337.864 214.704 339.115 214.133 340.31C213.556 341.509 212.82 342.642 211.942 343.686C211.603 344.078 211.309 344.389 211.095 344.59C210.993 344.704 210.876 344.805 210.745 344.892Z" fill="#E0E0E0"/>
<path d="M207.944 345.434C207.944 345.434 208.272 345.203 208.724 344.771C209.301 344.211 209.771 343.569 210.113 342.872C210.914 341.235 211.242 339.778 211.321 339.798C211.302 340.138 211.242 340.475 211.14 340.803C210.95 341.561 210.678 342.301 210.327 343.013C209.974 343.732 209.468 344.384 208.836 344.932C208.581 345.152 208.277 345.323 207.944 345.434Z" fill="#E0E0E0"/>
<path d="M219.52 336.663C219.452 336.663 219.667 335.397 219.599 333.85C219.531 332.303 219.215 331.067 219.283 331.047C219.418 331.301 219.51 331.572 219.554 331.851C219.714 332.512 219.808 333.184 219.836 333.86C219.863 334.532 219.825 335.204 219.723 335.87C219.704 336.142 219.635 336.41 219.52 336.663Z" fill="#E0E0E0"/>
<path d="M213.297 330.927C213.608 330.781 213.938 330.67 214.279 330.595C215.095 330.38 215.925 330.209 216.764 330.083C217.605 329.958 218.453 329.877 219.305 329.841C219.658 329.808 220.014 329.808 220.367 329.841C220.022 329.916 219.67 329.959 219.316 329.972C218.673 330.032 217.78 330.123 216.809 330.274C215.838 330.424 214.957 330.585 214.325 330.726C213.991 330.824 213.646 330.891 213.297 330.927Z" fill="#E0E0E0"/>
<path d="M148.462 396.443C148.394 396.443 148.18 390.636 147.965 383.472C147.75 376.309 147.649 370.492 147.717 370.492C147.784 370.492 147.999 376.299 148.202 383.462C148.406 390.626 148.53 396.443 148.462 396.443Z" fill="#E0E0E0"/>
<path d="M151.828 376.017C151.888 376.173 151.923 376.335 151.929 376.499C151.995 376.933 152.033 377.369 152.042 377.806C152.101 380.726 151.215 383.599 149.49 386.084C149.151 386.557 148.858 386.928 148.643 387.169C148.54 387.303 148.419 387.425 148.282 387.531C148.282 387.531 148.722 386.968 149.343 386.014C150.156 384.773 150.783 383.442 151.207 382.055C151.629 380.669 151.853 379.241 151.873 377.806C151.884 376.761 151.783 376.027 151.828 376.017Z" fill="#E0E0E0"/>
<path d="M142.68 377.444C142.68 377.444 142.826 378.037 143.12 378.971C143.497 380.189 144.027 381.365 144.701 382.477C145.385 383.582 146.203 384.616 147.14 385.562C147.874 386.285 148.371 386.687 148.349 386.717C148.208 386.646 148.079 386.558 147.965 386.456C147.634 386.209 147.321 385.944 147.027 385.662C146.036 384.737 145.186 383.7 144.498 382.578C143.815 381.453 143.298 380.254 142.962 379.011C142.859 378.634 142.78 378.251 142.725 377.866C142.692 377.727 142.677 377.586 142.68 377.444Z" fill="#E0E0E0"/>
<path d="M150.371 372.682C150.414 372.802 150.436 372.927 150.438 373.054C150.438 373.295 150.438 373.646 150.438 374.058C150.43 375.193 150.29 376.325 150.021 377.434C149.751 378.54 149.349 379.618 148.823 380.649C148.62 381.041 148.451 381.362 148.315 381.573C148.257 381.688 148.176 381.794 148.078 381.885C148.078 381.885 148.315 381.393 148.677 380.589C149.153 379.55 149.53 378.478 149.806 377.384C150.065 376.288 150.228 375.176 150.292 374.058C150.348 373.214 150.337 372.682 150.371 372.682Z" fill="#E0E0E0"/>
<path d="M144.487 373.747C144.487 373.747 144.487 374.36 144.634 375.344C144.783 376.626 145.074 377.891 145.503 379.122C145.939 380.346 146.514 381.528 147.22 382.648C147.762 383.512 148.157 384.015 148.123 384.035C148.003 383.936 147.897 383.825 147.807 383.703C147.615 383.482 147.367 383.151 147.073 382.699C146.32 381.583 145.717 380.393 145.277 379.152C144.838 377.91 144.569 376.624 144.476 375.324C144.476 374.832 144.476 374.43 144.476 374.149C144.463 374.015 144.467 373.88 144.487 373.747Z" fill="#E0E0E0"/>
<path d="M146.215 371.737C146.215 371.737 146.136 372.099 146.113 372.682C146.078 373.443 146.189 374.204 146.441 374.932C147.039 376.64 147.875 377.946 147.785 377.946C147.559 377.693 147.369 377.417 147.22 377.122C146.808 376.436 146.471 375.716 146.215 374.972C145.955 374.222 145.863 373.434 145.944 372.652C145.966 372.334 146.058 372.023 146.215 371.737Z" fill="#E0E0E0"/>
<path d="M143.854 385.1C143.91 385.1 144.667 386.105 145.853 387.28C147.039 388.456 148.179 389.169 148.112 389.219C147.823 389.111 147.555 388.962 147.321 388.777C146.719 388.37 146.16 387.916 145.65 387.421C145.128 386.934 144.663 386.402 144.261 385.833C144.076 385.613 143.939 385.364 143.854 385.1Z" fill="#E0E0E0"/>
<path d="M152.776 385.803C152.644 386.095 152.473 386.371 152.268 386.627C151.34 387.901 150.244 389.071 149.004 390.113C148.763 390.341 148.49 390.541 148.191 390.706C148.402 390.454 148.636 390.219 148.891 390.003C149.332 389.591 149.941 388.998 150.574 388.325C151.206 387.652 151.703 387.009 152.121 386.547C152.306 386.277 152.526 386.027 152.776 385.803Z" fill="#E0E0E0"/>
<path d="M173.319 375.887C173.251 375.887 171.185 370.391 168.7 363.579C166.215 356.767 164.239 351.211 164.307 351.191C164.375 351.171 166.43 356.687 168.926 363.509C171.422 370.331 173.375 375.867 173.319 375.887Z" fill="#E0E0E0"/>
<path d="M170.021 355.451C170.117 355.589 170.201 355.733 170.27 355.883C170.47 356.286 170.643 356.699 170.789 357.119C171.287 358.504 171.557 359.945 171.591 361.399C171.622 362.85 171.42 364.298 170.993 365.699C170.863 366.123 170.705 366.539 170.518 366.945C170.394 367.236 170.315 367.397 170.292 367.387C170.27 367.377 170.53 366.734 170.823 365.659C171.207 364.265 171.385 362.833 171.354 361.399C171.317 359.964 171.074 358.539 170.631 357.159C170.292 356.094 169.976 355.471 170.021 355.451Z" fill="#E0E0E0"/>
<path d="M161.709 359.128C161.709 359.128 162.037 359.661 162.613 360.485C163.362 361.554 164.245 362.545 165.244 363.439C166.272 364.331 167.409 365.12 168.632 365.79C169.558 366.292 170.168 366.553 170.157 366.583C170.145 366.613 169.987 366.583 169.705 366.443C169.423 366.302 169.027 366.151 168.576 365.91C167.339 365.27 166.2 364.49 165.188 363.589C164.169 362.691 163.288 361.678 162.567 360.575C162.35 360.25 162.154 359.915 161.98 359.57C161.754 359.279 161.687 359.138 161.709 359.128Z" fill="#E0E0E0"/>
<path d="M167.559 352.648C167.629 352.756 167.686 352.871 167.728 352.99C167.83 353.221 167.966 353.552 168.101 353.994C168.804 356.18 168.992 358.472 168.655 360.726C168.607 361.064 168.539 361.399 168.451 361.731C168.431 361.858 168.393 361.983 168.338 362.102C168.359 361.634 168.412 361.168 168.496 360.706C168.597 359.589 168.597 358.467 168.496 357.35C168.395 356.233 168.195 355.124 167.898 354.035C167.755 353.579 167.642 353.116 167.559 352.648Z" fill="#E0E0E0"/>
<path d="M162.262 355.15C162.262 355.15 162.488 355.733 162.917 356.647C163.465 357.837 164.146 358.975 164.95 360.043C165.76 361.106 166.687 362.096 167.717 362.997C168.519 363.69 169.061 364.072 169.027 364.102C168.884 364.032 168.748 363.951 168.62 363.861C168.372 363.7 168.022 363.439 167.604 363.107C166.53 362.225 165.572 361.237 164.747 360.163C163.936 359.08 163.269 357.917 162.759 356.697C162.567 356.225 162.432 355.843 162.353 355.572C162.295 355.437 162.264 355.294 162.262 355.15Z" fill="#E0E0E0"/>
<path d="M163.268 352.769C163.268 352.769 163.268 353.14 163.471 353.703C163.679 354.441 164.031 355.142 164.51 355.773C165.639 357.26 166.836 358.285 166.769 358.345C166.49 358.145 166.237 357.919 166.012 357.672C165.396 357.123 164.844 356.52 164.363 355.873C163.877 355.216 163.536 354.483 163.358 353.713C163.258 353.407 163.227 353.086 163.268 352.769Z" fill="#E0E0E0"/>
<path d="M165.267 366.181C165.267 366.131 166.396 366.975 167.887 367.759C169.377 368.542 170.721 368.984 170.699 369.045C170.387 369.005 170.083 368.928 169.795 368.814C169.091 368.574 168.411 368.281 167.762 367.94C167.115 367.595 166.499 367.206 165.922 366.774C165.677 366.601 165.457 366.402 165.267 366.181Z" fill="#E0E0E0"/>
<path d="M174.064 364.634C174.031 364.946 173.955 365.253 173.838 365.548C173.353 367.003 172.678 368.402 171.828 369.718C171.66 369.994 171.46 370.253 171.229 370.492C171.355 370.2 171.506 369.918 171.681 369.648C171.975 369.125 172.37 368.412 172.754 367.638C173.138 366.865 173.454 366.081 173.68 365.538C173.772 365.226 173.9 364.923 174.064 364.634Z" fill="#E0E0E0"/>
<path d="M96.1739 383.954C96.1062 383.954 94.0395 378.459 91.555 371.647C89.0704 364.835 87.0941 359.279 87.1618 359.259C87.2296 359.239 89.285 364.755 91.7808 371.577C94.2767 378.398 96.2304 383.944 96.1739 383.954Z" fill="#E0E0E0"/>
<path d="M92.8764 363.519C92.9724 363.657 93.0555 363.801 93.1248 363.951C93.3249 364.354 93.4984 364.766 93.6443 365.187C94.1423 366.571 94.4124 368.013 94.4462 369.467C94.4748 370.911 94.2733 372.352 93.8476 373.747C93.7179 374.17 93.5595 374.586 93.3733 374.992C93.2491 375.284 93.17 375.445 93.1474 375.435C93.1249 375.425 93.3959 374.782 93.6895 373.706C94.063 372.312 94.2375 370.88 94.209 369.447C94.1721 368.012 93.9292 366.587 93.4862 365.207C93.1474 364.172 92.8312 363.539 92.8764 363.519Z" fill="#E0E0E0"/>
<path d="M84.5645 367.206C84.5645 367.206 84.892 367.729 85.4679 368.552C86.2141 369.621 87.093 370.612 88.088 371.506C89.1163 372.399 90.2526 373.187 91.476 373.857C92.402 374.37 93.0119 374.621 93.0006 374.661C92.8435 374.628 92.6917 374.577 92.5489 374.51C92.2665 374.4 91.8712 374.219 91.4195 373.978C90.1825 373.337 89.0437 372.557 88.0315 371.657C87.0131 370.759 86.1322 369.746 85.4115 368.643C85.1944 368.318 84.9984 367.983 84.8242 367.638C84.7181 367.504 84.6309 367.359 84.5645 367.206Z" fill="#E0E0E0"/>
<path d="M90.4141 360.686C90.4865 360.793 90.5435 360.907 90.5835 361.027C90.6851 361.258 90.8206 361.59 90.9561 362.032C91.6412 364.207 91.818 366.485 91.4756 368.723C91.4079 369.155 91.3401 369.497 91.2724 369.728C91.2508 369.852 91.2129 369.973 91.1594 370.089C91.1594 370.089 91.2272 369.547 91.3175 368.693C91.4177 367.576 91.4177 366.454 91.3175 365.337C91.2159 364.22 91.0158 363.111 90.719 362.022C90.5893 361.582 90.4875 361.136 90.4141 360.686Z" fill="#E0E0E0"/>
<path d="M85.1182 363.218C85.1182 363.218 85.3553 363.8 85.7732 364.715C86.3182 365.905 86.9994 367.043 87.806 368.11C88.616 369.174 89.5428 370.164 90.5728 371.064C91.3747 371.757 91.9168 372.139 91.8829 372.169L91.4876 371.928C91.1299 371.694 90.7868 371.442 90.4599 371.175C89.3807 370.297 88.4216 369.309 87.6027 368.231C86.7923 367.148 86.1253 365.984 85.6151 364.765C85.4231 364.303 85.2876 363.911 85.2085 363.64C85.1495 363.505 85.1189 363.362 85.1182 363.218Z" fill="#E0E0E0"/>
<path d="M86.1227 360.836C86.1227 360.836 86.1227 361.208 86.326 361.771C86.5363 362.512 86.8877 363.215 87.365 363.851C88.4943 365.327 89.6914 366.352 89.6237 366.413C89.3308 366.221 89.062 366.002 88.8218 365.759C88.206 365.211 87.6536 364.608 87.173 363.961C86.692 363.302 86.3513 362.57 86.1679 361.801C86.0802 361.485 86.0649 361.157 86.1227 360.836Z" fill="#E0E0E0"/>
<path d="M88.0879 374.249C88.0879 374.199 89.2172 375.043 90.7079 375.827C92.1987 376.61 93.5426 377.052 93.52 377.113C93.2082 377.073 92.9041 376.995 92.6165 376.881C91.9125 376.641 91.2325 376.349 90.5837 376.007C89.9378 375.666 89.3257 375.276 88.7542 374.842C88.5045 374.671 88.2805 374.471 88.0879 374.249Z" fill="#E0E0E0"/>
<path d="M96.9195 372.742C96.8853 373.057 96.8095 373.367 96.6936 373.666C96.4516 374.39 96.1651 375.101 95.8353 375.796C95.5021 376.485 95.125 377.155 94.706 377.806C94.5555 378.091 94.3533 378.352 94.1074 378.579C94.2332 378.288 94.3843 378.006 94.5592 377.735C94.8528 377.213 95.248 376.5 95.6885 375.726C96.1289 374.952 96.4 374.169 96.6145 373.626C96.682 373.323 96.7842 373.027 96.9195 372.742Z" fill="#E0E0E0"/>
<path d="M129.004 364.102C128.936 364.102 129.207 358.284 129.602 351.131C129.997 343.978 130.381 338.17 130.449 338.17C130.517 338.17 130.235 343.978 129.839 351.141C129.444 358.305 129.071 364.102 129.004 364.102Z" fill="#E0E0E0"/>
<path d="M134.085 343.958C134.102 344.118 134.102 344.279 134.085 344.44C134.12 344.878 134.12 345.318 134.085 345.756C133.909 348.674 132.783 351.484 130.844 353.844C130.553 354.194 130.24 354.529 129.907 354.848C129.794 354.975 129.665 355.09 129.523 355.19C129.523 355.19 130.009 354.647 130.709 353.743C132.548 351.359 133.654 348.588 133.916 345.706C134.074 344.611 134.04 343.958 134.085 343.958Z" fill="#E0E0E0"/>
<path d="M124.847 344.771C124.847 344.771 124.938 345.364 125.152 346.318C125.422 347.557 125.85 348.763 126.428 349.915C127.018 351.065 127.749 352.154 128.608 353.16C129.263 353.924 129.737 354.366 129.737 354.386C129.607 354.306 129.49 354.212 129.387 354.105C129.077 353.834 128.782 353.549 128.506 353.251C127.601 352.256 126.842 351.162 126.248 349.996C125.659 348.83 125.246 347.6 125.017 346.339C124.95 345.959 124.905 345.577 124.881 345.193C124.841 345.056 124.829 344.913 124.847 344.771Z" fill="#E0E0E0"/>
<path d="M132.911 340.521C132.911 340.521 132.911 340.662 132.911 340.903C132.911 341.144 132.911 341.496 132.911 341.908C132.803 343.039 132.564 344.156 132.2 345.244C131.838 346.331 131.349 347.381 130.743 348.378C130.56 348.678 130.361 348.97 130.144 349.252C130.078 349.363 129.995 349.464 129.896 349.554C129.896 349.554 130.167 349.081 130.596 348.308C131.153 347.302 131.613 346.257 131.974 345.183C132.337 344.11 132.594 343.011 132.742 341.898C132.844 341.064 132.877 340.521 132.911 340.521Z" fill="#E0E0E0"/>
<path d="M126.948 341.215C126.948 341.215 126.948 341.838 126.948 342.822C126.983 344.108 127.164 345.387 127.49 346.64C127.819 347.892 128.292 349.111 128.902 350.277C129.365 351.181 129.715 351.704 129.681 351.724C129.572 351.617 129.477 351.499 129.399 351.372C129.164 351.048 128.95 350.712 128.755 350.367C128.091 349.207 127.586 347.979 127.253 346.71C126.923 345.442 126.763 344.144 126.779 342.842C126.779 342.35 126.779 341.938 126.847 341.667C126.868 341.514 126.902 341.363 126.948 341.215Z" fill="#E0E0E0"/>
<path d="M128.846 339.316C128.846 339.316 128.744 339.667 128.665 340.25C128.571 341.005 128.616 341.769 128.8 342.511C129.252 344.259 129.93 345.595 129.93 345.625C129.723 345.359 129.559 345.068 129.444 344.761C129.084 344.055 128.808 343.318 128.62 342.561C128.428 341.795 128.401 341.004 128.541 340.23C128.568 339.91 128.672 339.598 128.846 339.316Z" fill="#E0E0E0"/>
<path d="M125.356 352.477C125.356 352.477 126.067 353.572 127.163 354.788C128.258 356.004 129.331 356.797 129.275 356.878C129.002 356.741 128.752 356.572 128.529 356.376C127.402 355.48 126.455 354.42 125.729 353.241C125.558 353.007 125.432 352.748 125.356 352.477Z" fill="#E0E0E0"/>
<path d="M134.199 353.814C134.043 354.095 133.85 354.358 133.623 354.597C132.598 355.81 131.407 356.903 130.077 357.852C129.818 358.07 129.525 358.253 129.207 358.395C129.441 358.158 129.698 357.939 129.975 357.742C130.449 357.36 131.104 356.808 131.793 356.185C132.482 355.562 133.069 354.949 133.487 354.507C133.696 354.254 133.935 354.022 134.199 353.814Z" fill="#E0E0E0"/>
<g opacity="0.3">
<path opacity="0.3" d="M122.42 304.111C126.842 307.231 131.878 309.592 137.271 311.074C139.551 311.816 141.998 312.064 144.408 311.797C145.609 311.649 146.742 311.212 147.685 310.534C148.628 309.856 149.346 308.963 149.761 307.949C149.93 307.437 149.908 306.754 149.366 306.533C148.824 306.312 148.236 306.754 147.683 307.095C146.068 308.17 141.257 308.431 139.247 308.22C132.663 307.537 128.383 306.111 122.42 304.131" fill="black"/>
</g>
<path d="M164.883 344.882C164.963 345.036 165.024 345.198 165.063 345.364C165.165 345.696 165.334 346.168 165.47 346.801C165.908 348.581 166.161 350.394 166.226 352.216C166.523 358.282 164.938 364.303 161.643 369.619C158.348 374.936 153.471 379.343 147.547 382.357C145.776 383.276 143.917 384.052 141.991 384.678C141.325 384.909 140.771 385.029 140.41 385.14C140.229 385.202 140.039 385.239 139.845 385.25C140.518 384.964 141.208 384.709 141.912 384.487C143.786 383.797 145.598 382.981 147.333 382.046C153.108 378.99 157.865 374.62 161.112 369.386C164.359 364.152 165.98 358.243 165.809 352.266C165.783 350.461 165.594 348.66 165.244 346.881C165.082 346.221 164.961 345.554 164.883 344.882Z" fill="#263238"/>
<g opacity="0.2">
<path opacity="0.2" d="M165.809 351.483C165.887 353.661 165.412 355.826 164.419 357.818C163.425 359.81 161.939 361.577 160.072 362.986C157.643 364.785 154.651 365.92 152.166 367.739C149.943 369.412 148.282 371.599 147.367 374.058C146.903 375.334 146.7 376.891 147.739 377.856C148.778 378.82 150.935 378.68 152.494 378.087C157.587 376.168 161.212 371.918 163.166 367.317C165.12 362.715 165.594 357.722 165.933 352.809" fill="black"/>
</g>
<path d="M194.381 347.765C192.625 343.809 192.681 339.397 194.539 335.478C194.103 337.505 193.82 339.556 193.692 341.616C193.764 343.678 193.994 345.732 194.381 347.765Z" fill="#263238"/>
<path d="M197.791 346.55C196.373 344.997 195.418 343.152 195.013 341.185C194.42 339.258 194.389 337.228 194.923 335.287C194.976 337.228 195.199 339.163 195.589 341.074C196.176 342.944 196.912 344.773 197.791 346.55Z" fill="#263238"/>
<path d="M253.637 318.167C253.637 318.167 253.287 317.926 252.666 317.665C251.825 317.306 250.867 317.227 249.967 317.444L249.459 317.574L249.718 317.152C250.075 316.564 250.313 315.925 250.419 315.263C250.631 313.968 250.403 312.645 249.764 311.466C249.267 310.551 248.736 310.109 248.804 310.059C249.346 310.369 249.78 310.807 250.057 311.325C250.837 312.543 251.131 313.959 250.893 315.344C250.766 316.05 250.498 316.73 250.102 317.353L249.843 317.062C250.845 316.841 251.905 316.982 252.79 317.454C253.434 317.805 253.66 318.147 253.637 318.167Z" fill="#AA6550"/>
<path d="M261.215 313.776C262.265 311.486 272.79 307.447 271.379 306.01C269.583 304.141 260.594 310.672 259.792 311.174C258.99 311.677 258.177 310.642 258.933 310.17C260.006 309.567 271.198 303.006 269.459 301.127C268.488 300.123 266.613 301.871 266.613 301.871C266.613 301.871 256.63 308.713 255.839 307.809C255.048 306.904 260.74 302.705 262.773 301.419C264.806 300.133 264.953 298.756 263.598 298.405C262.672 298.174 256.347 301.991 254.36 303.318C252.372 304.644 247.019 308.341 248.058 304.563C249.097 300.786 248.318 297.531 247.448 296.807C246.578 296.084 245.11 296.918 245.348 298.103C245.473 299.409 245.397 300.724 245.122 302.012C244.878 303.052 244.499 304.063 243.992 305.026C242.937 307.216 241.231 309.109 239.057 310.501L250.181 322.156L251.604 321.302C257.104 317.976 262.265 316.7 265.246 315.173C270.791 312.32 270.52 311.868 270.057 311.335C268.872 309.979 260.164 316.067 261.215 313.776Z" fill="#B78876"/>
<path d="M246.195 295.381L249.797 316.188L263.891 315.977L264.547 312.089C264.547 312.089 272.531 312.089 273.152 306.06C273.773 300.032 266.918 299.972 266.918 299.972L267.957 294.537L246.195 295.381ZM264.885 309.969L266.545 302.253C266.545 302.253 271.368 302.182 270.995 305.649C270.622 309.115 264.829 309.939 264.829 309.939L264.885 309.969Z" fill="#455A64"/>
<path d="M256.675 267.359C256.675 267.359 256.776 267.41 256.934 267.54C257.147 267.75 257.33 267.983 257.476 268.233C257.949 269.201 258.068 270.277 257.815 271.308C257.426 272.795 256.802 274.226 255.963 275.558C255.536 276.342 255.214 277.168 255.003 278.019C254.798 278.916 254.884 279.847 255.252 280.702C256.127 282.345 257.337 283.83 258.82 285.082C260.058 286.178 260.954 287.543 261.418 289.041C261.672 290.062 261.508 291.131 260.955 292.055C260.795 292.302 260.593 292.526 260.356 292.718C260.187 292.839 260.085 292.899 260.074 292.879C260.324 292.589 260.551 292.283 260.751 291.964C261.206 291.058 261.298 290.04 261.011 289.081C260.513 287.666 259.62 286.387 258.414 285.364C256.864 284.08 255.603 282.545 254.698 280.842C254.3 279.899 254.21 278.875 254.438 277.889C254.661 276.996 255.01 276.131 255.477 275.317C256.314 274.021 256.963 272.637 257.409 271.197C257.688 270.236 257.641 269.222 257.273 268.284C256.957 267.671 256.629 267.39 256.675 267.359Z" fill="#263238"/>
<path d="M252.971 267.41C252.971 267.41 253.072 267.41 253.23 267.601C253.453 267.805 253.64 268.039 253.784 268.294C254.262 269.26 254.38 270.337 254.123 271.368C253.726 272.853 253.103 274.283 252.271 275.618C251.835 276.399 251.513 277.226 251.311 278.08C251.108 278.976 251.19 279.905 251.548 280.762C252.433 282.4 253.642 283.884 255.116 285.143C256.36 286.231 257.256 287.593 257.714 289.091C257.99 290.128 257.825 291.22 257.251 292.155C257.096 292.402 256.893 292.623 256.652 292.808C256.483 292.939 256.393 292.989 256.381 292.979C256.37 292.969 256.709 292.688 257.048 292.055C257.502 291.148 257.594 290.131 257.307 289.171C256.809 287.762 255.92 286.487 254.721 285.464C253.167 284.182 251.902 282.647 250.994 280.943C250.599 279.996 250.513 278.968 250.746 277.979C250.961 277.086 251.307 276.221 251.774 275.407C252.617 274.119 253.266 272.737 253.705 271.298C253.992 270.333 253.944 269.314 253.569 268.374C253.219 267.731 252.88 267.44 252.971 267.41Z" fill="#263238"/>
<path d="M247.516 303.9C247.516 303.9 247.516 303.599 248.001 303.267C248.326 303.066 248.697 302.931 249.088 302.874C249.479 302.816 249.879 302.838 250.26 302.936C251.346 303.292 252.319 303.879 253.095 304.644C253.506 305.088 254.024 305.444 254.61 305.688C255.196 305.931 255.836 306.055 256.483 306.05C257.815 305.9 258.933 305.046 260.119 304.614C260.684 304.367 261.298 304.22 261.926 304.182C262.482 304.174 263.033 304.273 263.541 304.473C264.268 304.755 264.874 305.237 265.269 305.849C265.529 306.281 265.562 306.553 265.529 306.563C265.495 306.573 265.382 306.332 265.077 305.96C264.644 305.444 264.057 305.047 263.383 304.815C262.924 304.664 262.437 304.595 261.949 304.614C261.39 304.673 260.847 304.819 260.345 305.046C259.181 305.733 257.899 306.249 256.55 306.573C255.761 306.663 254.961 306.503 254.292 306.121C253.714 305.805 253.183 305.427 252.711 304.995C252.007 304.262 251.127 303.678 250.136 303.287C249.801 303.188 249.448 303.15 249.096 303.176C248.745 303.202 248.403 303.291 248.092 303.438C247.696 303.669 247.561 303.92 247.516 303.9Z" fill="#FAFAFA"/>
<path d="M247.007 301.218C247.007 301.218 247.007 300.896 247.516 300.565C247.864 300.346 248.263 300.2 248.683 300.137C249.103 300.074 249.534 300.097 249.944 300.203C251.092 300.59 252.121 301.213 252.948 302.021C253.885 302.805 255.082 303.699 256.528 303.528C257.973 303.358 259.136 302.524 260.39 301.991C260.991 301.731 261.643 301.578 262.31 301.539C263.023 301.525 263.728 301.68 264.351 301.989C264.975 302.299 265.494 302.75 265.856 303.297C266.138 303.75 266.172 304.051 266.138 304.051C266.104 304.051 265.98 303.8 265.664 303.408C265.2 302.859 264.575 302.434 263.857 302.182C263.37 302.022 262.851 301.95 262.332 301.971C261.733 302.031 261.152 302.188 260.616 302.433C259.486 302.906 258.278 303.83 256.584 304.051C255.771 304.13 254.952 303.964 254.258 303.579C253.645 303.238 253.08 302.833 252.575 302.373C251.824 301.595 250.886 300.977 249.831 300.565C249.475 300.455 249.097 300.413 248.722 300.441C248.347 300.468 247.982 300.565 247.651 300.725C247.188 300.977 247.052 301.248 247.007 301.218Z" fill="#FAFAFA"/>
<path d="M141.449 406.45L160.907 430.884L374.521 430.793L374.396 409.223L266.376 400.08L176.627 388.204L141.449 406.45Z" fill="#263238"/>
<path d="M175.792 388.918L190.959 370.291L233.693 323.351C236.637 320.527 240.281 318.353 244.335 317.001C248.389 315.649 252.742 315.158 257.048 315.565C262.287 316.057 267.262 317.862 271.394 320.77C275.526 323.678 278.646 327.569 280.391 331.992L308.624 408.59L271.243 403.365L252.248 355.984L222.298 393.157L175.792 388.918Z" fill="#263238"/>
<path d="M308.59 403.647H308.308H307.336L303.598 403.405L289.866 402.401L244.557 399.015L219.61 397.086C215.781 396.764 212.134 396.523 208.723 396.192C205.563 395.887 202.425 395.417 199.327 394.785C196.742 394.307 194.243 393.52 191.896 392.444C190.142 391.601 188.558 390.504 187.209 389.199C186.352 388.374 185.64 387.44 185.097 386.426C184.9 386.081 184.737 385.722 184.612 385.351C185.304 386.711 186.238 387.963 187.379 389.058C188.728 390.327 190.309 391.383 192.054 392.183C194.384 393.221 196.861 393.975 199.417 394.423C202.506 395.03 205.632 395.477 208.78 395.76C212.168 396.071 215.827 396.302 219.666 396.604L244.602 398.492L289.9 402.029L303.621 403.164L307.348 403.496L308.319 403.596L308.59 403.647Z" fill="#455A64"/>
<path d="M255.229 338.844C254.998 339.676 254.707 340.495 254.36 341.295C252.937 345.218 252.247 349.321 252.316 353.442C252.383 354.298 252.383 355.158 252.316 356.014C252.04 355.185 251.895 354.326 251.886 353.462C251.73 351.379 251.829 349.287 252.18 347.223C252.532 345.163 253.13 343.142 253.964 341.195C254.261 340.362 254.687 339.571 255.229 338.844Z" fill="#455A64"/>
<path d="M246.985 345.233C247.555 347.18 248.241 349.099 249.04 350.98C250.016 352.791 251.098 354.555 252.281 356.265C249.057 353.281 247.172 349.349 246.985 345.213V345.233Z" fill="#455A64"/>
<path d="M368.964 415.683C368.116 418.145 367.515 420.671 367.169 423.228C367.028 425.801 367.141 428.379 367.508 430.934C367.154 430.229 366.926 429.48 366.83 428.714C366.491 426.885 366.407 425.025 366.582 423.178C366.759 421.332 367.195 419.512 367.88 417.762C368.109 417.02 368.475 416.317 368.964 415.683Z" fill="#455A64"/>
<path d="M149.987 305.9C149.987 305.9 149.987 305.99 149.806 306.121C149.618 306.325 149.406 306.51 149.174 306.673C148.316 307.277 147.328 307.718 146.271 307.969C143.606 308.703 139.755 308.522 135.667 307.969C132.176 307.458 128.765 306.585 125.503 305.367C124.249 304.905 123.244 304.463 122.589 304.151C122.227 304.005 121.889 303.816 121.584 303.589C121.584 303.519 123.131 304.182 125.661 305.026C128.951 306.128 132.356 306.939 135.825 307.447C139.879 308.01 143.651 308.231 146.237 307.628C147.611 307.295 148.889 306.706 149.987 305.9Z" fill="#263238"/>
<path d="M750.465 351.101C755.197 348.931 760.776 348.649 766.027 349.423C768.862 349.835 771.798 350.589 773.729 352.437C775.66 354.286 775.988 357.642 773.808 359.269C772.381 360.124 770.664 360.507 768.952 360.354C764.841 360.354 760.268 359.671 756.981 361.871C755.107 363.127 753.853 365.217 751.617 365.84C750.494 366.071 749.316 365.971 748.263 365.554C747.209 365.137 746.337 364.426 745.778 363.529C744.709 361.695 744.474 359.565 745.123 357.581C745.392 356.208 746.014 354.908 746.94 353.784C747.867 352.66 749.073 351.742 750.465 351.101Z" fill="#285BBE"/>
<path d="M739.612 332.464C742.503 336.151 748.138 334.925 750.747 332.685C753.356 330.444 754.462 327.179 755.467 324.075C757.726 316.981 760.075 309.547 758.358 302.323C757.952 300.133 756.873 298.085 755.242 296.405C754.411 295.569 753.347 294.942 752.158 294.589C750.968 294.236 749.694 294.17 748.466 294.396C745.631 295.069 743.869 297.541 742.593 299.892C738.839 306.837 736.871 314.439 736.833 322.146C736.833 325.732 737.297 329.49 739.566 332.444" fill="#285BBE"/>
<path d="M731.661 337.749C734.801 334.433 735.399 329.591 733.999 325.431C732.408 321.3 729.572 317.636 725.8 314.842C721.515 311.449 716.529 308.831 711.119 307.136C709.025 306.376 706.77 306.033 704.512 306.131C703.382 306.195 702.287 306.502 701.32 307.028C700.354 307.553 699.546 308.28 698.967 309.145C697.431 311.767 698.967 314.952 700.514 317.544C703.34 322.116 706.564 326.483 710.159 330.605C713.05 333.921 716.359 337.196 720.774 338.643C725.19 340.09 729.753 339.969 732.068 337.246" fill="#285BBE"/>
<path d="M739.42 387.973C739.562 387.426 739.649 386.867 739.679 386.306C739.815 385.08 739.973 383.553 740.176 381.734C740.423 379.488 740.8 377.255 741.306 375.043C741.981 372.351 742.895 369.71 744.039 367.146C745.161 364.588 746.682 362.184 748.556 360.003C750.087 358.229 752.043 356.781 754.282 355.763C755.803 355.092 757.435 354.641 759.115 354.427C759.747 354.399 760.375 354.318 760.99 354.185C760.356 354.12 759.715 354.12 759.081 354.185C757.338 354.304 755.632 354.699 754.044 355.351C751.685 356.342 749.617 357.807 748.003 359.631C746.039 361.838 744.456 364.293 743.304 366.915C742.137 369.519 741.226 372.208 740.583 374.953C740.099 377.193 739.768 379.458 739.589 381.734C739.42 383.673 739.363 385.241 739.329 386.326C739.292 386.876 739.323 387.429 739.42 387.973Z" fill="#263238"/>
<path d="M739.77 384.467C739.803 384.207 739.803 383.944 739.77 383.683V381.473C739.77 379.544 739.77 376.761 739.883 373.315C740.075 366.433 740.741 359.028 742.028 348.589C743.237 338.773 744.874 327.35 746.546 319.915C746.918 318.227 747.291 316.71 747.675 315.374C748.059 314.038 748.296 312.892 748.567 311.958C748.838 311.024 748.996 310.371 749.154 309.808C749.237 309.556 749.286 309.297 749.301 309.034C749.176 309.27 749.073 309.516 748.996 309.768C748.804 310.32 748.567 311.024 748.274 311.888C747.98 312.752 747.63 313.957 747.246 315.284C746.862 316.61 746.444 318.127 746.037 319.815C743.902 328.6 742.296 337.481 741.227 346.419C739.939 356.878 739.363 366.413 739.307 373.305C739.307 376.761 739.307 379.544 739.442 381.473C739.51 382.377 739.555 383.111 739.6 383.693C739.621 383.956 739.678 384.216 739.77 384.467Z" fill="#263238"/>
<path d="M739.826 366.091C739.883 365.318 739.883 364.543 739.826 363.77C739.725 362.283 739.499 360.133 739.025 357.491C738.468 354.407 737.714 351.355 736.766 348.348C735.648 344.645 734.209 341.024 732.463 337.517C729.477 331.056 725.199 325.13 719.837 320.026C718.909 319.151 717.917 318.332 716.867 317.574C716.415 317.233 716.009 316.881 715.602 316.62L714.473 315.906C713.761 315.435 713.006 315.018 712.214 314.661C714.746 316.425 717.149 318.331 719.408 320.367C724.599 325.511 728.762 331.406 731.718 337.799C733.431 341.281 734.876 344.863 736.043 348.519C737.027 351.494 737.841 354.512 738.483 357.561C739.025 360.163 739.341 362.293 739.522 363.77C739.553 364.55 739.655 365.326 739.826 366.091Z" fill="#263238"/>
<path d="M719.859 398.502L721.926 423.72H758.347L760.425 398.502H719.859Z" fill="#263238"/>
<path d="M764.762 388.556H716.336V398.503H764.762V388.556Z" fill="#263238"/>
<path d="M716.336 422.756V425.509H718.618H763.972V422.756H716.336Z" fill="#455A64"/>
<path d="M720.842 430.361L718.617 425.509H762.232L759.635 430.361H720.842Z" fill="#455A64"/>
<path d="M759.748 406.741C759.699 406.822 759.643 406.9 759.579 406.972L759.036 407.615L756.913 410.036L756.812 410.137L756.721 410.026L751.515 403.616H751.809L746.682 410.077L746.512 410.277L746.343 410.087L740.256 403.647H740.606L740.267 404.018L734.824 410.046L734.643 410.247L734.473 410.036L729.335 403.576H729.64L723.316 409.986L723.203 410.107L723.112 409.976L721.136 407.012L720.628 406.229C720.569 406.138 720.516 406.044 720.47 405.947C720.47 405.947 720.56 406.028 720.684 406.198L721.249 406.952L723.327 409.866H723.124C724.75 408.178 726.862 405.977 729.346 403.375L729.504 403.214L729.651 403.395L734.835 409.825H734.485L739.917 403.747L740.244 403.375L740.425 403.184L740.594 403.365L746.67 409.825H746.331L751.515 403.395L751.662 403.204L751.809 403.395L756.913 409.876H756.733L758.935 407.515L759.522 406.912C759.589 406.846 759.665 406.789 759.748 406.741Z" fill="#E0E0E0"/>
<path d="M760.934 398.332C760.934 398.442 751.798 398.533 740.606 398.533C729.414 398.533 720.278 398.442 720.278 398.332C720.278 398.221 729.403 398.131 740.606 398.131C751.809 398.131 760.934 398.221 760.934 398.332Z" fill="#455A64"/>
<path d="M762.763 425.79C762.763 425.9 752.848 425.991 740.617 425.991C728.386 425.991 718.459 425.9 718.459 425.79C718.459 425.679 728.375 425.589 740.617 425.589C752.859 425.589 762.763 425.679 762.763 425.79Z" fill="#263238"/>
</svg>
