<svg width="500" height="500" viewBox="0 0 500 500" fill="none" xmlns="http://www.w3.org/2000/svg">
<path d="M134.51 193.64V201.14H142.01V193.64V186.15H134.51V193.64Z" fill="#EBEBEB"/>
<path d="M142.01 148.67H134.51V156.17H142.01V148.67Z" fill="#EBEBEB"/>
<path d="M188.33 231.2H180.83V238.7H188.33V231.2Z" fill="#EBEBEB"/>
<path d="M142.01 163.66V171.15H134.51V178.65H142.01V186.15H149.51H157V193.64H164.5V186.15H171.99V178.65V171.15H164.5V178.65H157H149.51V171.15V163.66V156.16H142.01V163.66Z" fill="#EBEBEB"/>
<path d="M157 148.67H149.51V156.16H157H164.5V148.67H157Z" fill="#EBEBEB"/>
<path d="M190.73 208.93H194.76V201.43H190.73H186.71V208.93H190.73Z" fill="#EBEBEB"/>
<path d="M172 156.16H164.5V163.66H172V156.16Z" fill="#EBEBEB"/>
<path d="M224.47 186.15H216.97V193.65H224.47V186.15Z" fill="#EBEBEB"/>
<path d="M231.97 103.69H224.47V111.19H231.97V103.69Z" fill="#EBEBEB"/>
<path d="M186.99 163.66V156.16H194.48V148.67H186.99V141.17H179.49V148.67H171.99V156.16H179.49V163.66V171.15V178.65V186.15H186.99V178.65V171.15H194.48V163.66H186.99Z" fill="#EBEBEB"/>
<path d="M224.47 238.62H231.96V231.12H224.47H216.97V238.62H224.47Z" fill="#EBEBEB"/>
<path d="M216.97 103.69H209.47V111.19H216.97V103.69Z" fill="#EBEBEB"/>
<path d="M215.1 163.66V156.16H207.6V148.67H200.1V156.16V163.66H192.61V171.15H200.1H207.6V163.66H215.1Z" fill="#EBEBEB"/>
<path d="M257.41 148.67H249.91V156.17H257.41V148.67Z" fill="#EBEBEB"/>
<path d="M179.71 186.15H172.21V193.65H179.71V186.15Z" fill="#EBEBEB"/>
<path d="M209.47 141.17V133.67H216.97V126.18H224.47H231.96V118.68H224.47V111.19H216.97V118.68H209.47V126.18H201.98V133.67H194.48V141.17H201.98H209.47Z" fill="#EBEBEB"/>
<path d="M209.47 193.64V186.15H216.97V178.65H209.47H201.98V186.15H194.48V193.64H201.98H209.47Z" fill="#EBEBEB"/>
<path d="M231.96 223.62V216.13H224.47H216.97V208.63H209.47V216.13H201.98V223.62H194.48H186.99V231.12H194.48H201.98H209.47V223.62H216.97V231.12H224.47V223.62H231.96Z" fill="#EBEBEB"/>
<path d="M201.98 111.19V103.69H194.48H186.99V111.19H179.49V118.68H186.99H194.48V111.19H201.98Z" fill="#EBEBEB"/>
<path d="M201.98 118.68H194.48V126.18H201.98V118.68Z" fill="#EBEBEB"/>
<path d="M220.72 148.67H213.22V156.16V163.66V171.15H220.72H228.22V163.66H220.72V156.16H228.22V148.67H235.71V141.17H228.22V133.67H220.72V141.17V148.67Z" fill="#EBEBEB"/>
<path d="M194.49 126.18H186.99V133.68H194.49V126.18Z" fill="#EBEBEB"/>
<path d="M216.97 201.14V208.63H224.47H231.96V201.14H239.46H246.96V193.64H239.46H231.96H224.47V201.14H216.97Z" fill="#EBEBEB"/>
<path d="M257.41 171.15H249.91V178.65H257.41V171.15Z" fill="#EBEBEB"/>
<path d="M231.97 178.65H224.47V186.15H231.97V178.65Z" fill="#EBEBEB"/>
<path d="M250.7 156.16H243.21H235.71V163.66H243.21V171.15H250.7V163.66V156.16Z" fill="#EBEBEB"/>
<path d="M246.96 178.65H239.46V186.15H246.96V178.65Z" fill="#EBEBEB"/>
<path d="M164.5 223.77H187V193.63H156.86V201.14H149.51V208.63H156.86V216.13H149.51V223.63H156.86V223.77H157V231.12H149.51V246.12H157V238.62H164.5V223.77ZM181.22 199.41V218.15H162.48V199.41H181.22Z" fill="#EBEBEB"/>
<path d="M261.95 193.64H269.44V186.15H261.95H254.45H246.96V193.64H254.45H261.95Z" fill="#EBEBEB"/>
<path d="M261.95 163.66H269.44V156.16V148.67H261.95V156.16V163.66Z" fill="#EBEBEB"/>
<path d="M202.26 201.43H194.76V208.93V216.42H202.26V208.93V201.43Z" fill="#EBEBEB"/>
<path d="M276.94 193.64H269.44V201.14H276.94V193.64Z" fill="#EBEBEB"/>
<path d="M276.94 178.65V171.15H269.44V178.65V186.15H276.94V178.65Z" fill="#EBEBEB"/>
<path d="M142.01 231.12H134.51V238.62V246.12H142.01V238.62V231.12Z" fill="#EBEBEB"/>
<path d="M276.94 141.17V103.69H239.46V141.17H276.94ZM245.08 135.55V109.31H271.32V135.55H245.08Z" fill="#EBEBEB"/>
<path d="M265.69 114.93H250.7V129.92H265.69V114.93Z" fill="#EBEBEB"/>
<path d="M276.94 208.63H239.46V246.12H276.94V208.63ZM245.08 240.49V214.26H271.32V240.49H245.08Z" fill="#EBEBEB"/>
<path d="M265.69 219.88H250.7V234.87H265.69V219.88Z" fill="#EBEBEB"/>
<path d="M134.42 103.69V141.17H171.9V103.69H134.42ZM166.28 109.31V135.55H140V109.31H166.28Z" fill="#EBEBEB"/>
<path d="M160.65 114.93H145.66V129.92H160.65V114.93Z" fill="#EBEBEB"/>
<path d="M74.4977 251.349C74.981 249.449 73.8324 247.517 71.9323 247.033C70.0321 246.55 68.1 247.699 67.6167 249.599C67.1335 251.499 68.2821 253.431 70.1822 253.914C72.0823 254.398 74.0144 253.249 74.4977 251.349Z" fill="#EBEBEB"/>
<path d="M64 245.94C64.9058 244.966 65.9998 244.186 67.2157 243.646C68.4316 243.107 69.7443 242.82 71.0743 242.802C72.4044 242.784 73.7243 243.036 74.9542 243.543C76.184 244.05 77.2984 244.8 78.23 245.75C80.04 247.58 82.87 244.75 81.06 242.94C79.757 241.624 78.2037 240.582 76.4915 239.876C74.7794 239.17 72.9432 238.813 71.0912 238.828C69.2392 238.843 67.409 239.229 65.7085 239.963C64.0079 240.696 62.4715 241.763 61.19 243.1C59.42 244.96 62.19 247.8 64 245.94Z" fill="#EBEBEB"/>
<path d="M51.9201 229.42C57.3101 224.76 63.7501 221.82 70.9201 221.8C78.1079 221.715 85.0574 224.376 90.3501 229.24C92.2201 231 95.0601 228.19 93.1901 226.43C87.1541 220.847 79.2222 217.765 71.0001 217.81C62.7001 217.81 55.3201 221.22 49.1201 226.59C47.1201 228.27 49.9901 231.09 51.9301 229.42H51.9201Z" fill="#EBEBEB"/>
<path d="M56.6698 238.57C58.47 236.564 60.6658 234.953 63.1192 233.837C65.5725 232.721 68.2302 232.126 70.9251 232.087C73.6199 232.049 76.2936 232.568 78.7778 233.613C81.262 234.659 83.503 236.207 85.3598 238.16C87.1598 240.01 89.9898 237.16 88.1998 235.36C85.9746 233.033 83.2951 231.187 80.3273 229.938C77.3596 228.689 74.167 228.063 70.9473 228.099C67.7277 228.135 64.5497 228.831 61.6103 230.146C58.671 231.46 56.0329 233.364 53.8598 235.74C52.1198 237.62 54.9198 240.46 56.6698 238.57Z" fill="#EBEBEB"/>
<path d="M228.1 56.43C228.7 52.05 222.51 48.43 217.86 48.06C215.64 47.88 213.34 48.22 211.24 47.49C206.68 45.9 204.86 40.02 200.42 38.15C197.1 36.75 193.27 37.99 190.05 39.61C186.83 41.23 183.65 43.27 180.05 43.5C176.92 43.7 173.52 42.5 170.78 44.07C168.78 45.21 167.67 47.56 165.78 48.95C163.89 50.34 161.54 50.6 159.26 50.72C156.98 50.84 154.61 50.87 152.54 51.82C150.47 52.77 148.74 54.97 149.17 57.21L228.1 56.43Z" fill="#EBEBEB"/>
<path d="M108.64 130.55C109.18 126.62 103.64 123.38 99.4599 123.05C97.4599 122.89 95.4599 123.19 93.5199 122.53C89.4399 121.11 87.8099 115.84 83.8299 114.16C80.8299 112.9 77.4199 114.02 74.5399 115.47C71.6599 116.92 68.7999 118.75 65.5399 118.96C62.7299 119.14 59.6899 118.1 57.2299 119.47C55.3999 120.47 54.4499 122.6 52.7599 123.84C51.0699 125.08 48.9599 125.31 46.9099 125.43C44.8654 125.39 42.831 125.729 40.9099 126.43C39.0499 127.28 37.5099 129.26 37.9099 131.27L108.64 130.55Z" fill="#F5F5F5"/>
<path d="M483.38 127.77C483.96 123.56 478.02 120.09 473.55 119.77C471.42 119.6 469.21 119.93 467.19 119.22C462.82 117.7 461.07 112.05 456.81 110.22C453.62 108.88 449.95 110.07 446.86 111.63C443.77 113.19 440.71 115.14 437.26 115.37C434.26 115.56 430.99 114.44 428.36 115.91C426.36 117 425.36 119.26 423.57 120.59C421.78 121.92 419.5 122.17 417.31 122.29C415.12 122.41 412.85 122.43 410.86 123.35C408.87 124.27 407.21 126.35 407.63 128.52L483.38 127.77Z" fill="#F5F5F5"/>
<path d="M474.46 477.06C474.46 477.2 373.96 477.32 250.01 477.32C126.06 477.32 25.54 477.2 25.54 477.06C25.54 476.92 126 476.8 250 476.8C374 476.8 474.46 476.91 474.46 477.06Z" fill="#263238"/>
<path d="M420.7 433.07C421.686 433.542 422.567 434.207 423.29 435.027C424.014 435.846 424.564 436.803 424.91 437.84C425.59 439.925 425.782 442.139 425.47 444.31C425 448.51 422.61 452.75 420.04 456.1C416.51 453.02 415.69 447.63 415.45 444.88C415.07 440.52 417.03 432.42 420.7 433.07Z" fill="#285BBE"/>
<path d="M424.15 463C423.914 461.8 423.997 460.559 424.39 459.401C424.783 458.243 425.472 457.209 426.39 456.4C427.326 455.614 428.41 455.022 429.577 454.658C430.744 454.294 431.972 454.165 433.19 454.28C433.758 454.269 434.321 454.383 434.839 454.615C435.358 454.846 435.819 455.19 436.19 455.62C436.453 456.076 436.592 456.593 436.592 457.12C436.592 457.647 436.453 458.164 436.19 458.62C435.653 459.534 434.884 460.29 433.96 460.81C430.9 462.73 427.58 464.03 424.12 462.99" fill="#285BBE"/>
<path d="M419.62 475.9C419.639 475.611 419.679 475.323 419.74 475.04C419.86 474.43 420 473.65 420.17 472.71C420.564 470.112 421.378 467.596 422.58 465.26C423.825 462.927 425.668 460.967 427.92 459.58C428.605 459.162 429.336 458.826 430.1 458.58C430.307 458.514 430.517 458.46 430.73 458.42C430.803 458.407 430.877 458.407 430.95 458.42C429.934 458.768 428.956 459.216 428.03 459.76C425.85 461.169 424.064 463.11 422.84 465.4C421.665 467.713 420.836 470.186 420.38 472.74C420.17 473.74 420 474.51 419.86 475.05C419.812 475.341 419.731 475.626 419.62 475.9Z" fill="#263238"/>
<path d="M419.75 439.37C419.767 439.496 419.767 439.624 419.75 439.75C419.75 440.03 419.75 440.38 419.82 440.83C419.87 441.77 419.92 443.13 419.98 444.83C420.09 448.19 420.17 452.83 420.15 457.98C420.13 463.13 420 467.77 419.86 471.13C419.8 472.81 419.73 474.13 419.67 475.13C419.67 475.57 419.67 475.93 419.6 476.21C419.598 476.338 419.581 476.466 419.55 476.59C419.535 476.464 419.535 476.336 419.55 476.21C419.55 475.93 419.55 475.57 419.55 475.12C419.55 474.12 419.61 472.79 419.65 471.12C419.73 467.76 419.82 463.12 419.84 457.98C419.86 452.84 419.84 448.2 419.76 444.84C419.76 443.18 419.71 441.84 419.7 440.84C419.7 440.4 419.7 440.04 419.7 439.76C419.7 439.628 419.717 439.497 419.75 439.37Z" fill="#263238"/>
<path d="M418 465.59C417.572 463.045 416.545 460.638 415.002 458.569C413.46 456.5 411.447 454.827 409.13 453.69C407.95 453.13 406.41 452.76 405.43 453.64C404.45 454.52 404.68 456.09 405.16 457.32C406.204 459.867 407.983 462.046 410.269 463.58C412.556 465.113 415.247 465.931 418 465.93" fill="#285BBE"/>
<path d="M409.74 457.67C410.001 457.754 410.252 457.865 410.49 458C410.783 458.131 411.067 458.281 411.34 458.45C411.711 458.658 412.072 458.885 412.42 459.13C412.848 459.415 413.259 459.726 413.65 460.06C414.112 460.431 414.553 460.829 414.97 461.25C415.92 462.221 416.756 463.298 417.46 464.46C418.153 465.631 418.707 466.88 419.11 468.18C419.417 469.246 419.628 470.337 419.74 471.44C419.8 471.91 419.74 472.34 419.8 472.71C419.818 473.043 419.818 473.377 419.8 473.71C419.795 473.982 419.765 474.253 419.71 474.52C419.64 474.52 419.76 473.36 419.55 471.52C419.49 471.06 419.43 470.52 419.31 470.01C419.19 469.5 419.04 468.91 418.87 468.32C418.461 467.049 417.911 465.828 417.23 464.68C416.537 463.539 415.722 462.476 414.8 461.51C414.394 461.089 413.966 460.688 413.52 460.31C413.138 459.974 412.738 459.66 412.32 459.37C410.78 458.22 409.71 457.73 409.74 457.67Z" fill="#263238"/>
<path d="M152.06 477.07C151.765 476.137 151.535 475.185 151.37 474.22C150.335 469.654 148.789 465.219 146.76 461C146.296 460.138 145.882 459.25 145.52 458.34C146.136 459.106 146.659 459.942 147.08 460.83C149.319 465.013 150.888 469.521 151.73 474.19C151.943 475.135 152.053 476.101 152.06 477.07Z" fill="#263238"/>
<path d="M160.93 433.79C160.886 434.362 160.803 434.93 160.68 435.49C160.48 436.57 160.21 438.14 159.9 440.08C159.26 443.97 158.52 449.35 158.06 455.33C157.6 461.31 157.52 466.76 157.55 470.69C157.55 472.69 157.55 474.25 157.63 475.35C157.673 475.919 157.673 476.491 157.63 477.06C157.52 476.5 157.456 475.931 157.44 475.36C157.35 474.26 157.26 472.67 157.2 470.7C157.037 465.561 157.154 460.417 157.55 455.29C157.944 450.168 158.612 445.071 159.55 440.02C159.92 438.08 160.24 436.52 160.5 435.45C160.601 434.887 160.745 434.332 160.93 433.79Z" fill="#263238"/>
<path d="M175.17 458.7C174.655 459.538 174.098 460.349 173.5 461.13C172.182 463.083 171.038 465.148 170.08 467.3C169.142 469.462 168.402 471.704 167.87 474C167.697 474.968 167.473 475.926 167.2 476.87C167.183 475.878 167.287 474.887 167.51 473.92C168.386 469.208 170.333 464.761 173.2 460.92C173.758 460.098 174.42 459.351 175.17 458.7Z" fill="#263238"/>
<path d="M349.51 462C350.026 462.613 350.469 463.285 350.83 464C351.57 465.27 352.53 467.07 353.48 469.1C354.43 471.13 355.19 473.04 355.69 474.42C356.011 475.152 356.24 475.921 356.37 476.71C355.968 476.027 355.633 475.307 355.37 474.56C354.79 473.21 353.98 471.35 353.03 469.32C352.08 467.29 351.18 465.48 350.52 464.17C350.106 463.486 349.767 462.758 349.51 462Z" fill="#263238"/>
<path d="M367.91 443.74C367.866 444.181 367.779 444.616 367.65 445.04C367.44 445.97 367.17 447.14 366.84 448.54C366.18 451.54 365.37 455.6 364.76 460.18C364.15 464.76 363.87 468.95 363.76 471.97C363.71 473.41 363.67 474.61 363.64 475.56C363.655 476.002 363.621 476.445 363.54 476.88C363.464 476.444 363.427 476.002 363.43 475.56C363.43 474.71 363.38 473.48 363.43 471.96C363.491 468 363.781 464.047 364.3 460.12C364.818 456.19 365.566 452.293 366.54 448.45C366.92 446.98 367.26 445.8 367.54 444.99C367.615 444.561 367.739 444.141 367.91 443.74Z" fill="#263238"/>
<path d="M234.8 451.88C235.134 452.071 235.44 452.306 235.71 452.58C236.498 453.259 237.25 453.98 237.96 454.74C242.694 459.771 246.04 465.946 247.67 472.66C247.925 473.671 248.119 474.696 248.25 475.73C248.326 476.105 248.36 476.487 248.35 476.87C248.26 476.87 248.01 475.27 247.35 472.76C245.528 466.18 242.223 460.105 237.69 455C236 453 234.74 452 234.8 451.88Z" fill="#263238"/>
<path d="M252.13 441.24C252.172 441.712 252.172 442.188 252.13 442.66C252.13 443.66 252.13 444.97 252.13 446.52C252.13 449.78 252.26 454.28 252.69 459.24C253.12 464.2 253.78 468.65 254.34 471.86C254.61 473.39 254.84 474.67 255.02 475.66C255.133 476.122 255.2 476.595 255.22 477.07C255.051 476.624 254.917 476.166 254.82 475.7C254.59 474.82 254.3 473.53 253.98 471.93C252.309 463.567 251.565 455.046 251.76 446.52C251.76 444.88 251.86 443.52 251.94 442.65C251.956 442.175 252.02 441.702 252.13 441.24Z" fill="#263238"/>
<path d="M267.43 462.44C267.58 462.52 265.86 465.52 264.68 469.58C263.5 473.64 263.28 477.08 263.12 477.07C263.007 476.318 263.007 475.552 263.12 474.8C263.278 472.982 263.613 471.183 264.12 469.43C264.625 467.681 265.294 465.983 266.12 464.36C266.466 463.663 266.907 463.016 267.43 462.44Z" fill="#263238"/>
<path d="M62.9201 381.92H51.3101V474.09H62.9201V381.92Z" fill="#455A64"/>
<path d="M62.9298 474.08C62.9298 474.08 62.9298 473.92 62.9298 473.6V472.22C62.9298 470.99 62.9298 469.22 62.9298 466.92C62.9298 462.31 62.9298 455.65 62.8498 447.38C62.8498 430.83 62.7798 407.83 62.7398 381.92L62.9998 382.18H51.3098L51.5698 381.92C51.5098 422.29 51.4598 457.25 51.4298 474.08L51.3098 473.97L59.9198 474.03H62.1598H62.9298C62.9298 474.03 62.6898 474.03 62.1998 474.03H59.9898L51.3098 474.09H51.1998V473.97C51.1998 457.14 51.1198 422.18 51.0498 381.81L51.3098 381.55H63.1898V381.81C63.1898 407.81 63.0998 430.86 63.0798 447.46C63.0798 455.7 63.0198 462.34 62.9998 466.94C62.9998 469.2 62.9998 470.94 62.9998 472.18V473.53C62.9398 473.94 62.9298 474.08 62.9298 474.08Z" fill="#263238"/>
<g opacity="0.3">
<path opacity="0.3" d="M62.9201 384.16H51.3101V388H62.9201V384.16Z" fill="black"/>
</g>
<path d="M309.93 381.92H298.32V474.09H309.93V381.92Z" fill="#455A64"/>
<path d="M309.93 474.08C309.93 474.08 309.93 473.92 309.93 473.6V472.22C309.93 470.99 309.93 469.22 309.93 466.92C309.93 462.31 309.93 455.65 309.85 447.38C309.85 430.83 309.79 407.83 309.74 381.92L310 382.18H298.32L298.58 381.92C298.51 422.29 298.46 457.25 298.43 474.08L298.32 473.97L306.93 474.03H309.16H309.93C309.93 474.03 309.69 474.03 309.2 474.03H307L298.32 474.09H298.2V473.97C298.2 457.14 298.12 422.18 298.06 381.81L298.32 381.55H310.19V381.81C310.19 407.81 310.11 430.86 310.08 447.46C310.08 455.7 310.02 462.34 310 466.94C310 469.2 310 470.94 310 472.18V473.53C309.94 473.94 309.93 474.08 309.93 474.08Z" fill="#263238"/>
<path d="M291.73 301.18H280.12V378.01H291.73V301.18Z" fill="#455A64"/>
<path d="M291.74 378C291.725 377.864 291.725 377.726 291.74 377.59V376.44C291.74 375.44 291.74 373.93 291.74 372.04C291.74 368.19 291.69 362.66 291.66 355.77C291.66 341.99 291.59 322.83 291.55 301.17L291.81 301.43H280.13C280.64 300.91 280.27 301.3 280.38 301.19V313.38C280.38 317.38 280.38 321.27 280.38 325.07C280.38 332.67 280.38 339.85 280.38 346.46C280.33 359.66 280.3 370.57 280.28 378L280.15 377.87L288.74 377.94H290.99H291.77H291.03H288.82L280.15 378.01H280V378C280 370.57 279.95 359.66 279.91 346.46C279.91 339.85 279.91 332.67 279.91 325.07C279.91 321.27 279.91 317.373 279.91 313.38V301.2C280.03 301.08 279.65 301.44 280.18 300.92H292V301.18C292 322.91 291.92 342.18 291.89 355.97C291.89 362.83 291.83 368.34 291.82 372.17C291.82 374.04 291.82 375.5 291.82 376.52C291.82 376.99 291.82 377.37 291.82 377.64C291.82 377.91 291.74 378 291.74 378Z" fill="#263238"/>
<path d="M85.15 301.18H73.54V378.01H85.15V301.18Z" fill="#455A64"/>
<path d="M85.1598 378C85.1517 377.863 85.1517 377.727 85.1598 377.59C85.1598 377.31 85.1598 376.93 85.1598 376.44C85.1598 375.44 85.1598 373.93 85.1598 372.04C85.1598 368.19 85.1598 362.66 85.0798 355.77C85.0798 341.99 85.0098 322.83 84.9698 301.17L85.2298 301.43H73.5498C74.0598 300.91 73.6898 301.3 73.7998 301.19V313.38C73.7998 317.38 73.7998 321.277 73.7998 325.07C73.7998 332.67 73.7998 339.85 73.7998 346.46C73.7998 359.66 73.7198 370.57 73.6998 378L73.5698 377.87L82.1598 377.94H84.4098H85.1898H84.4498H82.2398L73.5698 378.01H73.4498V378C73.4498 370.57 73.3898 359.66 73.3498 346.46C73.3498 339.85 73.3498 332.67 73.3498 325.07C73.3498 321.27 73.3498 317.373 73.3498 313.38V301.2C73.4698 301.08 73.0898 301.44 73.6198 300.92H85.4198V301.18C85.4198 322.91 85.3298 342.18 85.2998 355.97C85.2998 362.83 85.2998 368.34 85.2298 372.17C85.2298 374.04 85.2298 375.5 85.2298 376.52C85.2298 376.99 85.2298 377.37 85.2298 377.64C85.2298 377.91 85.1598 378 85.1598 378Z" fill="#263238"/>
<path d="M314.14 292.41H50.6299V304.71H314.14V292.41Z" fill="#455A64"/>
<path d="M314.14 304.71C314.14 304.71 314.14 304.46 314.14 303.96C314.14 303.46 314.14 302.71 314.14 301.7C314.14 299.7 314.14 296.61 314.14 292.41L314.21 292.49L50.7096 292.67L50.9696 292.41V304.71L50.7096 304.45L237.41 304.56L293.62 304.64H308.88H312.88H314.24H312.91H308.97H293.78L237.63 304.72L50.6296 305H50.3696V292.15H50.6396L314.14 292.34H314.22V292.41C314.22 296.63 314.22 299.71 314.22 301.74C314.22 302.74 314.22 303.49 314.22 303.99C314.22 304.49 314.14 304.71 314.14 304.71Z" fill="#263238"/>
<path d="M314.82 310.86H51.3101V323.16H314.82V310.86Z" fill="#455A64"/>
<path d="M314.82 323.16C314.82 323.16 314.82 322.91 314.82 322.41C314.82 321.91 314.82 321.16 314.82 320.15C314.82 318.15 314.82 315.06 314.82 310.86L314.89 310.93L51.4001 311.12L51.6601 310.86V323.16L51.4001 322.9L238 323L294.21 323.07H309.47H313.47H314.83H313.51H309.57H294.37L238.22 323.15L51.3201 323.26H51.0601V310.6H51.3401L314.83 310.79H314.91V310.86C314.91 315.08 314.91 318.16 314.91 320.19C314.91 321.19 314.91 321.93 314.91 322.43C314.91 322.93 314.82 323.16 314.82 323.16Z" fill="#263238"/>
<path d="M314.82 329.99H51.3101V342.29H314.82V329.99Z" fill="#455A64"/>
<path d="M314.82 342.29C314.82 342.29 314.82 342.04 314.82 341.54C314.82 341.04 314.82 340.29 314.82 339.28C314.82 337.28 314.82 334.19 314.82 329.99L314.89 330.06L51.3999 330.25L51.6599 329.99V342.29L51.3999 342.03L238.11 342.14L294.32 342.22H309.58H313.58H314.94H313.62H309.68H294.48L238.33 342.3L51.4299 342.41H51.1699V329.73H51.4499L314.94 329.92H315.02V330C315.02 334.22 315.02 337.3 315.02 339.33C315.02 340.33 315.02 341.07 315.02 341.58C315.02 342.09 314.82 342.29 314.82 342.29Z" fill="#263238"/>
<path d="M314.82 349.12H51.3101V361.42H314.82V349.12Z" fill="#455A64"/>
<path d="M314.82 361.42C314.82 361.42 314.82 361.17 314.82 360.67C314.82 360.17 314.82 359.42 314.82 358.41C314.82 356.41 314.82 353.32 314.82 349.12L314.89 349.2L51.3999 349.38L51.6599 349.12V361.42L51.3999 361.16L238.11 361.27L294.32 361.35H309.58H313.58H314.94H313.62H309.68H294.48L238.33 361.43L51.4299 361.54H51.1699V348.86H51.4499L314.94 349.05H315.02V349.12C315.02 353.34 315.02 356.42 315.02 358.45C315.02 359.45 315.02 360.2 315.02 360.7C315.02 361.2 314.82 361.42 314.82 361.42Z" fill="#263238"/>
<path d="M319.62 371.86H39.8696V384.16H319.62V371.86Z" fill="#455A64"/>
<path d="M319.62 384.16C319.62 384.16 319.62 383.91 319.62 383.41C319.62 382.91 319.62 382.16 319.62 381.15C319.62 379.15 319.62 376.06 319.62 371.86L319.7 371.93L39.9598 372.12L40.2198 371.86V384.16L39.9598 383.9L238.14 384L297.83 384.08H314.04H318.26C319.21 384.08 319.71 384.08 319.71 384.08H318.29H314H297.85L238.23 384.16L39.8498 384.27H39.5898V371.6H39.8598L319.6 371.79H319.67V371.86C319.67 376.08 319.67 379.16 319.67 381.19C319.67 382.19 319.67 382.93 319.67 383.43C319.67 383.93 319.62 384.16 319.62 384.16Z" fill="#263238"/>
<g opacity="0.3">
<path opacity="0.3" d="M309.93 384.16H298.32V388H309.93V384.16Z" fill="black"/>
</g>
<path d="M168.31 230.32L165.8 246.51L159.34 261.25L149.77 255.14L146.36 246.54L143.51 239.32C143.51 239.32 133.4 241.76 129.37 232.32C127.43 227.76 124.19 218.04 121.37 209.2C119.906 204.612 120.225 199.641 122.264 195.277C124.303 190.914 127.911 187.48 132.37 185.66L133.28 185.28C143.41 181.79 152.03 188.44 155.23 198.65L168.37 230.34" fill="#A2675F"/>
<path d="M143.5 239.32C147.919 237.597 151.725 234.596 154.43 230.7C154.43 230.7 154.32 238.75 144.49 241.79L143.5 239.32Z" fill="#7A4A45"/>
<path d="M127.54 216.43C127.681 216.786 127.955 217.072 128.305 217.227C128.655 217.383 129.052 217.394 129.41 217.26C129.588 217.203 129.753 217.11 129.895 216.988C130.036 216.865 130.152 216.716 130.235 216.548C130.318 216.38 130.367 216.197 130.378 216.011C130.389 215.824 130.362 215.636 130.3 215.46C130.159 215.104 129.884 214.818 129.535 214.663C129.185 214.507 128.788 214.496 128.43 214.63C128.252 214.687 128.087 214.78 127.945 214.902C127.803 215.025 127.687 215.174 127.604 215.342C127.522 215.51 127.473 215.693 127.462 215.879C127.451 216.066 127.477 216.254 127.54 216.43Z" fill="#263238"/>
<path d="M125 212.54C125.24 212.65 126 211.47 127.42 210.87C128.84 210.27 130.25 210.56 130.33 210.32C130.41 210.08 130.07 209.96 129.47 209.81C128.646 209.617 127.784 209.683 127 210C126.24 210.313 125.599 210.859 125.17 211.56C124.87 212.11 124.85 212.5 125 212.54Z" fill="#263238"/>
<path d="M140.27 210.75C140.411 211.106 140.685 211.392 141.035 211.547C141.385 211.703 141.782 211.714 142.14 211.58C142.319 211.524 142.485 211.432 142.628 211.31C142.771 211.188 142.887 211.039 142.971 210.871C143.055 210.703 143.105 210.52 143.116 210.332C143.128 210.145 143.102 209.957 143.04 209.78C142.897 209.426 142.622 209.141 142.273 208.986C141.924 208.831 141.528 208.818 141.17 208.95C140.991 209.006 140.825 209.098 140.682 209.22C140.539 209.342 140.422 209.491 140.338 209.659C140.254 209.827 140.205 210.01 140.193 210.198C140.181 210.385 140.207 210.573 140.27 210.75Z" fill="#263238"/>
<path d="M139.35 206.15C139.58 206.28 140.42 205.15 141.93 204.74C143.44 204.33 144.78 204.74 144.93 204.51C145.08 204.28 144.72 204.13 144.13 203.91C143.335 203.664 142.484 203.664 141.69 203.91C140.897 204.138 140.197 204.61 139.69 205.26C139.3 205.71 139.24 206.09 139.35 206.15Z" fill="#263238"/>
<path d="M138.93 220.36C138.063 220.433 137.209 220.618 136.39 220.91C136 221.02 135.62 221.09 135.45 220.91C135.257 220.542 135.183 220.122 135.24 219.71C135.24 218.663 135.22 217.563 135.18 216.41C135.04 211.74 134.78 207.96 134.6 207.97C134.42 207.98 134.36 211.77 134.5 216.44C134.5 217.59 134.58 218.68 134.61 219.73C134.565 220.275 134.709 220.819 135.02 221.27C135.127 221.382 135.259 221.467 135.404 221.519C135.55 221.571 135.706 221.588 135.86 221.57C136.09 221.539 136.315 221.479 136.53 221.39C137.369 221.146 138.175 220.8 138.93 220.36Z" fill="#263238"/>
<path d="M136.55 199.93C136.86 200.27 138.24 199.48 140.04 198.93C141.84 198.38 143.42 198.33 143.5 197.93C143.5 197.72 143.13 197.44 142.42 197.29C141.481 197.125 140.516 197.176 139.599 197.44C138.683 197.703 137.838 198.172 137.13 198.81C136.6 199.32 136.41 199.77 136.55 199.93Z" fill="#263238"/>
<path d="M122.88 206.8C123.28 207.02 124.14 206.27 125.34 205.75C126.54 205.23 127.67 205.06 127.76 204.61C127.76 204.4 127.5 204.14 126.92 204.01C126.166 203.863 125.384 203.961 124.69 204.29C123.982 204.593 123.387 205.111 122.99 205.77C122.7 206.28 122.7 206.68 122.88 206.8Z" fill="#263238"/>
<path d="M157.29 206C157.43 205.87 163.03 201.39 165.49 208C167.95 214.61 160.84 215.7 160.76 215.51C160.68 215.32 157.29 206 157.29 206Z" fill="#A2675F"/>
<path d="M161.84 212.22C161.84 212.22 161.98 212.22 162.21 212.27C162.524 212.28 162.83 212.173 163.07 211.97C163.39 211.547 163.592 211.046 163.655 210.519C163.718 209.992 163.641 209.457 163.43 208.97C163.235 208.399 162.914 207.879 162.49 207.45C162.353 207.266 162.173 207.118 161.965 207.02C161.758 206.923 161.529 206.878 161.3 206.89C161.154 206.904 161.018 206.968 160.916 207.073C160.813 207.177 160.751 207.314 160.74 207.46C160.74 207.68 160.81 207.79 160.74 207.82C160.67 207.85 160.56 207.76 160.51 207.47C160.487 207.292 160.526 207.112 160.62 206.96C160.748 206.753 160.953 206.606 161.19 206.55C161.48 206.504 161.777 206.532 162.053 206.632C162.329 206.731 162.576 206.899 162.77 207.12C163.26 207.589 163.63 208.169 163.85 208.81C164.31 210.15 164.09 211.65 163.24 212.28C163.083 212.397 162.902 212.477 162.71 212.515C162.518 212.553 162.32 212.548 162.13 212.5C161.91 212.37 161.82 212.24 161.84 212.22Z" fill="#7A4A45"/>
<path d="M115.75 198.53C115.595 197.847 115.646 197.133 115.895 196.479C116.144 195.824 116.58 195.258 117.15 194.85C116.625 194.35 116.285 193.687 116.188 192.969C116.09 192.251 116.24 191.521 116.612 190.899C116.985 190.277 117.558 189.801 118.237 189.549C118.917 189.296 119.662 189.283 120.35 189.51C120.17 189.02 120.11 188.494 120.174 187.976C120.238 187.458 120.424 186.963 120.717 186.531C121.01 186.099 121.402 185.743 121.86 185.493C122.317 185.242 122.828 185.104 123.35 185.09C123.078 184.525 123.005 183.884 123.144 183.272C123.284 182.661 123.627 182.115 124.117 181.723C124.607 181.332 125.215 181.118 125.843 181.118C126.47 181.117 127.079 181.329 127.57 181.72C127.715 181.018 128.015 180.358 128.45 179.788C128.885 179.218 129.442 178.753 130.08 178.427C130.719 178.102 131.422 177.924 132.139 177.907C132.856 177.89 133.567 178.035 134.22 178.33C135.359 177.367 136.812 176.855 138.303 176.892C139.794 176.929 141.22 177.512 142.31 178.53C143.405 178.169 144.583 178.142 145.694 178.452C146.805 178.761 147.799 179.394 148.55 180.27C149.258 180.043 150.014 180.007 150.74 180.166C151.467 180.324 152.139 180.671 152.689 181.172C153.238 181.673 153.646 182.31 153.871 183.019C154.096 183.728 154.13 184.484 153.97 185.21C154.45 185.274 154.908 185.447 155.31 185.717C155.712 185.987 156.046 186.345 156.287 186.765C156.528 187.185 156.669 187.654 156.699 188.137C156.729 188.62 156.647 189.104 156.46 189.55C157.038 189.596 157.592 189.804 158.057 190.151C158.522 190.498 158.88 190.97 159.089 191.511C159.298 192.052 159.35 192.642 159.239 193.211C159.127 193.781 158.857 194.307 158.46 194.73C159.46 194.45 160.37 195.56 160.46 196.6C160.414 197.638 160.314 198.673 160.16 199.7C160.16 200.56 160.39 201.4 160.43 202.26C160.462 203.068 160.317 203.873 160.006 204.619C159.696 205.365 159.226 206.034 158.63 206.58L158.88 206.71C159.39 207.47 158.47 208.52 157.55 208.51C156.635 208.378 155.782 207.973 155.1 207.35C154.198 206.812 153.385 206.137 152.69 205.35C152.35 204.947 152.15 204.444 152.121 203.917C152.093 203.39 152.236 202.868 152.53 202.43C151.889 202.428 151.26 202.258 150.705 201.937C150.151 201.616 149.69 201.155 149.37 200.6C148.738 199.486 148.315 198.266 148.12 197L146.92 191.47C145.721 191.913 144.424 192.02 143.169 191.779C141.913 191.537 140.748 190.957 139.8 190.1C139.493 190.578 139.087 190.986 138.61 191.295C138.133 191.604 137.595 191.808 137.033 191.893C136.471 191.979 135.897 191.943 135.35 191.789C134.803 191.635 134.295 191.366 133.86 191C133.916 192.323 133.467 193.619 132.603 194.623C131.74 195.628 130.527 196.267 129.21 196.41C130.02 197.65 128.12 199.89 126.94 200.79C125.969 201.351 124.842 201.579 123.73 201.44C123.73 201.44 122.01 203.72 120.56 203.74C119.11 203.76 116.84 202.86 117.12 201.25C116.455 200.464 115.986 199.532 115.75 198.53Z" fill="#263238"/>
<path d="M156.8 189.39C156.784 189.778 156.681 190.157 156.5 190.5C156.392 190.674 156.246 190.82 156.073 190.928C155.899 191.035 155.703 191.101 155.5 191.12C155.251 191.149 154.999 191.111 154.77 191.009C154.541 190.907 154.344 190.745 154.2 190.54L153.96 190.18L153.77 190.57C153.604 190.869 153.363 191.119 153.069 191.295C152.776 191.47 152.442 191.565 152.1 191.57C151.714 191.552 151.343 191.418 151.035 191.184C150.728 190.949 150.499 190.627 150.38 190.26L150.27 189.86L149.98 190.15C149.806 190.321 149.599 190.456 149.373 190.547C149.146 190.638 148.904 190.683 148.66 190.68C148.266 190.678 147.884 190.548 147.57 190.31C147.03 189.9 146.91 189.47 146.85 189.49C146.79 189.51 146.85 189.99 147.38 190.49C147.724 190.815 148.168 191.012 148.64 191.05C148.945 191.071 149.252 191.029 149.54 190.927C149.829 190.826 150.094 190.667 150.32 190.46L149.91 190.35C150.032 190.807 150.292 191.215 150.654 191.518C151.017 191.822 151.464 192.007 151.935 192.047C152.406 192.088 152.878 191.982 153.287 191.745C153.696 191.507 154.022 191.149 154.22 190.72H153.79C153.989 190.992 154.26 191.204 154.573 191.331C154.885 191.458 155.227 191.496 155.56 191.44C155.813 191.393 156.052 191.288 156.259 191.134C156.465 190.979 156.633 190.78 156.75 190.55C157.13 189.86 156.83 189.35 156.8 189.39Z" fill="#455A64"/>
<path d="M160.34 195.21C160.29 195.21 160.19 195.49 159.76 195.77C159.478 195.965 159.143 196.069 158.8 196.069C158.457 196.069 158.122 195.965 157.84 195.77L157.62 195.59L157.52 195.86C157.395 196.161 157.196 196.424 156.94 196.626C156.684 196.827 156.381 196.959 156.06 197.01C155.688 197.05 155.312 196.976 154.984 196.797C154.655 196.619 154.388 196.344 154.22 196.01L154.02 195.59L153.76 195.97C153.693 196.068 153.612 196.156 153.52 196.23C153.312 196.402 153.056 196.504 152.787 196.524C152.519 196.544 152.25 196.479 152.02 196.34C151.816 196.2 151.654 196.006 151.552 195.781C151.449 195.555 151.411 195.306 151.44 195.06L151.51 194.56L151.08 194.82C150.586 195.113 149.998 195.203 149.44 195.07C148.995 194.971 148.594 194.728 148.3 194.38C148.051 194.05 147.842 193.69 147.68 193.31C147.656 193.535 147.68 193.762 147.748 193.977C147.817 194.192 147.93 194.391 148.08 194.56C148.384 194.989 148.825 195.303 149.33 195.45C149.661 195.55 150.009 195.582 150.352 195.544C150.696 195.506 151.028 195.399 151.33 195.23L151 195C150.949 195.338 150.995 195.683 151.131 195.995C151.267 196.308 151.488 196.577 151.77 196.77C152.088 196.978 152.463 197.079 152.843 197.06C153.222 197.04 153.585 196.9 153.88 196.66C154.012 196.548 154.129 196.421 154.23 196.28H153.77C153.958 196.688 154.264 197.03 154.648 197.262C155.032 197.494 155.477 197.607 155.926 197.584C156.374 197.561 156.806 197.405 157.165 197.135C157.524 196.866 157.794 196.495 157.94 196.07L157.62 196.16C157.814 196.301 158.034 196.401 158.268 196.455C158.502 196.508 158.744 196.513 158.98 196.47C159.348 196.429 159.696 196.279 159.98 196.04C160.34 195.57 160.37 195.21 160.34 195.21Z" fill="#455A64"/>
<path d="M124.15 184.55C124.292 184.278 124.481 184.034 124.71 183.83C124.866 183.7 125.047 183.604 125.241 183.548C125.436 183.491 125.64 183.476 125.841 183.502C126.042 183.528 126.236 183.596 126.409 183.701C126.583 183.805 126.733 183.945 126.85 184.11L127.09 184.44L127.15 184.03C127.221 183.601 127.399 183.198 127.669 182.857C127.938 182.516 128.289 182.248 128.69 182.08C129.179 181.891 129.715 181.862 130.222 181.996C130.729 182.131 131.18 182.423 131.51 182.83L131.81 183.2L131.93 182.74C132.063 182.294 132.294 181.883 132.605 181.537C132.916 181.192 133.301 180.919 133.73 180.74C134.194 180.556 134.697 180.49 135.193 180.55C135.689 180.609 136.162 180.791 136.57 181.08C136.908 181.316 137.194 181.619 137.41 181.97L137.56 182.21L137.79 182.04C138.337 181.65 138.999 181.455 139.669 181.486C140.34 181.517 140.981 181.772 141.49 182.21C141.916 182.617 142.217 183.137 142.357 183.71C142.497 184.282 142.47 184.882 142.28 185.44L142.14 185.81L142.52 185.72C143.366 185.541 144.249 185.699 144.98 186.16C145.542 186.519 145.979 187.043 146.23 187.66C146.432 188.208 146.537 188.786 146.54 189.37C146.54 189.37 146.62 189.22 146.64 188.91C146.68 188.456 146.618 187.998 146.46 187.57C146.224 186.882 145.772 186.289 145.17 185.88C144.774 185.608 144.328 185.416 143.858 185.317C143.388 185.217 142.902 185.212 142.43 185.3L142.68 185.59C142.963 184.9 143.012 184.136 142.818 183.416C142.624 182.695 142.199 182.059 141.608 181.604C141.017 181.149 140.292 180.902 139.546 180.899C138.8 180.896 138.074 181.139 137.48 181.59L137.86 181.66C137.601 181.26 137.26 180.919 136.86 180.66C136.381 180.319 135.824 180.104 135.24 180.036C134.656 179.968 134.065 180.048 133.52 180.27C133.02 180.482 132.574 180.805 132.215 181.213C131.857 181.622 131.595 182.106 131.45 182.63L131.88 182.54C131.526 182.1 131.05 181.775 130.512 181.605C129.974 181.436 129.397 181.429 128.855 181.586C128.313 181.743 127.83 182.057 127.466 182.489C127.102 182.92 126.874 183.449 126.81 184.01L127.11 183.93C126.939 183.713 126.72 183.539 126.47 183.421C126.22 183.303 125.946 183.245 125.67 183.25C125.263 183.265 124.875 183.429 124.58 183.71C124.399 183.878 124.262 184.087 124.18 184.32C124.14 184.46 124.14 184.55 124.15 184.55Z" fill="#455A64"/>
<path d="M143.27 218.77C143.03 218.85 143.68 220.44 142.79 222.12C141.9 223.8 140.14 224.32 140.21 224.55C140.28 224.78 140.72 224.7 141.44 224.43C142.372 224.06 143.144 223.373 143.62 222.49C144.079 221.642 144.191 220.649 143.93 219.72C143.72 219 143.38 218.71 143.27 218.77Z" fill="#263238"/>
<path d="M133.53 247.57L125.61 269.88L127.44 294.28L132.44 336.43C132.44 336.43 151.01 330.16 151.85 330.79C152.69 331.42 143.63 288.06 143.63 288.06L150.18 252.78L149.76 242.39L133.53 247.57Z" fill="#285BBE"/>
<path d="M133.53 247.57L124.82 267.57L106.82 274.63L88 280.46L90.64 294C90.7705 294.657 91.0345 295.281 91.4157 295.832C91.7968 296.384 92.287 296.851 92.856 297.205C93.4249 297.559 94.0605 297.793 94.7234 297.892C95.3863 297.991 96.0624 297.953 96.71 297.78L112.64 293.5L127.48 292.82L135.2 274.88L133.53 247.57Z" fill="#285BBE"/>
<path d="M94.1499 274.89L95.4699 273.25C96.7688 273.239 98.0537 273.519 99.2299 274.07C100.954 275.487 102.217 277.384 102.86 279.52C103.004 281.057 103.004 282.603 102.86 284.14L93.8599 274.89" fill="#A2675F"/>
<path d="M76.5996 265.17C76.5996 265.44 93.5996 283.45 93.5996 283.45L96.7996 286.61H107L87.1996 264.61L78.6596 263.15L76.5996 265.17Z" fill="#263238"/>
<path d="M145.55 305.18C145.398 304.984 145.268 304.773 145.16 304.55L144.16 302.69C143.3 301.07 142.08 298.69 140.66 295.69C138.971 292.223 137.469 288.668 136.16 285.04C135.786 283.983 135.476 282.904 135.23 281.81C135.103 281.236 135.013 280.655 134.96 280.07C134.96 279.49 134.96 278.9 134.96 278.31C134.96 275.94 134.96 273.49 135.08 270.98C135.2 267.8 135.36 264.73 135.55 261.81V261.66L135.69 261.6L140.96 259.28L141.02 259.74L137.02 259.21H136.68L136.85 258.92C139.45 254.46 141.61 250.73 143.16 248.06L144.95 245.06L145.44 244.28C145.49 244.184 145.554 244.097 145.63 244.02C145.599 244.122 145.556 244.219 145.5 244.31L145.07 245.13L143.38 248.21L137.24 259.16L137.07 258.83L141.07 259.33L141.92 259.43L141.14 259.78L135.89 262.12L136.04 261.9C135.86 264.82 135.7 267.9 135.58 271.06C135.49 273.56 135.43 276 135.45 278.36C135.45 278.95 135.45 279.53 135.45 280.11C135.493 280.669 135.577 281.223 135.7 281.77C135.936 282.846 136.233 283.908 136.59 284.95C138 289.04 139.59 292.61 140.98 295.6C142.37 298.59 143.51 300.97 144.32 302.6L145.24 304.5C145.36 304.719 145.463 304.946 145.55 305.18Z" fill="#263238"/>
<path d="M86.63 274.89C86.63 274.89 84.0501 276.75 84.1201 277.81C84.1208 278.277 84.2349 278.736 84.4526 279.149C84.6704 279.562 84.9852 279.916 85.3701 280.18C85.9701 280.38 87.75 281.3 87.75 281.3C87.75 281.3 86.16 282.82 86.63 284.41C86.7168 284.835 86.8975 285.235 87.1587 285.581C87.42 285.927 87.7553 286.21 88.14 286.41C88.1766 287.516 88.3998 288.608 88.8001 289.64C89.4075 290.464 90.3041 291.029 91.31 291.22C91.871 292.359 92.5408 293.44 93.31 294.45C94.0827 295.167 95.0435 295.649 96.0801 295.84C96.0801 295.84 98.46 296.11 99.71 295.25C100.559 294.823 101.266 294.16 101.747 293.34C102.228 292.52 102.462 291.579 102.42 290.63C102.42 290.63 108.1 287.79 108.16 286.34C108.22 284.89 107.57 284.43 107.57 284.43L104.73 284.95C104.73 284.95 104.33 283.44 103.48 283.3C102.63 283.16 92.2601 285.68 92.2601 285.68C92.2601 285.68 99.32 284.56 99.52 283.17C99.72 281.78 99.7801 280.6 98.72 280.33C97.66 280.06 90.1501 280.88 90.1501 280.88L89.75 279.54C89.75 279.54 91.75 279.61 91.75 277.83C91.75 276.05 90.63 275.65 90.63 275.65L86.63 274.89Z" fill="#A2675F"/>
<path d="M145.55 244L146.41 250.89L141.08 280.86L146.49 306.73L174.53 315.02L185.56 310.26L181.79 237.64L171.77 230.6L167.92 228.01L153.48 249.87L145.55 244Z" fill="#FAFAFA"/>
<path d="M171 230.05L178 233.17L202.82 236.51L216.21 306.93L217.89 315.02L243.56 353.43C243.838 353.847 244.028 354.317 244.117 354.81C244.206 355.303 244.192 355.81 244.077 356.298C243.962 356.786 243.747 357.245 243.446 357.646C243.146 358.047 242.766 358.382 242.33 358.63L221.33 370.63C220.55 371.03 219.65 371.128 218.801 370.907C217.953 370.686 217.216 370.16 216.73 369.43L190 329.18L176.76 312.23C176.76 312.23 168.83 288.23 167.76 278.02C166.927 269.069 166.927 260.061 167.76 251.11C168.38 245 171 230.05 171 230.05Z" fill="#285BBE"/>
<path d="M202.78 236.51C204.396 237.358 205.799 238.561 206.885 240.027C207.97 241.494 208.711 243.187 209.05 244.98C210.63 253.34 215.39 267.92 217.18 283.49C219.68 305.27 213.82 311.99 211.06 315.75C208.3 319.51 191.18 327.49 191.18 327.49L178.31 310.35L192.56 298.67L191.31 268.42C191.31 268.42 186.31 261.54 188.81 251.32C191.31 241.1 198.61 235.89 202.81 236.51H202.78Z" fill="#285BBE"/>
<g opacity="0.3">
<path opacity="0.3" d="M216.06 306.36C214.11 311.64 211.88 316.1 207.34 318.61C202.5 321.29 195.77 325.07 191.18 327.49L194.54 332.71C199.81 331.9 209.54 325.76 212.7 321.47C215.758 317.069 216.965 311.642 216.06 306.36Z" fill="black"/>
</g>
<path d="M191 270C191.042 270.147 191.072 270.298 191.09 270.45C191.15 270.78 191.22 271.22 191.32 271.78C191.5 272.99 191.77 274.71 192.11 276.92C192.79 281.42 193.76 287.92 194.95 295.92V296.02L194.87 296.09L178.48 310.53V310.22L191.36 327.35L191.04 327.28C195.32 325.12 199.75 322.78 204.13 320.19C205.38 319.44 206.61 318.69 207.8 317.88C208.982 317.119 210.09 316.248 211.11 315.28C212.846 313.126 214.22 310.705 215.18 308.11C216.946 303.153 217.763 297.909 217.59 292.65C217.47 287.88 217.012 283.125 216.22 278.42C215.53 273.99 214.73 269.89 213.94 266.16C212.37 258.69 210.85 252.7 209.79 248.57C209.25 246.57 208.79 244.93 208.54 243.82C208.4 243.29 208.29 242.88 208.22 242.58C208.17 242.441 208.136 242.297 208.12 242.15C208.12 242.15 208.18 242.29 208.27 242.56C208.36 242.83 208.48 243.27 208.64 243.79C208.96 244.86 209.42 246.46 209.99 248.52C211.11 252.64 212.68 258.62 214.3 266.08C215.12 269.81 215.94 273.92 216.65 278.36C217.463 283.08 217.934 287.852 218.06 292.64C218.253 297.965 217.438 303.278 215.66 308.3C214.677 310.954 213.268 313.429 211.49 315.63C210.448 316.633 209.309 317.531 208.09 318.31C206.89 319.12 205.65 319.88 204.4 320.63C199.99 323.24 195.57 325.58 191.27 327.73L191.08 327.83L190.95 327.66L178.1 310.5L177.97 310.32L178.13 310.18L194.58 295.8L194.52 295.97C193.39 287.97 192.52 281.49 191.85 276.97C191.55 274.76 191.31 272.97 191.15 271.82C191.08 271.25 191.02 270.82 190.98 270.48C190.976 270.32 190.983 270.159 191 270Z" fill="#263238"/>
<path d="M172.83 295.87C172.823 295.635 172.843 295.4 172.89 295.17C172.95 294.67 173.04 294.01 173.14 293.17C173.4 291.39 173.75 288.92 174.19 285.9C175.06 279.76 176.43 271.3 177.76 261.9C178.38 257.36 178.97 253.04 179.5 249.1L179.66 249.35L175.42 247.73L175 247.57L175.37 247.33L179.63 244.57L179.55 244.76C179.04 241.23 178.63 238.34 178.33 236.26C178.21 235.26 178.1 234.53 178.03 233.94C177.977 233.67 177.954 233.395 177.96 233.12C178.043 233.381 178.103 233.649 178.14 233.92C178.24 234.51 178.38 235.27 178.55 236.23C178.89 238.3 179.36 241.18 179.93 244.7V244.83L179.83 244.9L175.6 247.7L175.55 247.31L179.81 248.9L179.99 248.97V249.16C179.47 253.1 178.89 257.43 178.28 261.97C176.96 271.34 175.53 279.8 174.56 285.97C174.06 288.97 173.65 291.45 173.35 293.22L173 295.22C172.964 295.442 172.907 295.659 172.83 295.87Z" fill="#263238"/>
<path d="M199 237.46C199.06 237.54 197.79 238.46 196.08 240.19C195.087 241.232 194.184 242.356 193.38 243.55C191.389 246.479 190.028 249.789 189.38 253.27C189.119 254.686 188.978 256.121 188.96 257.56C188.96 260.03 189.23 261.56 189.13 261.56C188.995 261.22 188.908 260.864 188.87 260.5C188.784 260.087 188.724 259.67 188.69 259.25C188.628 258.689 188.594 258.125 188.59 257.56C188.552 256.093 188.655 254.627 188.9 253.18C189.222 251.412 189.718 249.681 190.38 248.01C191.077 246.352 191.938 244.767 192.95 243.28C193.787 242.075 194.738 240.954 195.79 239.93C196.187 239.536 196.604 239.162 197.04 238.81C197.358 238.531 197.692 238.271 198.04 238.03C198.333 237.799 198.656 237.607 199 237.46Z" fill="#263238"/>
<path d="M127.33 292.84C127.19 292.84 126.73 288 126.33 282C125.93 276 125.68 271.14 125.83 271.12C125.98 271.1 126.43 275.97 126.83 281.96C127.23 287.95 127.47 292.83 127.33 292.84Z" fill="#263238"/>
<path d="M211.87 336.99L215.72 344.85L233.55 333.44L227.38 326.45L211.87 336.99Z" fill="#285BBE"/>
<path d="M211.87 337C212.207 336.706 212.565 336.435 212.94 336.19L216.08 333.98L227.24 326.26L227.42 326.14L227.56 326.3L233.75 333.3L233.95 333.53L233.69 333.69L232.91 334.19L215.82 345L215.64 345.11L215.56 344.92L212.8 339.08C212.51 338.44 212.27 337.92 212.09 337.51C212.001 337.34 211.927 337.163 211.87 336.98C211.995 337.152 212.102 337.336 212.19 337.53C212.4 337.94 212.67 338.46 213.01 339.09L215.89 344.76L215.62 344.69L232.62 333.69L233.4 333.19V333.58C231.22 331.11 229.14 328.75 227.24 326.58H227.56L216.39 334.03L213.13 336.16L212.24 336.73L211.87 337Z" fill="#263238"/>
<g opacity="0.3">
<path opacity="0.3" d="M212 337.34C212.08 337.49 216 349.41 216 349.41L232.63 337.61L231.2 335L215.72 344.9L212 337.34Z" fill="black"/>
</g>
<g opacity="0.3">
<path opacity="0.3" d="M178.46 236.46L181.46 246.21L178.46 247.57L182.41 249.51C182.41 249.51 176.19 283.51 175.41 286.61C174.63 289.71 173.67 290.71 173.67 290.71L179.74 249.18L175.5 247.57L179.74 244.78L178.46 236.46Z" fill="black"/>
</g>
<path d="M112.67 289.59C112.591 287.251 112.211 284.932 111.54 282.69C110.703 280.509 109.595 278.443 108.24 276.54C108.809 276.95 109.297 277.462 109.68 278.05C111.715 280.789 112.838 284.098 112.89 287.51C112.942 288.211 112.867 288.916 112.67 289.59Z" fill="#263238"/>
<g opacity="0.3">
<path opacity="0.3" d="M125.68 270.16C122.68 277.56 123.79 285.67 127.26 292.84C126.72 284.59 126.4 278.16 125.68 270.16Z" fill="black"/>
</g>
<path d="M168.83 236.21C168.695 236.562 168.52 236.897 168.31 237.21L166.76 239.8C165.46 242 163.76 245.06 162.03 248.55C160.87 250.9 159.88 253.15 159.03 255.05L158.92 255.33L158.69 255.15C157.368 254.095 156.125 252.945 154.97 251.71C154.507 251.266 154.097 250.769 153.75 250.23C154.25 250.63 154.721 251.064 155.16 251.53C156.37 252.681 157.638 253.769 158.96 254.79L158.62 254.88C159.39 252.95 160.36 250.69 161.52 248.32C162.985 245.329 164.614 242.421 166.4 239.61C167.09 238.53 167.68 237.68 168.1 237.1C168.306 236.775 168.551 236.476 168.83 236.21Z" fill="#263238"/>
<path d="M152.41 250C152.017 251.746 151.457 253.45 150.74 255.09L150.61 255.44L150.33 255.2L150.2 255.08C148.745 253.923 147.495 252.53 146.5 250.96C146.61 250.86 148.26 252.7 150.5 254.69L150.63 254.8L150.22 254.91C150.791 253.207 151.525 251.563 152.41 250Z" fill="#263238"/>
<path d="M155.35 301.17C155.294 301.016 155.267 300.854 155.27 300.69C155.27 300.3 155.19 299.84 155.14 299.28C155.06 297.97 154.94 296.22 154.8 294.09C154.53 289.71 154.22 283.66 153.95 276.97C153.68 270.28 153.54 264.22 153.54 259.83C153.54 257.63 153.54 255.83 153.61 254.63C153.61 254.07 153.61 253.63 153.68 253.22C153.68 253.055 153.7 252.89 153.74 252.73C153.767 252.892 153.767 253.058 153.74 253.22C153.74 253.6 153.74 254.07 153.74 254.63C153.74 255.94 153.8 257.69 153.84 259.82C153.93 264.21 154.14 270.26 154.4 276.95C154.66 283.64 154.91 289.62 155.09 294.07C155.17 296.21 155.23 297.96 155.28 299.27C155.28 299.83 155.28 300.27 155.28 300.68C155.319 300.841 155.342 301.005 155.35 301.17Z" fill="#263238"/>
<path d="M96.7997 436.22L99.3897 460.63C99.3897 460.63 75.3897 471.47 75.4797 476.02L123 472.71L120.53 434.49L96.7997 436.22Z" fill="#285BBE"/>
<path d="M113.94 457.55C114.401 457.667 114.806 457.945 115.081 458.333C115.356 458.722 115.483 459.196 115.44 459.67C115.349 460.14 115.082 460.557 114.694 460.836C114.305 461.116 113.824 461.235 113.35 461.17C112.851 461.066 112.41 460.775 112.118 460.357C111.826 459.938 111.705 459.425 111.78 458.92C111.922 458.439 112.246 458.032 112.682 457.786C113.119 457.54 113.635 457.473 114.12 457.6" fill="#E0E0E0"/>
<path d="M123.11 473.7L122.87 470L77.19 473.48C77.19 473.48 75.13 474.55 75.48 476.02L123.11 473.7Z" fill="#E0E0E0"/>
<path d="M98.6 460.45C98.6 460.68 99.79 460.7 100.99 461.37C102.19 462.04 102.86 462.97 103.06 462.86C103.26 462.75 102.83 461.44 101.37 460.66C99.91 459.88 98.54 460.24 98.6 460.45Z" fill="#263238"/>
<path d="M93.7598 462.86C93.7598 463.08 94.7598 463.41 95.6098 464.34C96.4598 465.27 96.7698 466.28 96.9998 466.26C97.2298 466.24 97.2898 464.91 96.1998 463.78C95.1098 462.65 93.7498 462.63 93.7598 462.86Z" fill="#263238"/>
<path d="M91.3498 469C91.5598 469 91.7998 467.85 91.1198 466.62C90.4398 465.39 89.3098 464.96 89.2298 465.16C89.1498 465.36 89.8598 466 90.4098 467.01C90.9598 468.02 91.1098 469 91.3498 469Z" fill="#263238"/>
<path d="M98.6296 454.82C98.7396 455.02 99.7796 454.63 101.1 454.62C102.42 454.61 103.47 454.96 103.58 454.76C103.69 454.56 102.64 453.76 101.09 453.81C99.5396 453.86 98.4996 454.64 98.6296 454.82Z" fill="#263238"/>
<path d="M88.3396 337.69L66.3396 348.57C66.3396 348.57 47.8796 329.85 43.6196 331.47L63.1796 374.9L98.1796 359.35L88.3396 337.69Z" fill="#285BBE"/>
<path d="M74.2596 361.15C74.3223 361.625 74.2068 362.107 73.9354 362.502C73.6639 362.897 73.2558 363.178 72.7896 363.29C72.3175 363.37 71.8325 363.266 71.4358 362.997C71.039 362.729 70.761 362.318 70.6596 361.85C70.5851 361.345 70.7062 360.832 70.998 360.413C71.2898 359.995 71.7304 359.704 72.2296 359.6C72.7216 359.582 73.2018 359.752 73.5732 360.075C73.9446 360.398 74.1792 360.85 74.2296 361.34" fill="#E0E0E0"/>
<path d="M62.2801 375.35L65.6701 373.84L46.5801 332.19C46.5801 332.19 44.8701 330.64 43.5801 331.47L62.2801 375.35Z" fill="#E0E0E0"/>
<path d="M66.23 347.77C66.02 347.87 66.4 348.97 66.23 350.32C66.06 351.67 65.38 352.63 65.55 352.79C65.72 352.95 66.81 352.08 67.03 350.44C67.25 348.8 66.41 347.63 66.23 347.77Z" fill="#263238"/>
<path d="M62.2899 344.06C62.0699 344.06 62.1199 345.19 61.5499 346.31C60.9799 347.43 60.1199 348.07 60.2199 348.31C60.3199 348.55 61.5899 348.11 62.2699 346.7C62.9499 345.29 62.4999 344 62.2899 344.06Z" fill="#263238"/>
<path d="M55.6796 343.93C55.6796 344.14 56.9096 343.93 57.8296 342.93C58.7496 341.93 58.7596 340.66 58.5396 340.65C58.3196 340.64 57.9796 341.54 57.2096 342.4C56.4396 343.26 55.5996 343.71 55.6796 343.93Z" fill="#263238"/>
<path d="M71.52 345.84C71.37 346.02 72.1 346.84 72.52 348.1C72.94 349.36 73.02 350.44 73.25 350.46C73.48 350.48 73.84 349.25 73.25 347.81C72.66 346.37 71.64 345.66 71.52 345.84Z" fill="#263238"/>
<path d="M99.08 351.53C96.7008 352.123 94.5423 353.388 92.8615 355.173C91.1808 356.958 90.0486 359.189 89.6 361.6C87.99 370.07 93.82 455.26 93.82 455.26L123.72 452.86L121.89 395.46L121.15 383.88L123.72 381.88L176.27 372.63L168.27 350.91L159.48 335.61L119.23 345.61L99.08 351.53Z" fill="#263238"/>
<path d="M198 337.18C198 337.18 176.26 305.75 169.9 301.18C164.66 297.41 156.78 297.42 151.9 299.61C147.02 301.8 70.8999 339.56 70.8999 339.56L82.0699 367.56L154.53 342.45L165.33 359.45L175.39 372.77L203.63 372.99C204.96 372.99 211.03 360.99 211.03 360.99L198 337.18Z" fill="#263238"/>
<path d="M89.3198 368.17C89.3048 368.074 89.3048 367.976 89.3198 367.88C89.3198 367.65 89.3198 367.37 89.3198 367.02C89.3198 366.67 89.3198 366.16 89.3198 365.61C89.3198 365.06 89.4498 364.42 89.5298 363.7C89.6098 362.98 89.8398 362.21 89.9998 361.34C90.0898 360.91 90.2698 360.48 90.4098 360.03C90.555 359.554 90.7355 359.089 90.9498 358.64C91.8756 356.472 93.3508 354.583 95.2298 353.16C96.3245 352.327 97.5711 351.716 98.8998 351.36L103.23 350.62L112.76 349.03L134.61 345.41L154.45 342.16H154.61L154.7 342.3C160.51 351.37 165.23 359.3 169.2 364.42C171.12 367.01 172.66 369.07 173.74 370.51C174.25 371.2 174.65 371.74 174.95 372.13L175.25 372.55L175.35 372.7C175.35 372.7 175.35 372.7 175.22 372.58L174.88 372.18L173.61 370.61C172.51 369.23 170.91 367.2 168.96 364.61C164.91 359.49 160.12 351.61 154.29 342.61L154.53 342.72L134.69 346L112.84 349.58L103.3 351.13L98.9898 351.83C97.7093 352.166 96.5046 352.743 95.4398 353.53C93.6008 354.908 92.1475 356.737 91.2198 358.84C90.9982 359.277 90.8142 359.732 90.6698 360.2C90.5026 360.622 90.3591 361.052 90.2398 361.49C90.0303 362.253 89.8633 363.028 89.7398 363.81L89.4698 365.7C89.4698 366.24 89.4098 366.7 89.3898 367.1C89.3698 367.5 89.3898 367.74 89.3298 367.96C89.3319 368.03 89.3286 368.1 89.3198 368.17Z" fill="#455A64"/>
<path d="M164.9 323C164.975 323.294 165.012 323.597 165.01 323.9C165.076 324.722 165.076 325.548 165.01 326.37C164.897 327.595 164.673 328.806 164.34 329.99C163.918 331.435 163.362 332.838 162.68 334.18C161.963 335.504 161.126 336.759 160.18 337.93C159.39 338.873 158.52 339.747 157.58 340.54C156.954 341.074 156.285 341.556 155.58 341.98C155.331 342.158 155.059 342.3 154.77 342.4C154.72 342.32 155.77 341.64 157.34 340.26C158.227 339.449 159.05 338.57 159.8 337.63C160.711 336.472 161.521 335.237 162.22 333.94C162.888 332.626 163.443 331.258 163.88 329.85C164.228 328.699 164.483 327.522 164.64 326.33C164.87 324.3 164.8 323 164.9 323Z" fill="#455A64"/>
<path d="M416.9 422.68L286.05 422.61C278.492 422.605 271.246 419.599 265.903 414.253C260.561 408.906 257.56 401.658 257.56 394.1L257.63 66C257.63 62.2556 258.368 58.548 259.801 55.0889C261.235 51.6298 263.336 48.4871 265.985 45.8404C268.633 43.1936 271.777 41.0948 275.237 39.6637C278.698 38.2326 282.406 37.4974 286.15 37.5L417 37.62C424.558 37.6253 431.804 40.6314 437.147 45.9775C442.489 51.3235 445.49 58.5721 445.49 66.13L445.43 394.19C445.427 397.934 444.687 401.641 443.252 405.099C441.817 408.557 439.715 411.698 437.066 414.344C434.416 416.989 431.272 419.087 427.812 420.517C424.352 421.948 420.644 422.683 416.9 422.68Z" fill="#263238"/>
<path d="M416.86 49.22H391.49C389.82 49.2594 388.233 49.9594 387.079 51.1666C385.924 52.3739 385.295 53.9898 385.33 55.66V60.26C385.349 61.0874 385.204 61.9103 384.904 62.6818C384.605 63.4533 384.156 64.1582 383.584 64.7562C383.012 65.3543 382.328 65.8338 381.57 66.1673C380.813 66.5008 379.997 66.6818 379.17 66.7H329.72C328.893 66.6818 328.077 66.5008 327.319 66.1673C326.562 65.8338 325.878 65.3543 325.306 64.7562C324.734 64.1582 324.285 63.4533 323.986 62.6818C323.686 61.9103 323.541 61.0874 323.56 60.26V55.6C323.595 53.9298 322.966 52.3139 321.811 51.1066C320.656 49.8994 319.07 49.1994 317.4 49.16H308.47H286.27C280.966 49.16 275.879 51.2671 272.128 55.0179C268.377 58.7686 266.27 63.8557 266.27 69.16L266.21 389.37C266.21 394.666 268.31 399.745 272.05 403.494C275.79 407.244 280.864 409.357 286.16 409.37L416.76 409.44C422.064 409.44 427.151 407.333 430.902 403.582C434.653 399.831 436.76 394.744 436.76 389.44L436.83 69.23C436.833 63.9291 434.731 58.844 430.986 55.092C427.242 51.34 422.161 49.228 416.86 49.22Z" fill="white"/>
<path d="M436.82 69.19C436.82 63.8857 434.713 58.7986 430.962 55.0479C427.211 51.2971 422.124 49.19 416.82 49.19H391.45C389.78 49.2294 388.193 49.9294 387.039 51.1366C385.884 52.3439 385.255 53.9598 385.29 55.63V60.23C385.309 61.0574 385.164 61.8803 384.864 62.6518C384.565 63.4233 384.116 64.1282 383.544 64.7262C382.972 65.3243 382.288 65.8038 381.53 66.1373C380.773 66.4708 379.957 66.6518 379.13 66.67H329.68C328.853 66.6518 328.037 66.4708 327.279 66.1373C326.522 65.8038 325.838 65.3243 325.266 64.7262C324.694 64.1282 324.245 63.4233 323.945 62.6518C323.646 61.8803 323.501 61.0574 323.52 60.23V55.6C323.555 53.9298 322.926 52.3139 321.771 51.1066C320.616 49.8994 319.03 49.1994 317.36 49.16H308.43H286.23C280.926 49.16 275.838 51.2671 272.088 55.0179C268.337 58.7686 266.23 63.8557 266.23 69.16L266.17 99.78H436.81L436.82 69.19Z" fill="#F5F5F5"/>
<path d="M422.94 80.44C422.94 80.53 419.88 80.64 416.11 80.67C413.833 80.7483 411.553 80.7083 409.28 80.55C413.829 80.28 418.388 80.2433 422.94 80.44Z" fill="#263238"/>
<path d="M423 83.93C420.732 84.1257 418.456 84.2025 416.18 84.16C413.903 84.2383 411.623 84.1983 409.35 84.04C409.35 83.95 412.4 83.85 416.18 83.81C419.96 83.77 423 83.84 423 83.93Z" fill="#263238"/>
<path d="M423 87.43C423 87.52 419.95 87.62 416.18 87.65C413.903 87.7284 411.623 87.6916 409.35 87.54C413.895 87.27 418.451 87.2333 423 87.43Z" fill="#263238"/>
<path d="M304.11 322.24L304.8 320.79C306.015 321.775 307.536 322.306 309.1 322.29C311.34 322.29 312.31 321.42 312.31 320.29C312.31 317.12 304.43 319.12 304.43 314.29C304.43 312.29 305.99 310.57 309.43 310.57C310.906 310.542 312.359 310.945 313.61 311.73L313 313.2C311.933 312.519 310.696 312.152 309.43 312.14C307.22 312.14 306.27 313.07 306.27 314.21C306.27 317.39 314.15 315.4 314.15 320.21C314.15 322.21 312.55 323.91 309.15 323.91C307.326 323.962 305.542 323.37 304.11 322.24Z" fill="#263238"/>
<path d="M315.67 318.8C315.659 318.122 315.788 317.45 316.049 316.825C316.31 316.199 316.697 315.634 317.186 315.165C317.675 314.696 318.255 314.332 318.89 314.098C319.526 313.863 320.203 313.761 320.88 313.8C321.674 313.754 322.467 313.924 323.171 314.294C323.876 314.664 324.467 315.22 324.88 315.9L323.53 316.77C323.241 316.325 322.843 315.962 322.374 315.715C321.905 315.469 321.38 315.346 320.85 315.36C319.963 315.408 319.128 315.793 318.517 316.438C317.907 317.083 317.566 317.937 317.566 318.825C317.566 319.713 317.907 320.567 318.517 321.212C319.128 321.856 319.963 322.242 320.85 322.29C321.38 322.307 321.906 322.186 322.376 321.938C322.845 321.691 323.243 321.327 323.53 320.88L324.88 321.74C324.466 322.42 323.875 322.975 323.171 323.347C322.467 323.718 321.675 323.892 320.88 323.85C320.199 323.887 319.519 323.784 318.88 323.545C318.242 323.307 317.66 322.939 317.17 322.465C316.681 321.99 316.295 321.42 316.037 320.789C315.779 320.159 315.654 319.481 315.67 318.8Z" fill="#263238"/>
<path d="M335 317.78V323.72H333.31V322.42C332.935 322.909 332.441 323.294 331.877 323.541C331.312 323.787 330.694 323.887 330.08 323.83C327.85 323.83 326.43 322.64 326.43 320.93C326.43 319.22 327.43 318.05 330.43 318.05H333.26V317.7C333.26 316.2 332.38 315.32 330.62 315.32C329.49 315.311 328.391 315.684 327.5 316.38L326.75 315.04C327.93 314.182 329.362 313.739 330.82 313.78C333.48 313.78 335 315.08 335 317.78ZM333.22 320.71V319.34H330.47C328.7 319.34 328.2 320.02 328.2 320.86C328.2 321.7 329.02 322.46 330.37 322.46C330.969 322.504 331.566 322.359 332.078 322.045C332.589 321.731 332.989 321.264 333.22 320.71Z" fill="#263238"/>
<path d="M347.66 318.05V323.72H345.87V318.26C345.87 316.33 344.87 315.38 343.22 315.38C342.788 315.347 342.355 315.411 341.951 315.566C341.547 315.721 341.182 315.963 340.883 316.276C340.583 316.588 340.357 316.963 340.22 317.374C340.083 317.784 340.039 318.22 340.09 318.65V323.72H338.31V313.87H340V315.36C340.422 314.832 340.965 314.413 341.583 314.138C342.201 313.863 342.875 313.74 343.55 313.78C346 313.78 347.66 315.16 347.66 318.05Z" fill="#263238"/>
<path d="M360.31 318.05V323.72H358.53V318.26C358.53 316.33 357.53 315.38 355.87 315.38C355.439 315.347 355.006 315.41 354.602 315.565C354.198 315.72 353.834 315.963 353.535 316.276C353.237 316.589 353.011 316.964 352.876 317.375C352.74 317.785 352.697 318.221 352.75 318.65V323.72H351V313.87H352.71V315.36C353.131 314.831 353.674 314.411 354.292 314.136C354.91 313.861 355.585 313.739 356.26 313.78C358.62 313.78 360.31 315.16 360.31 318.05Z" fill="#263238"/>
<path d="M363.31 310.82C363.3 310.578 363.363 310.339 363.49 310.134C363.617 309.928 363.803 309.765 364.024 309.666C364.244 309.567 364.49 309.536 364.728 309.578C364.966 309.62 365.186 309.732 365.36 309.9C365.534 310.068 365.653 310.284 365.703 310.521C365.753 310.758 365.731 311.004 365.639 311.228C365.548 311.452 365.391 311.643 365.19 311.777C364.989 311.911 364.752 311.982 364.51 311.98C364.355 311.984 364.2 311.957 364.055 311.901C363.911 311.844 363.779 311.76 363.667 311.652C363.555 311.544 363.466 311.414 363.405 311.272C363.344 311.129 363.311 310.975 363.31 310.82ZM363.62 313.87H365.41V323.72H363.62V313.87Z" fill="#263238"/>
<path d="M378.16 318.05V323.72H376.37V318.26C376.37 316.33 375.37 315.38 373.71 315.38C373.279 315.347 372.846 315.41 372.442 315.565C372.038 315.72 371.674 315.963 371.375 316.276C371.077 316.589 370.852 316.964 370.716 317.375C370.58 317.785 370.537 318.221 370.59 318.65V323.72H368.81V313.87H370.52V315.36C370.942 314.832 371.485 314.413 372.103 314.138C372.721 313.863 373.395 313.74 374.07 313.78C376.46 313.78 378.16 315.16 378.16 318.05Z" fill="#263238"/>
<path d="M390.94 313.87V322.39C390.94 325.86 389.18 327.44 385.83 327.44C384.14 327.511 382.478 326.991 381.13 325.97L381.98 324.6C383.06 325.448 384.397 325.899 385.77 325.88C388.1 325.88 389.16 324.8 389.16 322.57V321.79C388.717 322.29 388.169 322.685 387.555 322.948C386.942 323.211 386.277 323.335 385.61 323.31C384.966 323.34 384.322 323.238 383.719 323.012C383.115 322.786 382.563 322.44 382.097 321.994C381.631 321.549 381.259 321.014 381.006 320.421C380.752 319.828 380.622 319.19 380.622 318.545C380.622 317.9 380.752 317.262 381.006 316.669C381.259 316.076 381.631 315.541 382.097 315.096C382.563 314.65 383.115 314.304 383.719 314.078C384.322 313.852 384.966 313.75 385.61 313.78C386.3 313.752 386.988 313.884 387.619 314.165C388.25 314.446 388.808 314.869 389.25 315.4V313.87H390.94ZM389.19 318.54C389.228 317.86 389.061 317.184 388.71 316.6C388.36 316.016 387.842 315.551 387.224 315.265C386.605 314.978 385.916 314.885 385.243 314.995C384.571 315.106 383.948 315.416 383.454 315.885C382.96 316.354 382.618 316.96 382.473 317.626C382.328 318.291 382.386 318.985 382.64 319.617C382.894 320.249 383.332 320.791 383.897 321.171C384.462 321.551 385.129 321.753 385.81 321.75C386.248 321.784 386.688 321.725 387.102 321.578C387.516 321.431 387.895 321.199 388.213 320.896C388.532 320.594 388.783 320.228 388.952 319.822C389.12 319.416 389.201 318.979 389.19 318.54Z" fill="#263238"/>
<path d="M393.5 322.55C393.497 322.383 393.528 322.217 393.591 322.062C393.654 321.907 393.748 321.767 393.867 321.649C393.985 321.532 394.126 321.439 394.282 321.377C394.437 321.316 394.603 321.286 394.77 321.29C395.107 321.29 395.43 321.424 395.668 321.662C395.906 321.9 396.04 322.223 396.04 322.56C396.04 322.897 395.906 323.22 395.668 323.458C395.43 323.696 395.107 323.83 394.77 323.83C394.602 323.831 394.436 323.799 394.28 323.735C394.125 323.671 393.984 323.577 393.866 323.457C393.747 323.338 393.654 323.196 393.591 323.041C393.528 322.885 393.497 322.718 393.5 322.55Z" fill="#263238"/>
<path d="M397.72 322.55C397.717 322.383 397.748 322.217 397.811 322.062C397.874 321.907 397.968 321.767 398.086 321.649C398.205 321.532 398.346 321.439 398.501 321.377C398.657 321.316 398.823 321.286 398.99 321.29C399.327 321.29 399.65 321.424 399.888 321.662C400.126 321.9 400.26 322.223 400.26 322.56C400.26 322.897 400.126 323.22 399.888 323.458C399.65 323.696 399.327 323.83 398.99 323.83C398.822 323.831 398.655 323.799 398.5 323.735C398.345 323.671 398.204 323.577 398.085 323.457C397.967 323.338 397.874 323.196 397.811 323.041C397.748 322.885 397.717 322.718 397.72 322.55Z" fill="#263238"/>
<path d="M401.94 322.55C401.937 322.383 401.968 322.217 402.031 322.062C402.094 321.907 402.188 321.767 402.307 321.649C402.425 321.532 402.566 321.439 402.722 321.377C402.877 321.316 403.043 321.286 403.21 321.29C403.547 321.29 403.87 321.424 404.108 321.662C404.346 321.9 404.48 322.223 404.48 322.56C404.48 322.897 404.346 323.22 404.108 323.458C403.87 323.696 403.547 323.83 403.21 323.83C403.042 323.831 402.876 323.799 402.72 323.735C402.565 323.671 402.424 323.577 402.305 323.457C402.187 323.338 402.094 323.196 402.031 323.041C401.968 322.885 401.937 322.718 401.94 322.55Z" fill="#263238"/>
<path d="M402.01 340.32H297.72C288.541 340.32 281.1 347.761 281.1 356.94V360.47C281.1 369.649 288.541 377.09 297.72 377.09H402.01C411.189 377.09 418.63 369.649 418.63 360.47V356.94C418.63 347.761 411.189 340.32 402.01 340.32Z" fill="#EBEBEB"/>
<path d="M404.2 365.62C404.2 365.76 380.61 365.88 351.53 365.88C322.45 365.88 298.85 365.76 298.85 365.62C298.85 365.48 322.43 365.36 351.53 365.36C380.63 365.36 404.2 365.47 404.2 365.62Z" fill="#263238"/>
<path d="M294.14 220.88V227.07H300.33V220.88V214.68H294.14V220.88Z" fill="#263238"/>
<path d="M300.33 183.73H294.14V189.92H300.33V183.73Z" fill="#263238"/>
<path d="M338.59 251.89H332.4V258.08H338.59V251.89Z" fill="#263238"/>
<path d="M300.33 196.11V202.3H294.14V208.49H300.33V214.68H306.52H312.72V220.88H318.91V214.68H325.1V208.49V202.3H318.91V208.49H312.72H306.52V202.3V196.11V189.92H300.33V196.11Z" fill="#263238"/>
<path d="M312.72 183.73H306.52V189.92H312.72H318.91V183.73H312.72Z" fill="#263238"/>
<path d="M340.58 233.5H343.9V227.31H340.58H337.25V233.5H340.58Z" fill="#263238"/>
<path d="M325.1 189.92H318.91V196.11H325.1V189.92Z" fill="#263238"/>
<path d="M368.44 214.68H362.25V220.87H368.44V214.68Z" fill="#263238"/>
<path d="M374.63 146.58H368.44V152.77H374.63V146.58Z" fill="#263238"/>
<path d="M337.48 196.11V189.92H343.67V183.73H337.48V177.54H331.29V183.73H325.1V189.92H331.29V196.11V202.3V208.49V214.68H337.48V208.49V202.3H343.67V196.11H337.48Z" fill="#263238"/>
<path d="M368.44 258.02H374.63V251.83H368.44H362.25V258.02H368.44Z" fill="#263238"/>
<path d="M362.25 146.58H356.06V152.77H362.25V146.58Z" fill="#263238"/>
<path d="M360.7 196.11V189.92H354.51V183.73H348.32V189.92V196.11H342.13V202.3H348.32H354.51V196.11H360.7Z" fill="#263238"/>
<path d="M395.64 183.73H389.45V189.92H395.64V183.73Z" fill="#263238"/>
<path d="M331.47 214.68H325.28V220.87H331.47V214.68Z" fill="#263238"/>
<path d="M356.06 177.54V171.35H362.25V165.15H368.44H374.63V158.96H368.44V152.77H362.25V158.96H356.06V165.15H349.86V171.35H343.67V177.54H349.86H356.06Z" fill="#263238"/>
<path d="M356.06 220.88V214.68H362.25V208.49H356.06H349.86V214.68H343.67V220.88H349.86H356.06Z" fill="#263238"/>
<path d="M374.63 245.64V239.44H368.44H362.25V233.25H356.06V239.44H349.86V245.64H343.67H337.48V251.83H343.67H349.86H356.06V245.64H362.25V251.83H368.44V245.64H374.63Z" fill="#263238"/>
<path d="M349.86 152.77V146.58H343.67H337.48V152.77H331.29V158.96H337.48H343.67V152.77H349.86Z" fill="#263238"/>
<path d="M349.86 158.96H343.67V165.15H349.86V158.96Z" fill="#263238"/>
<path d="M365.34 183.73H359.15V189.92V196.11V202.3H365.34H371.53V196.11H365.34V189.92H371.53V183.73H377.72V177.54H371.53V171.35H365.34V177.54V183.73Z" fill="#263238"/>
<path d="M343.67 165.15H337.48V171.34H343.67V165.15Z" fill="#263238"/>
<path d="M362.25 227.07V233.26H368.44H374.63V227.07H380.82H387.01V220.88H380.82H374.63H368.44V227.07H362.25Z" fill="#263238"/>
<path d="M395.64 202.3H389.45V208.49H395.64V202.3Z" fill="#263238"/>
<path d="M374.63 208.49H368.44V214.68H374.63V208.49Z" fill="#263238"/>
<path d="M390.11 189.92H383.92H377.72V196.11H383.92V202.3H390.11V196.11V189.92Z" fill="#263238"/>
<path d="M387.01 208.49H380.82V214.68H387.01V208.49Z" fill="#263238"/>
<path d="M318.91 245.76H337.49V220.87H312.6V227.07H306.53V233.26H312.6V239.45H306.53V245.64H312.6V245.76H312.72V251.83H306.53V264.21H312.72V258H318.91V245.76ZM332.72 225.63V241.11H317.24V225.63H332.72Z" fill="#263238"/>
<path d="M399.39 220.88H405.58V214.68H399.39H393.2H387.01V220.88H393.2H399.39Z" fill="#263238"/>
<path d="M399.39 196.11H405.58V189.92V183.73H399.39V189.92V196.11Z" fill="#263238"/>
<path d="M350.1 227.31H343.9V233.5V239.69H350.1V233.5V227.31Z" fill="#263238"/>
<path d="M411.77 220.88H405.58V227.07H411.77V220.88Z" fill="#263238"/>
<path d="M411.78 208.49V202.3H405.58V208.49V214.68H411.78V208.49Z" fill="#263238"/>
<path d="M300.33 251.83H294.14V258.02V264.21H300.33V258.02V251.83Z" fill="#263238"/>
<path d="M411.78 177.54V146.54H380.78V177.54H411.78ZM385.46 172.89V151.22H407.13V172.89H385.46Z" fill="#263238"/>
<path d="M402.49 155.87H390.11V168.25H402.49V155.87Z" fill="#263238"/>
<path d="M411.78 233.26H380.78V264.21H411.78V233.26ZM385.46 259.57V237.9H407.13V259.57H385.46Z" fill="#263238"/>
<path d="M402.49 242.54H390.11V254.92H402.49V242.54Z" fill="#263238"/>
<path d="M294.07 146.58V177.58H325V146.58H294.07ZM320.38 151.22V172.89H298.71V151.22H320.38Z" fill="#263238"/>
<path d="M315.73 155.87H303.35V168.25H315.73V155.87Z" fill="#263238"/>
<path d="M285.24 168.16V146.16C285.099 144.141 285.72 142.143 286.98 140.56C287.734 139.727 288.663 139.071 289.7 138.639C290.738 138.207 291.857 138.009 292.98 138.06H316.1C316.283 138.06 316.458 137.987 316.588 137.858C316.717 137.729 316.79 137.553 316.79 137.37C316.79 137.187 316.717 137.011 316.588 136.882C316.458 136.753 316.283 136.68 316.1 136.68H293.26C291.326 136.583 289.407 137.067 287.75 138.07C286.559 138.863 285.581 139.936 284.901 141.194C284.221 142.453 283.86 143.859 283.85 145.29C283.79 148.91 283.85 152.54 283.85 156.15V168.15C283.87 168.32 283.952 168.477 284.08 168.59C284.208 168.704 284.374 168.766 284.545 168.766C284.716 168.766 284.881 168.704 285.009 168.59C285.137 168.477 285.219 168.32 285.24 168.15V168.16Z" fill="#285BBE"/>
<path d="M314.1 274.67H292.1C290.082 274.806 288.086 274.186 286.5 272.93C285.668 272.175 285.013 271.246 284.581 270.209C284.149 269.172 283.95 268.052 284 266.93V243.78C284 243.597 283.927 243.421 283.798 243.292C283.668 243.163 283.493 243.09 283.31 243.09C283.127 243.09 282.951 243.163 282.822 243.292C282.693 243.421 282.62 243.597 282.62 243.78V266.65C282.524 268.584 283.008 270.503 284.01 272.16C284.803 273.35 285.876 274.327 287.135 275.006C288.394 275.684 289.8 276.043 291.23 276.05C294.85 276.11 298.47 276.05 302.09 276.05H314.09C314.273 276.05 314.448 275.977 314.578 275.848C314.707 275.719 314.78 275.543 314.78 275.36C314.78 275.177 314.707 275.002 314.578 274.872C314.448 274.743 314.273 274.67 314.09 274.67H314.1Z" fill="#285BBE"/>
<path d="M419.94 243.56V265.56C420.081 267.579 419.46 269.577 418.2 271.16C417.446 271.993 416.517 272.65 415.48 273.082C414.443 273.514 413.322 273.711 412.2 273.66H389.05C388.867 273.66 388.691 273.733 388.562 273.862C388.433 273.991 388.36 274.167 388.36 274.35C388.36 274.533 388.433 274.708 388.562 274.838C388.691 274.967 388.867 275.04 389.05 275.04H411.92C413.854 275.137 415.773 274.653 417.43 273.65C418.62 272.857 419.597 271.784 420.275 270.525C420.954 269.266 421.312 267.86 421.32 266.43C421.39 262.81 421.32 259.19 421.32 255.57V243.57C421.32 243.387 421.247 243.211 421.118 243.082C420.988 242.953 420.813 242.88 420.63 242.88C420.447 242.88 420.271 242.953 420.142 243.082C420.013 243.211 419.94 243.387 419.94 243.57V243.56Z" fill="#285BBE"/>
<path d="M389.45 138.07H411.45C413.47 137.932 415.468 138.556 417.05 139.82C417.886 140.572 418.543 141.501 418.976 142.538C419.408 143.576 419.604 144.697 419.55 145.82V169C419.55 169.183 419.623 169.358 419.752 169.488C419.882 169.617 420.057 169.69 420.24 169.69C420.423 169.69 420.599 169.617 420.728 169.488C420.857 169.358 420.93 169.183 420.93 169V146.1C421.027 144.163 420.543 142.24 419.54 140.58C418.747 139.39 417.674 138.413 416.415 137.734C415.156 137.056 413.75 136.697 412.32 136.69C408.7 136.63 405.08 136.69 401.46 136.69H389.46C389.277 136.69 389.102 136.763 388.972 136.892C388.843 137.021 388.77 137.197 388.77 137.38C388.77 137.563 388.843 137.738 388.972 137.868C389.102 137.997 389.277 138.07 389.46 138.07H389.45Z" fill="#285BBE"/>
<path d="M308.92 353.688V357.18C308.92 358.116 308.696 358.832 308.248 359.328C307.8 359.816 307.14 360.06 306.268 360.06C305.716 360.06 305.252 359.956 304.876 359.748C304.508 359.532 304.224 359.192 304.024 358.728C303.824 359.184 303.54 359.52 303.172 359.736C302.804 359.952 302.34 360.06 301.78 360.06C300.908 360.06 300.248 359.816 299.8 359.328C299.352 358.832 299.128 358.116 299.128 357.18V353.688H299.98V357.108C299.98 357.852 300.124 358.404 300.412 358.764C300.7 359.116 301.156 359.292 301.78 359.292C302.396 359.292 302.852 359.112 303.148 358.752C303.452 358.392 303.604 357.836 303.604 357.084V353.688H304.456V357.084C304.456 357.836 304.604 358.392 304.9 358.752C305.196 359.112 305.656 359.292 306.28 359.292C306.888 359.292 307.336 359.116 307.624 358.764C307.92 358.404 308.068 357.852 308.068 357.108V353.688H308.92ZM320.967 353.688V357.18C320.967 358.116 320.743 358.832 320.295 359.328C319.847 359.816 319.187 360.06 318.315 360.06C317.763 360.06 317.299 359.956 316.923 359.748C316.555 359.532 316.271 359.192 316.071 358.728C315.871 359.184 315.587 359.52 315.219 359.736C314.851 359.952 314.387 360.06 313.827 360.06C312.955 360.06 312.295 359.816 311.847 359.328C311.399 358.832 311.175 358.116 311.175 357.18V353.688H312.027V357.108C312.027 357.852 312.171 358.404 312.459 358.764C312.747 359.116 313.203 359.292 313.827 359.292C314.443 359.292 314.899 359.112 315.195 358.752C315.499 358.392 315.651 357.836 315.651 357.084V353.688H316.503V357.084C316.503 357.836 316.651 358.392 316.947 358.752C317.243 359.112 317.703 359.292 318.327 359.292C318.935 359.292 319.383 359.116 319.671 358.764C319.967 358.404 320.115 357.852 320.115 357.108V353.688H320.967ZM333.014 353.688V357.18C333.014 358.116 332.79 358.832 332.342 359.328C331.894 359.816 331.234 360.06 330.362 360.06C329.81 360.06 329.346 359.956 328.97 359.748C328.602 359.532 328.318 359.192 328.118 358.728C327.918 359.184 327.634 359.52 327.266 359.736C326.898 359.952 326.434 360.06 325.874 360.06C325.002 360.06 324.342 359.816 323.894 359.328C323.446 358.832 323.222 358.116 323.222 357.18V353.688H324.074V357.108C324.074 357.852 324.218 358.404 324.506 358.764C324.794 359.116 325.25 359.292 325.874 359.292C326.49 359.292 326.946 359.112 327.242 358.752C327.546 358.392 327.698 357.836 327.698 357.084V353.688H328.55V357.084C328.55 357.836 328.698 358.392 328.994 358.752C329.29 359.112 329.75 359.292 330.374 359.292C330.982 359.292 331.43 359.116 331.718 358.764C332.014 358.404 332.162 357.852 332.162 357.108V353.688H333.014ZM335.237 360.06C335.061 360.06 334.909 359.996 334.781 359.868C334.661 359.74 334.601 359.584 334.601 359.4C334.601 359.216 334.661 359.064 334.781 358.944C334.909 358.816 335.061 358.752 335.237 358.752C335.413 358.752 335.565 358.816 335.693 358.944C335.821 359.064 335.885 359.216 335.885 359.4C335.885 359.584 335.821 359.74 335.693 359.868C335.565 359.996 335.413 360.06 335.237 360.06ZM347.252 353.688V357.18C347.252 358.116 347.028 358.832 346.58 359.328C346.132 359.816 345.472 360.06 344.6 360.06C344.048 360.06 343.584 359.956 343.208 359.748C342.84 359.532 342.556 359.192 342.356 358.728C342.156 359.184 341.872 359.52 341.504 359.736C341.136 359.952 340.672 360.06 340.112 360.06C339.24 360.06 338.58 359.816 338.132 359.328C337.684 358.832 337.46 358.116 337.46 357.18V353.688H338.312V357.108C338.312 357.852 338.456 358.404 338.744 358.764C339.032 359.116 339.488 359.292 340.112 359.292C340.728 359.292 341.184 359.112 341.48 358.752C341.784 358.392 341.936 357.836 341.936 357.084V353.688H342.788V357.084C342.788 357.836 342.936 358.392 343.232 358.752C343.528 359.112 343.988 359.292 344.612 359.292C345.22 359.292 345.668 359.116 345.956 358.764C346.252 358.404 346.4 357.852 346.4 357.108V353.688H347.252ZM352.267 359.304C352.659 359.304 353.019 359.236 353.347 359.1C353.683 358.956 353.967 358.748 354.199 358.476L354.679 359.028C354.399 359.364 354.051 359.62 353.635 359.796C353.219 359.972 352.759 360.06 352.255 360.06C351.607 360.06 351.031 359.924 350.527 359.652C350.023 359.372 349.631 358.988 349.351 358.5C349.071 358.012 348.931 357.46 348.931 356.844C348.931 356.228 349.063 355.676 349.327 355.188C349.599 354.7 349.971 354.32 350.443 354.048C350.915 353.776 351.451 353.64 352.051 353.64C352.611 353.64 353.115 353.768 353.563 354.024C354.019 354.28 354.379 354.636 354.643 355.092C354.915 355.548 355.059 356.068 355.075 356.652L349.891 357.66C350.051 358.172 350.339 358.576 350.755 358.872C351.179 359.16 351.683 359.304 352.267 359.304ZM352.051 354.372C351.611 354.372 351.215 354.476 350.863 354.684C350.519 354.884 350.247 355.168 350.047 355.536C349.855 355.896 349.759 356.312 349.759 356.784C349.759 356.904 349.763 356.992 349.771 357.048L354.223 356.184C354.127 355.656 353.883 355.224 353.491 354.888C353.099 354.544 352.619 354.372 352.051 354.372ZM362.569 353.688V360H361.753V358.752C361.497 359.176 361.157 359.5 360.733 359.724C360.317 359.948 359.845 360.06 359.317 360.06C358.725 360.06 358.189 359.924 357.709 359.652C357.229 359.38 356.853 359 356.581 358.512C356.309 358.024 356.173 357.468 356.173 356.844C356.173 356.22 356.309 355.664 356.581 355.176C356.853 354.688 357.229 354.312 357.709 354.048C358.189 353.776 358.725 353.64 359.317 353.64C359.829 353.64 360.289 353.748 360.697 353.964C361.113 354.172 361.453 354.48 361.717 354.888V353.688H362.569ZM359.389 359.304C359.829 359.304 360.225 359.204 360.577 359.004C360.937 358.796 361.217 358.504 361.417 358.128C361.625 357.752 361.729 357.324 361.729 356.844C361.729 356.364 361.625 355.936 361.417 355.56C361.217 355.184 360.937 354.896 360.577 354.696C360.225 354.488 359.829 354.384 359.389 354.384C358.941 354.384 358.537 354.488 358.177 354.696C357.825 354.896 357.545 355.184 357.337 355.56C357.137 355.936 357.037 356.364 357.037 356.844C357.037 357.324 357.137 357.752 357.337 358.128C357.545 358.504 357.825 358.796 358.177 359.004C358.537 359.204 358.941 359.304 359.389 359.304ZM365.758 354.924C365.958 354.5 366.254 354.18 366.646 353.964C367.046 353.748 367.538 353.64 368.122 353.64V354.468L367.918 354.456C367.254 354.456 366.734 354.66 366.358 355.068C365.982 355.476 365.794 356.048 365.794 356.784V360H364.942V353.688H365.758V354.924ZM372.306 359.304C372.698 359.304 373.058 359.236 373.386 359.1C373.722 358.956 374.006 358.748 374.238 358.476L374.718 359.028C374.438 359.364 374.09 359.62 373.674 359.796C373.258 359.972 372.798 360.06 372.294 360.06C371.646 360.06 371.07 359.924 370.566 359.652C370.062 359.372 369.67 358.988 369.39 358.5C369.11 358.012 368.97 357.46 368.97 356.844C368.97 356.228 369.102 355.676 369.366 355.188C369.638 354.7 370.01 354.32 370.482 354.048C370.954 353.776 371.49 353.64 372.09 353.64C372.65 353.64 373.154 353.768 373.602 354.024C374.058 354.28 374.418 354.636 374.682 355.092C374.954 355.548 375.098 356.068 375.114 356.652L369.93 357.66C370.09 358.172 370.378 358.576 370.794 358.872C371.218 359.16 371.722 359.304 372.306 359.304ZM372.09 354.372C371.65 354.372 371.254 354.476 370.902 354.684C370.558 354.884 370.286 355.168 370.086 355.536C369.894 355.896 369.798 356.312 369.798 356.784C369.798 356.904 369.802 356.992 369.81 357.048L374.262 356.184C374.166 355.656 373.922 355.224 373.53 354.888C373.138 354.544 372.658 354.372 372.09 354.372ZM376.932 360.06C376.756 360.06 376.604 359.996 376.476 359.868C376.356 359.74 376.296 359.584 376.296 359.4C376.296 359.216 376.356 359.064 376.476 358.944C376.604 358.816 376.756 358.752 376.932 358.752C377.108 358.752 377.26 358.816 377.388 358.944C377.516 359.064 377.58 359.216 377.58 359.4C377.58 359.584 377.516 359.74 377.388 359.868C377.26 359.996 377.108 360.06 376.932 360.06ZM381.831 360.06C381.207 360.06 380.647 359.924 380.151 359.652C379.663 359.38 379.279 359 378.999 358.512C378.719 358.016 378.579 357.46 378.579 356.844C378.579 356.228 378.719 355.676 378.999 355.188C379.279 354.7 379.663 354.32 380.151 354.048C380.647 353.776 381.207 353.64 381.831 353.64C382.375 353.64 382.859 353.748 383.283 353.964C383.715 354.172 384.055 354.48 384.303 354.888L383.667 355.32C383.459 355.008 383.195 354.776 382.875 354.624C382.555 354.464 382.207 354.384 381.831 354.384C381.375 354.384 380.963 354.488 380.595 354.696C380.235 354.896 379.951 355.184 379.743 355.56C379.543 355.936 379.443 356.364 379.443 356.844C379.443 357.332 379.543 357.764 379.743 358.14C379.951 358.508 380.235 358.796 380.595 359.004C380.963 359.204 381.375 359.304 381.831 359.304C382.207 359.304 382.555 359.228 382.875 359.076C383.195 358.924 383.459 358.692 383.667 358.38L384.303 358.812C384.055 359.22 383.715 359.532 383.283 359.748C382.851 359.956 382.367 360.06 381.831 360.06ZM388.452 360.06C387.844 360.06 387.296 359.924 386.808 359.652C386.32 359.372 385.936 358.988 385.656 358.5C385.376 358.012 385.236 357.46 385.236 356.844C385.236 356.228 385.376 355.676 385.656 355.188C385.936 354.7 386.32 354.32 386.808 354.048C387.296 353.776 387.844 353.64 388.452 353.64C389.06 353.64 389.608 353.776 390.096 354.048C390.584 354.32 390.964 354.7 391.236 355.188C391.516 355.676 391.656 356.228 391.656 356.844C391.656 357.46 391.516 358.012 391.236 358.5C390.964 358.988 390.584 359.372 390.096 359.652C389.608 359.924 389.06 360.06 388.452 360.06ZM388.452 359.304C388.9 359.304 389.3 359.204 389.652 359.004C390.012 358.796 390.292 358.504 390.492 358.128C390.692 357.752 390.792 357.324 390.792 356.844C390.792 356.364 390.692 355.936 390.492 355.56C390.292 355.184 390.012 354.896 389.652 354.696C389.3 354.488 388.9 354.384 388.452 354.384C388.004 354.384 387.6 354.488 387.24 354.696C386.888 354.896 386.608 355.184 386.4 355.56C386.2 355.936 386.1 356.364 386.1 356.844C386.1 357.324 386.2 357.752 386.4 358.128C386.608 358.504 386.888 358.796 387.24 359.004C387.6 359.204 388.004 359.304 388.452 359.304ZM401.267 353.64C402.059 353.64 402.679 353.868 403.127 354.324C403.583 354.78 403.811 355.452 403.811 356.34V360H402.959V356.424C402.959 355.768 402.799 355.268 402.479 354.924C402.167 354.58 401.723 354.408 401.147 354.408C400.491 354.408 399.975 354.612 399.599 355.02C399.223 355.42 399.035 355.976 399.035 356.688V360H398.183V356.424C398.183 355.768 398.023 355.268 397.703 354.924C397.391 354.58 396.943 354.408 396.359 354.408C395.711 354.408 395.195 354.612 394.811 355.02C394.435 355.42 394.247 355.976 394.247 356.688V360H393.395V353.688H394.211V354.84C394.435 354.456 394.747 354.16 395.147 353.952C395.547 353.744 396.007 353.64 396.527 353.64C397.055 353.64 397.511 353.752 397.895 353.976C398.287 354.2 398.579 354.532 398.771 354.972C399.003 354.556 399.335 354.232 399.767 354C400.207 353.76 400.707 353.64 401.267 353.64Z" fill="black"/>
</svg>
