<svg width="500" height="450" viewBox="0 0 500 450" fill="none" xmlns="http://www.w3.org/2000/svg">
<g clip-path="url(#clip0_56_2273)">
<path d="M424.439 103.531C424.961 103.608 425.468 103.777 425.939 104.029C427.045 104.602 427.972 105.501 428.609 106.619C429.246 107.737 429.565 109.025 429.529 110.331C429.498 111.562 429.153 112.761 428.529 113.8C428.198 114.365 427.786 114.873 427.309 115.306C426.816 115.752 426.259 116.11 425.659 116.367C424.4 116.948 423.001 117.096 421.659 116.791C420.305 116.466 419.086 115.689 418.179 114.574C417.757 114.053 417.42 113.461 417.179 112.824C416.92 112.219 416.754 111.574 416.689 110.914C416.544 109.69 416.713 108.448 417.179 107.318C417.667 106.119 418.474 105.097 419.5 104.376C420.526 103.654 421.728 103.265 422.959 103.255C423.487 103.236 424.014 103.311 424.519 103.478C424.519 103.531 423.959 103.361 422.969 103.404C421.559 103.468 420.211 104.032 419.139 105.005C418.402 105.666 417.823 106.502 417.449 107.445C417.024 108.527 416.876 109.709 417.019 110.872C417.092 111.495 417.254 112.103 417.499 112.675C417.746 113.28 418.084 113.839 418.499 114.33C419.35 115.396 420.505 116.14 421.789 116.452C423.066 116.752 424.4 116.614 425.599 116.059C426.171 115.8 426.698 115.442 427.159 114.998C427.616 114.595 428.008 114.114 428.319 113.577C428.924 112.596 429.27 111.46 429.319 110.288C429.365 109.03 429.074 107.785 428.479 106.696C427.884 105.606 427.01 104.719 425.959 104.136C424.999 103.679 424.429 103.584 424.439 103.531Z" fill="#E0E0E0"/>
<path d="M429.518 96.3384C429.514 96.2607 429.514 96.1827 429.518 96.105C429.518 95.9247 429.518 95.6913 429.518 95.3837C429.518 94.7259 429.518 93.7818 429.518 92.5513L429.568 92.6149L423.798 91.2783L423.898 91.2253L422.378 94.6517V94.7153H422.308C421.031 94.7742 419.766 95.0132 418.548 95.4261H418.478H418.428L415.798 92.7422H415.998L410.998 96.1156V95.9247L412.198 99.489V99.5739L412.138 99.6481C411.276 100.646 410.54 101.758 409.948 102.958V103.043H409.848H406.288L406.438 102.905C406.038 104.825 405.598 106.894 405.158 109.026L405.068 108.824L408.288 110.437H408.378V110.543C408.43 111.893 408.649 113.231 409.028 114.521V114.627L408.948 114.712L406.428 117.396V117.162L409.588 122.466L409.378 122.381L412.738 121.108H412.838L412.928 121.183C413.859 122.101 414.901 122.883 416.028 123.506C416.078 123.58 415.938 123.336 416.128 123.676V127.452L415.988 127.261L421.748 128.64L421.548 128.746C422.058 127.59 422.548 126.455 423.078 125.32L423.128 125.224H423.238C424.508 125.173 425.766 124.941 426.978 124.535H427.078L427.158 124.62L429.688 127.293H429.468L434.468 123.951L434.398 124.153L433.198 120.589V120.493L433.268 120.408C434.136 119.417 434.876 118.307 435.468 117.109V117.024H439.128L438.988 117.152C439.448 115.03 439.878 112.972 440.288 111.031L440.368 111.2L437.148 109.567H437.078V109.482C437.035 108.128 436.82 106.786 436.438 105.493V105.419V105.366C437.358 104.39 438.178 103.509 438.968 102.682V102.831L435.828 97.5265H435.928L432.558 98.7677C431.851 98.072 431.084 97.447 430.268 96.9006L429.648 96.5081L429.448 96.3702L429.668 96.4763L430.298 96.837C431.135 97.367 431.919 97.9854 432.638 98.6828H432.578L435.928 97.3886H435.988V97.4522L439.168 102.756L439.218 102.841L439.158 102.905L436.758 105.472V105.345C437.155 106.66 437.38 108.027 437.428 109.408L437.358 109.291L440.588 110.903L440.688 110.956V111.073C440.288 113.004 439.858 115.03 439.408 117.183V117.311H435.698L435.838 117.226C435.234 118.452 434.481 119.59 433.598 120.61V120.43C433.988 121.596 434.398 122.785 434.798 123.994L434.848 124.132L434.728 124.206L429.728 127.569L429.608 127.643L429.508 127.537L426.998 124.896H427.178C425.934 125.314 424.643 125.554 423.338 125.606L423.488 125.5C422.988 126.625 422.488 127.77 421.958 128.916L421.898 129.054H421.758L415.998 127.749H415.858V123.813C416.048 124.153 415.908 123.909 415.958 123.983C414.803 123.346 413.733 122.547 412.778 121.607H412.958L409.598 122.869L409.458 122.922L409.388 122.795L406.228 117.491L406.148 117.364L406.248 117.258L408.768 114.574V114.765C408.377 113.444 408.152 112.074 408.098 110.691L408.198 110.85L404.998 109.174L404.878 109.111V108.973L406.178 102.862V102.724H409.868L409.728 102.809C410.336 101.589 411.093 100.458 411.978 99.4466V99.6057L410.788 96.0307V95.9247L410.888 95.8504L415.888 92.5088H415.978L416.048 92.5831L418.578 95.267H418.458C419.697 94.856 420.982 94.624 422.278 94.5774L422.188 94.6411C422.748 93.4105 423.268 92.2542 423.728 91.2253V91.151H423.798L429.548 92.5619H429.598C429.598 93.7818 429.598 94.6835 429.598 95.373C429.598 95.6807 429.598 95.9247 429.598 96.0944C429.576 96.1773 429.549 96.2587 429.518 96.3384Z" fill="#E0E0E0"/>
<path d="M464.458 401.917C464.458 401.917 464.458 401.514 464.458 400.761C464.458 400.007 464.458 398.872 464.458 397.409C464.458 394.47 464.459 390.153 464.409 384.615C464.409 373.551 464.358 357.585 464.328 338.003L464.488 338.173L360.358 338.226L360.578 338.003C360.578 360.619 360.578 382.228 360.578 401.917L360.379 401.705L435.279 401.8L456.789 401.864H462.529H463.999H464.509H462.559H456.868L435.398 401.928L360.398 402.023H360.208V401.821C360.208 382.133 360.208 360.524 360.208 337.907V337.791H360.428H464.559H464.729V337.971C464.729 357.607 464.668 373.593 464.648 384.647C464.648 390.174 464.648 394.47 464.648 397.377C464.648 398.819 464.648 399.933 464.648 400.686C464.648 401.44 464.458 401.917 464.458 401.917Z" fill="#E0E0E0"/>
<path d="M464.5 345.736C464.5 345.863 441.21 345.959 412.5 345.959C383.79 345.959 360.5 345.863 360.5 345.736C360.5 345.609 383.78 345.513 412.5 345.513C441.22 345.513 464.5 345.609 464.5 345.736Z" fill="#E0E0E0"/>
<path d="M401.51 356.281H369.34V390.407H401.51V356.281Z" fill="#F5F5F5"/>
<path d="M456.91 361.903C456.754 361.925 456.596 361.925 456.44 361.903H455.08L450.08 361.967L433.62 362.041L417.16 361.967L412.16 361.903H410.8C410.644 361.925 410.486 361.925 410.33 361.903C410.486 361.885 410.644 361.885 410.8 361.903H412.16L417.16 361.829L433.62 361.765L450.08 361.829L455.08 361.903H456.44C456.596 361.885 456.754 361.885 456.91 361.903Z" fill="#E0E0E0"/>
<path d="M457.941 369.53C457.781 369.549 457.62 369.549 457.461 369.53H456.071L450.971 369.604L434.151 369.668L417.321 369.604L412.221 369.53H410.831C410.671 369.549 410.51 369.549 410.351 369.53C410.508 369.489 410.669 369.472 410.831 369.477H412.221L417.321 369.413L434.151 369.339L450.971 369.413L456.071 369.477H457.461C457.622 369.472 457.784 369.489 457.941 369.53Z" fill="#E0E0E0"/>
<path d="M457.941 377.147C457.781 377.17 457.62 377.17 457.461 377.147H456.071L450.971 377.21L434.151 377.285L417.321 377.21L412.221 377.147H410.831C410.671 377.17 410.51 377.17 410.351 377.147C410.51 377.128 410.671 377.128 410.831 377.147H412.221L417.321 377.073L434.151 377.009L451.001 377.041L456.101 377.115H457.491C457.641 377.109 457.792 377.12 457.941 377.147Z" fill="#E0E0E0"/>
<path d="M457.941 384.774C457.781 384.793 457.62 384.793 457.461 384.774H456.071L450.971 384.848L434.151 384.912L417.321 384.848L412.221 384.774H410.831C410.671 384.793 410.51 384.793 410.351 384.774C410.508 384.733 410.669 384.716 410.831 384.721H412.221L417.321 384.657L434.151 384.583L450.971 384.657L456.071 384.721H457.461C457.622 384.716 457.784 384.733 457.941 384.774Z" fill="#E0E0E0"/>
<path d="M193.942 85.3953C210.843 67.4655 210.843 38.3956 193.942 20.4658C177.04 2.53603 149.636 2.53603 132.734 20.4658C115.833 38.3956 115.833 67.4655 132.734 85.3953C149.636 103.325 177.04 103.325 193.942 85.3953Z" fill="#F5F5F5"/>
<path d="M182.999 54.3408C182.492 54.4206 181.981 54.4561 181.469 54.4468L177.259 54.5317C173.689 54.5317 168.719 54.6272 163.109 54.6272H162.829V51.3705C162.829 44.7192 162.829 38.7043 162.909 34.3974C162.909 32.2758 162.979 30.5573 162.999 29.2313C162.983 28.5997 163.02 27.9678 163.109 27.343C163.191 27.9685 163.227 28.5998 163.219 29.2313C163.219 30.5573 163.219 32.297 163.309 34.3974C163.309 38.7574 163.389 44.7722 163.389 51.3705C163.389 52.4313 163.389 53.3966 163.389 54.3514L163.119 54.0543C168.729 54.0543 173.699 54.0543 177.269 54.1498L181.479 54.2453C181.987 54.2263 182.496 54.2583 182.999 54.3408Z" fill="#E0E0E0"/>
<path d="M163.23 14.5602C163.505 15.8216 163.599 17.1197 163.51 18.4109C163.598 19.7057 163.504 21.0072 163.23 22.2723C162.955 21.0072 162.861 19.7057 162.95 18.4109C162.86 17.1197 162.955 15.8216 163.23 14.5602Z" fill="#E0E0E0"/>
<path d="M182.999 20.7449C182.365 21.8361 181.576 22.8166 180.659 23.6515C179.875 24.621 178.954 25.455 177.929 26.1232C178.564 25.0364 179.354 24.0597 180.269 23.2272C181.057 22.2599 181.977 21.4232 182.999 20.7449Z" fill="#E0E0E0"/>
<path d="M194.479 34.111C193.563 34.9441 192.556 35.6565 191.479 36.2326C190.504 36.9733 189.45 37.5893 188.339 38.0678C189.142 37.1035 190.109 36.3081 191.189 35.7234C192.176 34.9637 193.294 34.4159 194.479 34.111Z" fill="#E0E0E0"/>
<path d="M201.24 53.9377C199.589 54.2398 197.912 54.3395 196.24 54.2347C194.568 54.3395 192.89 54.2398 191.24 53.9377C192.891 53.642 194.568 53.5423 196.24 53.6407C197.912 53.5423 199.589 53.642 201.24 53.9377Z" fill="#E0E0E0"/>
<path d="M132.49 53.2376C130.946 53.5303 129.375 53.63 127.81 53.5346C126.244 53.6293 124.674 53.5296 123.13 53.2376C124.674 52.9455 126.244 52.8458 127.81 52.9405C129.375 52.8451 130.946 52.9448 132.49 53.2376Z" fill="#E0E0E0"/>
<path d="M137.359 68.0042C136.303 69.2759 135.115 70.4181 133.819 71.4094C132.631 72.5415 131.326 73.5273 129.929 74.3478C130.98 73.0698 132.168 71.9269 133.469 70.9426C134.649 69.7997 135.955 68.813 137.359 68.0042Z" fill="#E0E0E0"/>
<path d="M149.351 79.4185C148.652 80.9545 147.846 82.4331 146.941 83.8421C146.191 85.3519 145.339 86.802 144.391 88.1808C144.847 86.5265 145.545 84.9586 146.461 83.5344C147.216 82.0114 148.192 80.6228 149.351 79.4185Z" fill="#E0E0E0"/>
<path d="M163.229 94.1427C162.95 92.3912 162.856 90.6122 162.949 88.8386C162.856 87.0651 162.95 85.2861 163.229 83.5345C163.507 85.2861 163.601 87.0651 163.509 88.8386C163.601 90.6122 163.507 92.3912 163.229 94.1427Z" fill="#E0E0E0"/>
<path d="M184.601 87.1306C183.086 86.3994 181.702 85.3944 180.511 84.1603C179.203 83.074 178.077 81.7613 177.181 80.2777C178.473 81.3509 179.708 82.4983 180.881 83.7147C182.178 84.7819 183.42 85.9222 184.601 87.1306Z" fill="#E0E0E0"/>
<path d="M194.631 75.6739C193.417 74.8075 192.311 73.7809 191.341 72.6187C190.245 71.5895 189.278 70.4168 188.461 69.1287C189.672 69.9998 190.774 71.0299 191.741 72.1944C192.839 73.2203 193.81 74.3895 194.631 75.6739Z" fill="#E0E0E0"/>
<path d="M136.9 39.0969C135.817 38.3675 134.84 37.474 134 36.4449C133.03 35.5541 132.188 34.5177 131.5 33.3685C132.584 34.098 133.561 34.9914 134.4 36.0206C135.371 36.9114 136.213 37.9478 136.9 39.0969Z" fill="#E0E0E0"/>
<path d="M149.279 25.264C148.215 24.5743 147.254 23.7198 146.429 22.7286C145.479 21.8449 144.66 20.815 143.999 19.6735C145.062 20.3811 146.019 21.2536 146.839 22.2619C147.789 23.1276 148.611 24.1395 149.279 25.264Z" fill="#E0E0E0"/>
<g opacity="0.8">
<path opacity="0.8" fill-rule="evenodd" clip-rule="evenodd" d="M398.739 29.4011C401.009 30.6563 403.114 32.222 404.999 34.0581L411.649 31.5439L417.899 42.0142L412.899 47.3183C413.666 49.8967 414.104 52.5726 414.199 55.2744L420.579 58.4568L417.999 70.5926H410.999C409.823 72.9927 408.35 75.2153 406.619 77.2014L408.989 84.2559L399.119 90.8859L394.119 85.5819C391.689 86.399 389.167 86.8663 386.619 86.9715L383.619 93.7289L372.219 91.0238V83.5345C369.954 82.287 367.859 80.7205 365.989 78.8775L359.339 81.3917L352.999 70.9532L357.999 65.6492C357.224 63.0859 356.774 60.4247 356.659 57.7355L350.279 54.553L352.839 42.4597H359.899C361.075 40.057 362.552 37.8339 364.289 35.8509L361.919 28.7964L371.789 22.1663L376.789 27.4704C379.223 26.6543 381.749 26.1869 384.299 26.0808L387.299 19.3234L398.699 22.039V29.4648L398.739 29.4011ZM388.689 43.6372C386.273 43.0629 383.749 43.2612 381.439 44.2071C379.128 45.153 377.134 46.8042 375.707 48.9519C374.281 51.0997 373.486 53.6478 373.424 56.2743C373.362 58.9008 374.035 61.488 375.358 63.709C376.681 65.9299 378.595 67.6851 380.858 68.7528C383.121 69.8204 385.632 70.1527 388.073 69.7076C390.514 69.2625 392.775 68.06 394.573 66.2521C396.37 64.4441 397.621 62.1117 398.169 59.5495C398.536 57.8441 398.581 56.0789 398.302 54.355C398.023 52.6311 397.426 50.9826 396.546 49.5041C395.665 48.0257 394.517 46.7463 393.169 45.7395C391.821 44.7327 390.298 44.0182 388.689 43.6372Z" fill="#EBEBEB"/>
</g>
<path d="M63.6997 135.79H137.7C137.7 135.79 131.16 123.167 112.12 125.002C93.9397 126.763 93.0097 118.796 83.7597 117.809C74.5097 116.823 66.7797 124.355 63.6997 135.79Z" fill="#F5F5F5"/>
<path d="M223.799 278.459H283.669C283.669 278.459 278.379 268.243 262.969 269.729C248.249 271.15 247.499 264.7 239.969 263.905C232.439 263.109 226.289 269.198 223.799 278.459Z" fill="#F5F5F5"/>
<path d="M480.151 435.195C480.151 435.343 377.151 435.47 250.011 435.47C122.871 435.47 19.8506 435.385 19.8506 435.195C19.8506 435.004 122.851 434.919 250.011 434.919C377.171 434.919 480.151 435.046 480.151 435.195Z" fill="#263238"/>
<path d="M455.191 117.279H309.911V220.475H455.191V117.279Z" fill="white"/>
<path d="M455.189 220.464C455.189 220.464 455.189 219.817 455.189 218.587V213.145C455.189 208.371 455.189 201.359 455.129 192.395C455.129 174.457 455.069 148.69 455.019 117.279L455.229 117.491L309.959 117.555L310.219 117.279C310.219 154.036 310.219 188.99 310.219 220.464L309.979 220.21L414.649 220.337L444.549 220.401H452.499H454.559H452.559H444.649L414.799 220.464L309.979 220.592H309.739V220.337C309.739 188.863 309.739 153.909 309.739 117.152V116.865H310.009L455.279 116.929H455.489V117.152C455.489 148.626 455.409 174.436 455.379 192.395C455.379 201.349 455.379 208.308 455.329 213.102C455.329 215.468 455.329 217.282 455.329 218.513C455.329 219.743 455.189 220.464 455.189 220.464Z" fill="#285BBE"/>
<path d="M309.911 126.487C309.911 126.328 342.411 126.211 382.491 126.211C422.571 126.211 455.071 126.328 455.071 126.487C455.071 126.646 422.581 126.763 382.491 126.763C342.401 126.763 309.911 126.688 309.911 126.487Z" fill="#285BBE"/>
<g opacity="0.3">
<path opacity="0.3" d="M315.64 121.84C315.64 122.086 315.571 122.327 315.442 122.531C315.313 122.735 315.13 122.894 314.915 122.988C314.701 123.082 314.465 123.106 314.238 123.057C314.011 123.008 313.802 122.889 313.639 122.714C313.476 122.54 313.365 122.317 313.321 122.076C313.277 121.835 313.302 121.585 313.392 121.358C313.482 121.131 313.633 120.938 313.827 120.803C314.021 120.668 314.248 120.597 314.48 120.599C314.633 120.599 314.785 120.631 314.926 120.694C315.067 120.756 315.196 120.848 315.304 120.963C315.411 121.079 315.497 121.216 315.554 121.366C315.612 121.517 315.641 121.678 315.64 121.84Z" fill="#285BBE"/>
</g>
<g opacity="0.3">
<path opacity="0.3" d="M319.63 121.84C319.63 122.086 319.561 122.327 319.432 122.531C319.303 122.735 319.119 122.894 318.905 122.988C318.691 123.082 318.455 123.106 318.228 123.057C318 123.008 317.792 122.889 317.629 122.714C317.465 122.54 317.355 122.317 317.311 122.076C317.267 121.835 317.291 121.585 317.382 121.358C317.472 121.131 317.623 120.938 317.817 120.803C318.011 120.668 318.238 120.597 318.47 120.599C318.623 120.599 318.774 120.631 318.916 120.694C319.057 120.756 319.185 120.848 319.293 120.963C319.401 121.079 319.486 121.216 319.544 121.366C319.602 121.517 319.631 121.678 319.63 121.84Z" fill="#285BBE"/>
</g>
<g opacity="0.3">
<path opacity="0.3" d="M323.559 121.84C323.559 122.086 323.49 122.327 323.361 122.531C323.232 122.735 323.049 122.894 322.835 122.988C322.62 123.082 322.385 123.106 322.157 123.057C321.93 123.008 321.722 122.889 321.558 122.714C321.395 122.54 321.285 122.317 321.241 122.076C321.197 121.835 321.221 121.585 321.311 121.358C321.401 121.131 321.553 120.938 321.747 120.803C321.94 120.668 322.167 120.597 322.399 120.599C322.552 120.599 322.704 120.631 322.845 120.694C322.987 120.756 323.115 120.848 323.223 120.963C323.331 121.079 323.416 121.216 323.474 121.366C323.532 121.517 323.561 121.678 323.559 121.84Z" fill="#285BBE"/>
</g>
<path d="M361.151 137.244H322.401V178.35H361.151V137.244Z" fill="#285BBE"/>
<path d="M435.271 148.86C435.271 149.019 420.151 149.135 401.511 149.135C382.871 149.135 367.751 149.019 367.751 148.86C367.751 148.7 382.871 148.584 401.511 148.584C420.151 148.584 435.271 148.711 435.271 148.86Z" fill="#285BBE"/>
<path d="M435.271 156.508C435.271 156.656 420.151 156.784 401.511 156.784C382.871 156.784 367.751 156.656 367.751 156.508C367.751 156.359 382.871 156.232 401.511 156.232C420.151 156.232 435.271 156.391 435.271 156.508Z" fill="#285BBE"/>
<path d="M435.271 164.146C435.271 164.294 420.151 164.422 401.511 164.422C382.871 164.422 367.751 164.294 367.751 164.146C367.751 163.997 382.871 163.87 401.511 163.87C420.151 163.87 435.271 163.987 435.271 164.146Z" fill="#285BBE"/>
<path d="M407.661 171.784C407.142 171.87 406.617 171.905 406.091 171.89L401.811 171.975C398.201 172.028 393.211 172.059 387.711 172.059C382.211 172.059 377.211 172.059 373.601 171.975L369.321 171.89C368.796 171.905 368.271 171.87 367.751 171.784C368.271 171.697 368.796 171.662 369.321 171.678L373.601 171.593C377.211 171.54 382.201 171.508 387.711 171.508C393.221 171.508 398.201 171.508 401.811 171.593L406.091 171.678C406.617 171.662 407.142 171.697 407.661 171.784Z" fill="#285BBE"/>
<g opacity="0.3">
<path opacity="0.3" d="M343.029 192.215H324.819V211.532H343.029V192.215Z" fill="#285BBE"/>
</g>
<path d="M376.061 192.215H357.851V211.532H376.061V192.215Z" fill="#285BBE"/>
<path d="M409.09 192.215H390.88V211.532H409.09V192.215Z" fill="#285BBE"/>
<path d="M442.119 192.215H423.909V211.532H442.119V192.215Z" fill="#285BBE"/>
<g opacity="0.3">
<path opacity="0.3" d="M361.151 137.244H322.401V178.35H361.151V137.244Z" fill="white"/>
</g>
<g opacity="0.3">
<path opacity="0.3" d="M376.061 192.215H357.851V211.532H376.061V192.215Z" fill="white"/>
</g>
<g opacity="0.3">
<path opacity="0.3" d="M409.09 192.215H390.88V211.532H409.09V192.215Z" fill="white"/>
</g>
<g opacity="0.3">
<path opacity="0.3" d="M442.119 192.215H423.909V211.532H442.119V192.215Z" fill="white"/>
</g>
<path d="M173.63 154.45H44.2104V210.217H173.63V154.45Z" fill="white"/>
<path d="M173.63 210.217C173.63 210.217 173.63 209.877 173.63 209.22C173.63 208.562 173.63 207.597 173.63 206.324C173.63 203.778 173.63 200.044 173.63 195.228C173.63 185.606 173.63 171.678 173.55 154.45L173.69 154.598L44.28 154.662L44.49 154.45C44.49 173.979 44.49 192.83 44.49 210.217L44.29 210.005L137.08 210.1L164 210.164H171.21H173.07H171.25H164.09L137.22 210.217L44.29 210.312H44V154.27H44.21L173.62 154.344H173.77V154.492C173.77 171.762 173.71 185.712 173.69 195.366C173.69 200.16 173.69 203.852 173.69 206.43C173.69 207.682 173.69 208.636 173.69 209.294C173.69 209.952 173.63 210.217 173.63 210.217Z" fill="#285BBE"/>
<path d="M44.3403 161.971C44.3403 161.854 73.2703 161.748 108.94 161.748C144.61 161.748 173.56 161.854 173.56 161.971C173.56 162.088 144.63 162.183 108.94 162.183C73.2503 162.183 44.3403 162.088 44.3403 161.971Z" fill="#285BBE"/>
<g opacity="0.3">
<path opacity="0.3" d="M49.7604 158.608C49.7604 158.805 49.7052 158.998 49.602 159.162C49.4987 159.326 49.3519 159.454 49.1801 159.53C49.0083 159.605 48.8193 159.625 48.637 159.586C48.4546 159.548 48.2872 159.453 48.1557 159.313C48.0242 159.174 47.9347 158.996 47.8984 158.803C47.8622 158.609 47.8808 158.409 47.9519 158.227C48.0231 158.044 48.1436 157.889 48.2981 157.779C48.4527 157.67 48.6345 157.611 48.8204 157.611C49.0697 157.611 49.3088 157.716 49.4851 157.903C49.6613 158.09 49.7604 158.344 49.7604 158.608Z" fill="#285BBE"/>
</g>
<g opacity="0.3">
<path opacity="0.3" d="M52.9991 158.608C52.9991 158.805 52.944 158.998 52.8407 159.162C52.7374 159.326 52.5906 159.454 52.4189 159.53C52.2471 159.605 52.0581 159.625 51.8758 159.586C51.6934 159.548 51.5259 159.453 51.3945 159.313C51.263 159.174 51.1735 158.996 51.1372 158.803C51.1009 158.609 51.1195 158.409 51.1907 158.227C51.2618 158.044 51.3823 157.889 51.5369 157.779C51.6915 157.67 51.8732 157.611 52.0591 157.611C52.3084 157.611 52.5475 157.716 52.7238 157.903C52.9001 158.09 52.9991 158.344 52.9991 158.608Z" fill="#285BBE"/>
</g>
<g opacity="0.3">
<path opacity="0.3" d="M56.1495 158.608C56.1495 158.805 56.0944 158.998 55.9911 159.162C55.8878 159.326 55.741 159.454 55.5693 159.53C55.3975 159.605 55.2085 159.625 55.0261 159.586C54.8438 159.548 54.6763 159.453 54.5448 159.313C54.4134 159.174 54.3239 158.996 54.2876 158.803C54.2513 158.609 54.2699 158.409 54.3411 158.227C54.4122 158.044 54.5327 157.889 54.6873 157.779C54.8419 157.67 55.0236 157.611 55.2095 157.611C55.4588 157.611 55.6979 157.716 55.8742 157.903C56.0505 158.09 56.1495 158.344 56.1495 158.608Z" fill="#285BBE"/>
</g>
<path d="M86.4695 171.03H55.2095V204.191H86.4695V171.03Z" fill="#285BBE"/>
<path d="M164.68 179.92C164.68 180.037 148.59 180.143 128.75 180.143C108.91 180.143 92.8203 180.037 92.8203 179.92C92.8203 179.803 108.91 179.708 128.75 179.708C148.59 179.708 164.68 179.803 164.68 179.92Z" fill="#285BBE"/>
<path d="M164.68 186.677C164.68 186.794 148.59 186.89 128.75 186.89C108.91 186.89 92.8203 186.794 92.8203 186.677C92.8203 186.561 108.91 186.455 128.75 186.455C148.59 186.455 164.68 186.561 164.68 186.677Z" fill="#285BBE"/>
<path d="M139.079 193.435C138.922 193.446 138.765 193.446 138.609 193.435H137.259L132.309 193.499L115.949 193.562L99.5988 193.499L94.5988 193.435H93.2488C93.0923 193.445 92.9353 193.445 92.7788 193.435C92.9347 193.411 93.093 193.411 93.2488 193.435H94.5988L99.5988 193.361L115.949 193.297L132.309 193.361L137.259 193.435H138.609C138.765 193.41 138.923 193.41 139.079 193.435Z" fill="#285BBE"/>
<g opacity="0.3">
<path opacity="0.3" d="M86.4695 171.03H55.2095V204.191H86.4695V171.03Z" fill="#F5F5F5"/>
</g>
<path d="M268.73 84.3726C266.56 82.8344 263.58 83.7679 261.41 85.3061C259.24 86.8443 257.41 88.9447 254.96 89.9418C250.4 91.8195 244.41 89.5918 240.87 93.1243C238.62 95.3944 238.39 99.1285 236.67 101.876C233.77 106.501 226.81 108.241 226.22 113.757C225.87 116.94 228.27 120.058 231.22 120.96C232.71 121.331 234.258 121.358 235.759 121.04C237.26 120.721 238.679 120.065 239.92 119.114C242.92 116.993 245.23 113.81 248.61 112.601C251.99 111.392 256.34 112.399 259.07 109.843C261.8 107.286 261.39 102.566 263.35 99.2982C264.529 97.6561 265.927 96.2052 267.5 94.9913C268.97 93.6441 270.37 91.9786 270.62 89.9312C270.87 87.8838 270.08 84.3938 268.75 84.3195" fill="#F5F5F5"/>
<path d="M212.38 309.743C212.51 309.669 212.91 310.093 213.29 310.698C213.67 311.302 213.88 311.875 213.76 311.96C213.64 312.045 213.24 311.62 212.85 311.005C212.46 310.39 212.26 309.828 212.38 309.743Z" fill="#263238"/>
<path d="M208.099 300.174C208.638 300.868 209.043 301.668 209.289 302.529C209.684 303.323 209.925 304.192 209.999 305.086C209.054 303.605 208.407 301.933 208.099 300.174Z" fill="#263238"/>
<path d="M205.779 289.863C206.419 291.517 206.729 293.294 206.689 295.082C206.289 294.291 206.048 293.42 205.979 292.526C205.744 291.661 205.676 290.756 205.779 289.863Z" fill="#263238"/>
<path d="M205.429 279.266C205.746 281.02 205.722 282.825 205.36 284.57C205.106 283.713 205.027 282.809 205.13 281.918C205.052 281.021 205.154 280.117 205.429 279.266Z" fill="#263238"/>
<path d="M207.001 268.838C207.081 269.732 206.989 270.634 206.731 271.49C206.631 272.381 206.366 273.243 205.951 274.025C205.87 273.131 205.962 272.229 206.221 271.373C206.322 270.482 206.587 269.621 207.001 268.838Z" fill="#263238"/>
<path d="M210.639 258.919C210.305 260.664 209.623 262.314 208.639 263.756C208.739 262.864 209.008 262.001 209.429 261.221C209.999 259.874 210.509 258.845 210.639 258.919Z" fill="#263238"/>
<path d="M216.149 250.072C215.872 250.922 215.437 251.705 214.869 252.374C214.419 253.131 213.847 253.799 213.179 254.347C213.039 254.251 213.619 253.222 214.449 252.045C215.279 250.867 215.999 249.976 216.149 250.072Z" fill="#263238"/>
<path d="M222.871 242.222C222.981 242.328 222.291 243.283 221.341 244.343C220.391 245.404 219.531 246.168 219.421 246.073C219.311 245.977 220.001 245.012 220.961 243.951C221.921 242.89 222.771 242.105 222.871 242.222Z" fill="#263238"/>
<path d="M229.911 234.669C230.021 234.775 229.311 235.73 228.341 236.79C227.371 237.851 226.501 238.594 226.401 238.488C226.301 238.382 227.001 237.427 227.971 236.366C228.941 235.305 229.811 234.563 229.911 234.669Z" fill="#263238"/>
<path d="M236.49 226.67C236.173 227.505 235.7 228.263 235.1 228.898C234.22 230.044 233.42 230.882 233.31 230.776C233.636 229.946 234.108 229.19 234.7 228.548C235.57 227.466 236.37 226.585 236.49 226.67Z" fill="#263238"/>
<path d="M241.589 217.569C241.5 218.468 241.212 219.333 240.749 220.093C240.432 220.934 239.936 221.686 239.299 222.289C239.493 221.416 239.832 220.586 240.299 219.839C240.605 219.01 241.041 218.243 241.589 217.569Z" fill="#263238"/>
<path d="M244.001 207.31C244.196 208.192 244.178 209.111 243.951 209.984C243.893 210.889 243.629 211.767 243.181 212.54C243.129 211.651 243.217 210.758 243.441 209.899C243.495 209.01 243.684 208.136 244.001 207.31Z" fill="#263238"/>
<path d="M243.281 196.776C243.724 197.55 243.979 198.429 244.021 199.333C244.226 200.214 244.226 201.136 244.021 202.017C243.706 201.188 243.524 200.31 243.481 199.418C243.28 198.555 243.212 197.663 243.281 196.776Z" fill="#263238"/>
<path d="M239.349 187.07C239.469 186.985 240.199 187.908 240.859 189.192C241.335 189.946 241.63 190.813 241.719 191.716C241.168 191.043 240.722 190.28 240.399 189.457C239.936 188.723 239.582 187.918 239.349 187.07Z" fill="#263238"/>
<path d="M232.381 179.538C233.196 179.81 233.937 180.287 234.541 180.928C235.611 181.883 236.311 182.837 236.211 182.944C236.111 183.05 235.211 182.286 234.211 181.352C233.211 180.419 232.291 179.666 232.381 179.538Z" fill="#263238"/>
<path d="M223.29 175.231C224.142 175.176 224.994 175.344 225.77 175.719C226.605 175.924 227.378 176.347 228.02 176.95C227.183 176.85 226.366 176.61 225.6 176.239C224.782 176.045 224.001 175.704 223.29 175.231Z" fill="#263238"/>
<path d="M213.351 174.754C214.116 174.349 214.966 174.159 215.821 174.202C216.669 174.069 217.536 174.164 218.341 174.478C217.528 174.702 216.689 174.795 215.851 174.754C215.022 174.893 214.179 174.893 213.351 174.754Z" fill="#263238"/>
<path d="M204.129 178.668C204.039 178.541 204.899 177.746 206.129 177.045C206.837 176.53 207.662 176.226 208.519 176.165C207.867 176.724 207.143 177.182 206.369 177.523C205.68 178.021 204.925 178.407 204.129 178.668Z" fill="#263238"/>
<path d="M197.26 186.285C197.478 185.406 197.901 184.6 198.49 183.941C199.34 182.763 200.22 181.989 200.32 182.095C200.42 182.201 199.73 183.156 198.9 184.28C198.07 185.405 197.38 186.359 197.26 186.285Z" fill="#263238"/>
<path d="M193.89 196.193C193.732 195.3 193.798 194.378 194.08 193.52C194.206 192.615 194.55 191.76 195.08 191.037C195.048 191.928 194.89 192.807 194.61 193.647C194.494 194.53 194.251 195.389 193.89 196.193Z" fill="#263238"/>
<path d="M195.08 206.642C194.55 205.92 194.206 205.065 194.08 204.16C193.793 203.303 193.724 202.381 193.88 201.487C194.227 202.296 194.466 203.153 194.59 204.033C194.871 204.873 195.036 205.752 195.08 206.642Z" fill="#263238"/>
<path d="M200.149 215.723C200.039 215.829 199.209 215.001 198.399 213.792C197.834 213.112 197.432 212.297 197.229 211.416C197.359 211.342 198.02 212.296 198.82 213.474C199.375 214.141 199.825 214.901 200.149 215.723Z" fill="#263238"/>
<path d="M207.51 222.883C206.702 222.596 205.967 222.117 205.36 221.483C204.27 220.56 203.52 219.658 203.62 219.542C204.383 219.919 205.08 220.432 205.68 221.059C206.75 221.971 207.6 222.756 207.51 222.883Z" fill="#263238"/>
<path d="M216.179 228.155C214.55 227.694 213.03 226.874 211.719 225.747C212.554 225.9 213.352 226.224 214.069 226.702C214.858 227.03 215.576 227.525 216.179 228.155Z" fill="#263238"/>
<path d="M225.701 231.37C224.852 231.473 223.993 231.364 223.191 231.051C222.346 230.918 221.544 230.573 220.851 230.044C221.694 230.057 222.528 230.218 223.321 230.521C224.156 230.652 224.961 230.94 225.701 231.37Z" fill="#263238"/>
<path d="M235.661 231.911C234.036 232.44 232.304 232.477 230.661 232.017C231.472 231.789 232.315 231.71 233.151 231.783C233.989 231.678 234.837 231.721 235.661 231.911Z" fill="#263238"/>
<path d="M245.28 229.184C243.906 230.244 242.275 230.865 240.58 230.977C241.285 230.489 242.063 230.13 242.88 229.916C243.635 229.529 244.447 229.281 245.28 229.184Z" fill="#263238"/>
<path d="M253.62 223.382C253.72 223.499 252.96 224.443 251.85 225.291C251.229 225.91 250.478 226.364 249.66 226.617C249.58 226.479 250.45 225.747 251.54 224.856C252.155 224.251 252.857 223.753 253.62 223.382Z" fill="#263238"/>
<path d="M260.131 215.362C259.9 216.232 259.479 217.031 258.901 217.696C258.071 218.884 257.241 219.701 257.131 219.605C257.021 219.51 257.671 218.544 258.491 217.367C259.311 216.189 260.001 215.277 260.131 215.362Z" fill="#263238"/>
<path d="M264.459 205.815C264.456 206.721 264.247 207.612 263.849 208.414C263.329 209.793 262.719 210.811 262.589 210.737C262.709 209.855 262.97 209.002 263.359 208.212C263.599 207.354 263.971 206.544 264.459 205.815Z" fill="#263238"/>
<path d="M266.401 195.429C266.618 197.213 266.383 199.025 265.721 200.68C265.693 198.903 265.923 197.132 266.401 195.429Z" fill="#263238"/>
<path d="M266.139 184.832C266.465 185.661 266.621 186.554 266.599 187.452C266.742 188.339 266.718 189.248 266.529 190.125C266.059 188.404 265.926 186.599 266.139 184.821V184.832Z" fill="#263238"/>
<path d="M264 174.478C264.464 175.233 264.774 176.082 264.91 176.971C265.211 177.81 265.347 178.705 265.31 179.602C264.852 178.845 264.542 177.997 264.4 177.109C264.099 176.27 263.962 175.375 264 174.478Z" fill="#263238"/>
<path d="M260.14 164.676C260.27 164.602 260.87 165.62 261.47 166.946C261.893 167.729 262.158 168.596 262.25 169.492C261.292 168.027 260.578 166.398 260.14 164.676Z" fill="#263238"/>
<path d="M255.221 155.437C255.351 155.352 256.011 156.317 256.711 157.558C257.197 158.287 257.537 159.114 257.711 159.987C257.088 159.39 256.582 158.669 256.221 157.866C255.742 157.132 255.403 156.307 255.221 155.437Z" fill="#263238"/>
<path d="M250.26 146.218C250.39 146.144 251.03 147.13 251.7 148.403C252.183 149.146 252.523 149.982 252.7 150.864C252.087 150.241 251.598 149.494 251.26 148.669C250.771 147.934 250.43 147.099 250.26 146.218Z" fill="#263238"/>
<path d="M246.351 136.459C247.256 137.969 247.852 139.664 248.101 141.434C247.572 140.728 247.19 139.911 246.981 139.036C246.608 138.231 246.394 137.354 246.351 136.459Z" fill="#263238"/>
<path d="M244.65 126.031C244.944 126.869 245.093 127.757 245.09 128.651C245.263 129.523 245.294 130.42 245.18 131.303C244.786 130.5 244.58 129.609 244.58 128.704C244.406 127.819 244.43 126.904 244.65 126.031Z" fill="#263238"/>
<path d="M245.481 115.476C245.56 116.364 245.499 117.26 245.301 118.128C245.265 119.022 245.079 119.902 244.751 120.727C244.557 119.844 244.557 118.926 244.751 118.043C244.8 117.138 245.05 116.258 245.481 115.476Z" fill="#263238"/>
<path d="M248.741 105.472C248.613 106.356 248.343 107.211 247.941 107.997C247.693 108.851 247.31 109.654 246.811 110.373C247.023 108.584 247.69 106.89 248.741 105.472Z" fill="#263238"/>
<path d="M254.31 96.6781C254.42 96.7842 253.76 97.7389 252.92 98.8952C252.08 100.051 251.37 101.017 251.25 100.879C251.487 100.008 251.919 99.211 252.51 98.5557C253.36 97.3888 254.21 96.5826 254.31 96.6781Z" fill="#263238"/>
<path d="M261.82 89.6979C261.9 89.8252 261.03 90.5784 259.95 91.4694C259.337 92.0828 258.631 92.5814 257.86 92.944C257.76 92.8273 258.53 91.8832 259.63 91.0345C260.251 90.4128 261.002 89.9549 261.82 89.6979Z" fill="#263238"/>
<path d="M270.72 84.903C270.047 85.4395 269.293 85.852 268.49 86.1229C267.758 86.5598 266.959 86.8578 266.13 87.0033C266.06 86.8654 267.01 86.2077 268.29 85.6243C269.033 85.1779 269.867 84.9303 270.72 84.903Z" fill="#263238"/>
<path d="M278 82.951C278 83.0995 277.49 83.3329 276.82 83.4602C276.15 83.5875 275.57 83.5875 275.54 83.4602C275.51 83.3329 276.04 83.0783 276.72 82.9404C277.4 82.8025 278 82.8025 278 82.951Z" fill="#263238"/>
<path d="M298.379 51.7207C298.379 51.7207 310.119 42.831 326.379 48.5382C326.379 48.5382 327.709 62.8168 314.679 74.1675" fill="#285BBE"/>
<path d="M261.35 78.0925C261.85 78.8882 274.6 100.624 274.6 100.624L312.87 75.6102C314.45 74.5775 315.81 73.2081 316.865 71.5887C317.919 69.9692 318.645 68.1351 318.997 66.2024C319.349 64.2697 319.318 62.2807 318.907 60.3612C318.496 58.4417 317.714 56.6337 316.61 55.0516C314.559 52.1151 311.52 50.1303 308.124 49.5099C304.729 48.8895 301.239 49.6813 298.38 51.7207L261.35 78.0925Z" fill="#285BBE"/>
<path d="M274.599 100.624L273.739 115.921C273.739 115.921 298.539 103.191 292.349 89.0189L274.599 100.624Z" fill="#263238"/>
<path d="M279.081 65.4688C279.081 65.4688 262.261 57.5976 248.421 69.1392L261.351 78.0925L279.081 65.4688Z" fill="#263238"/>
<path d="M279 78.1032L255.07 94.0154C255.07 94.0154 255.89 96.7523 256.53 96.5189C257.17 96.2855 275.06 85.0621 280.89 81.4023C281.113 81.2616 281.304 81.0715 281.451 80.845C281.599 80.6185 281.698 80.361 281.743 80.09C281.787 79.819 281.776 79.541 281.71 79.2749C281.644 79.0089 281.525 78.7612 281.36 78.5487C281.085 78.1819 280.694 77.9342 280.259 77.8521C279.825 77.77 279.377 77.8593 279 78.1032Z" fill="#263238"/>
<path d="M308.472 67.9268C309.441 63.5583 306.888 59.1837 302.77 58.1559C298.652 57.128 294.528 59.8362 293.56 64.2046C292.591 68.5731 295.144 72.9477 299.262 73.9756C303.38 75.0034 307.503 72.2953 308.472 67.9268Z" fill="#FAFAFA"/>
<path d="M308.67 66.0629C308.61 66.0629 308.67 65.3416 308.33 64.111C307.884 62.3689 306.898 60.8369 305.53 59.7617C304.602 59.0225 303.523 58.5247 302.38 58.3084C301.073 58.0612 299.728 58.1857 298.48 58.669C297.086 59.1926 295.873 60.1502 295 61.4165C294.065 62.7624 293.56 64.3907 293.56 66.0629C293.56 67.7351 294.065 69.3634 295 70.7093C295.865 71.9692 297.062 72.929 298.44 73.4674C299.688 73.9503 301.033 74.0747 302.34 73.8281C303.483 73.6117 304.562 73.1139 305.49 72.3748C306.855 71.2972 307.841 69.7661 308.29 68.0254C308.6 66.7949 308.57 66.0629 308.63 66.0629C308.656 66.2386 308.656 66.4176 308.63 66.5933C308.627 67.0936 308.57 67.5919 308.46 68.0785C308.122 69.6232 307.368 71.0306 306.291 72.1302C305.213 73.2297 303.859 73.9743 302.39 74.2736C300.929 74.577 299.417 74.4329 298.031 73.858C296.644 73.2832 295.44 72.3014 294.56 71.0275C293.554 69.5925 293.01 67.8516 293.01 66.0629C293.01 64.2743 293.554 62.5333 294.56 61.0983C295.486 59.7569 296.772 58.7436 298.25 58.1917C299.49 57.7154 300.823 57.5813 302.124 57.8022C303.426 58.023 304.653 58.5915 305.69 59.454C307.123 60.6004 308.128 62.2456 308.53 64.1004C308.64 64.5869 308.697 65.0852 308.7 65.5856C308.713 65.7454 308.703 65.9063 308.67 66.0629Z" fill="#263238"/>
<path d="M318.001 71.5262C317.901 71.5262 317.791 69.9455 317.201 67.4738C316.852 66.0281 316.407 64.6102 315.871 63.2306C314.538 59.8628 312.656 56.7709 310.311 54.097C309.35 53.0091 308.317 51.9952 307.221 51.063C305.331 49.4824 304.021 48.7186 304.071 48.6232C304.404 48.7417 304.723 48.902 305.021 49.1005C305.388 49.3029 305.746 49.5259 306.091 49.7688C306.491 50.0553 306.961 50.3523 307.441 50.7554C308.59 51.6527 309.664 52.6536 310.651 53.7469C313.094 56.4205 315.017 59.5781 316.311 63.0396C316.839 64.4469 317.257 65.8981 317.561 67.3784C317.711 68.0042 317.771 68.5877 317.851 69.0969C317.917 69.5289 317.961 69.9645 317.981 70.4017C318.038 70.7735 318.045 71.1523 318.001 71.5262Z" fill="#263238"/>
<path d="M315.941 72.6507C315.841 72.6507 315.721 71.0488 315.121 68.5347C314.765 67.0678 314.314 65.6287 313.771 64.2278C313.089 62.5194 312.276 60.8731 311.341 59.3056C310.388 57.7526 309.317 56.2839 308.141 54.9138C307.166 53.7993 306.116 52.7606 305.001 51.8056C303.091 50.1826 301.761 49.3976 301.811 49.3021C302.162 49.4241 302.498 49.5916 302.811 49.8007C303.181 50.0072 303.538 50.2375 303.881 50.4902C304.291 50.7767 304.771 51.0949 305.251 51.551C306.403 52.4603 307.487 53.4641 308.491 54.5532C309.711 55.9276 310.812 57.4151 311.781 58.998C312.728 60.5956 313.541 62.2781 314.211 64.0262C314.746 65.4583 315.171 66.9341 315.481 68.4392C315.631 69.0757 315.691 69.6698 315.771 70.179C315.845 70.6173 315.891 71.0602 315.911 71.505C315.961 71.8845 315.971 72.2688 315.941 72.6507Z" fill="#263238"/>
<path d="M81.8377 409.926C80.9777 406.319 83.2277 402.712 85.7377 400.113C88.2477 397.514 91.2377 395.191 92.5577 391.744C94.6877 386.164 91.8977 378.897 95.5577 374.251C97.6777 371.514 101.478 370.623 103.358 367.695C104.234 366.081 104.817 364.307 105.078 362.465C107.121 353.176 111.48 344.639 117.698 337.748C118.085 346.033 116.358 354.275 112.698 361.606C111.228 364.534 109.428 367.387 108.938 370.665C108.118 375.969 110.938 381.475 109.638 386.694C108.188 392.656 101.848 396.623 101.508 402.765C101.228 407.974 105.508 412.557 105.128 417.755C104.865 419.963 104.107 422.073 102.918 423.907C98.9977 430.538 93.4277 435.11 84.9977 434.908L74.6577 435.226L81.8377 409.926Z" fill="#285BBE"/>
<g opacity="0.3">
<path opacity="0.3" d="M81.8377 409.926C80.9777 406.319 83.2277 402.712 85.7377 400.113C88.2477 397.514 91.2377 395.191 92.5577 391.744C94.6877 386.164 91.8977 378.897 95.5577 374.251C97.6777 371.514 101.478 370.623 103.358 367.695C104.234 366.081 104.817 364.307 105.078 362.465C107.121 353.176 111.48 344.639 117.698 337.748C118.085 346.033 116.358 354.275 112.698 361.606C111.228 364.534 109.428 367.387 108.938 370.665C108.118 375.969 110.938 381.475 109.638 386.694C108.188 392.656 101.848 396.623 101.508 402.765C101.228 407.974 105.508 412.557 105.128 417.755C104.865 419.963 104.107 422.073 102.918 423.907C98.9977 430.538 93.4277 435.11 84.9977 434.908L74.6577 435.226L81.8377 409.926Z" fill="black"/>
</g>
<path d="M72.5588 435.502C71.6116 435.654 70.6465 435.625 69.7088 435.417C68.5664 435.232 67.4442 434.926 66.3588 434.505C64.8617 433.939 63.463 433.114 62.2188 432.065C61.4726 431.423 60.8913 430.591 60.5288 429.646C60.2223 428.584 60.064 427.48 60.0588 426.369C60.0433 425.181 59.9699 423.995 59.8388 422.815C59.6438 421.562 59.2191 420.362 58.5888 419.282C57.3888 417.002 55.3688 414.848 54.7388 411.751C54.1088 408.653 54.5688 405.386 55.0688 402.15C55.5688 398.915 56.0688 395.276 54.8788 391.839C53.6888 388.402 51.5388 385.294 50.4288 381.422C49.3188 377.55 49.8688 373.317 49.6488 369.169C49.5917 367.065 49.1467 364.993 48.3388 363.07C47.5088 361.128 46.3388 359.293 45.4688 357.246C43.6588 353.098 43.3588 348.42 42.8788 343.827C42.6488 341.514 42.4088 339.17 42.1788 336.815C42.0367 334.439 41.6613 332.085 41.0588 329.792C40.3769 327.476 39.5655 325.205 38.6288 322.992C38.1416 321.845 37.7469 320.656 37.4488 319.438C37.2786 318.187 37.1718 316.926 37.1288 315.662C37.0309 313.129 37.138 310.591 37.4488 308.077C37.7388 305.552 38.1888 303.038 38.4488 300.503C38.4488 300.354 38.4488 300.206 38.4488 300.068L38.4988 299.569L38.9188 299.792C41.1077 300.986 43.0044 302.704 44.4588 304.81C45.8822 306.863 47.0236 309.12 47.8488 311.514C49.5488 316.235 50.1388 321.178 50.9888 325.888C51.8388 330.598 52.9088 335.255 55.1588 339.18C56.2888 341.143 57.6488 342.935 58.8388 344.845C60.1045 346.709 60.9683 348.846 61.3688 351.104C61.9488 355.75 59.5188 359.813 59.9988 363.918C60.2488 365.941 60.9035 367.883 61.9188 369.615C62.8488 371.376 63.9188 372.999 64.9788 374.643C66.0418 376.239 66.9625 377.937 67.7288 379.714C68.4605 381.457 68.8907 383.326 68.9988 385.23C69.2288 388.932 68.7188 392.433 68.9988 395.753C69.2653 398.908 70.1148 401.975 71.4988 404.781C72.7288 407.486 74.1088 409.937 75.2588 412.302C75.8328 413.443 76.3502 414.615 76.8088 415.813C77.222 416.933 77.5203 418.096 77.6988 419.282C77.9832 421.358 77.9832 423.466 77.6988 425.541C77.4129 428.44 76.3743 431.198 74.6988 433.508C74.4466 433.852 74.1655 434.172 73.8588 434.463C73.6544 434.691 73.4262 434.894 73.1788 435.067L72.5888 435.502C73.3255 434.873 73.996 434.162 74.5888 433.381C76.1938 431.067 77.1786 428.336 77.4388 425.477C77.6831 423.425 77.6494 421.346 77.3388 419.304C77.1529 418.141 76.8512 417.004 76.4388 415.909C76.0088 414.774 75.4388 413.628 74.8888 412.451C73.7188 410.106 72.3288 407.666 71.0688 404.94C69.6456 402.088 68.7655 398.966 68.4788 395.753C68.2188 392.369 68.7188 388.858 68.4788 385.241C68.3725 383.41 67.9594 381.614 67.2588 379.937C66.4971 378.194 65.5866 376.528 64.5388 374.961C63.5388 373.328 62.3988 371.694 61.4388 369.901C60.4044 368.089 59.7433 366.064 59.4988 363.961C59.0288 359.58 61.4388 355.474 60.8388 351.178C60.4444 349.022 59.6042 346.986 58.3788 345.216C57.2088 343.339 55.8388 341.546 54.6788 339.541C52.3588 335.499 51.2388 330.768 50.4088 326.026C49.5788 321.284 48.9588 316.394 47.2888 311.769C46.486 309.439 45.3748 307.242 43.9888 305.245C42.5957 303.23 40.7816 301.585 38.6888 300.439L39.1688 300.153L39.1188 300.598C38.8388 303.166 38.3988 305.68 38.1188 308.173C37.8082 310.651 37.7012 313.153 37.7988 315.651C37.8588 316.871 37.9288 318.155 38.0988 319.311C38.3951 320.483 38.7762 321.628 39.2388 322.738C40.1867 324.975 41.0081 327.271 41.6988 329.612C42.2999 331.937 42.6719 334.323 42.8088 336.73C43.0488 339.085 43.2788 341.429 43.5088 343.742C43.9788 348.356 44.2788 352.96 46.0188 356.959C46.8888 358.954 48.0188 360.789 48.8788 362.805C49.716 364.813 50.1779 366.974 50.2388 369.169C50.4388 373.413 49.8988 377.539 50.9588 381.295C52.0188 385.05 54.2488 388.147 55.3688 391.701C56.4888 395.255 56.0388 398.978 55.5288 402.256C55.0188 405.534 54.5288 408.77 55.1488 411.687C55.7688 414.604 57.6788 416.779 58.9088 419.113C59.5542 420.236 59.9857 421.483 60.1788 422.783C60.3074 423.977 60.3742 425.177 60.3788 426.379C60.3689 427.456 60.5104 428.529 60.7988 429.562C61.1396 430.464 61.6859 431.262 62.3888 431.885C63.5882 432.924 64.9393 433.748 66.3888 434.325C67.4562 434.763 68.5615 435.09 69.6888 435.301C70.3824 435.434 71.0843 435.512 71.7888 435.534C72.3088 435.492 72.5588 435.502 72.5588 435.502Z" fill="#263238"/>
<path d="M40.5899 306.125C40.636 306.23 40.6696 306.34 40.6898 306.454C40.7398 306.719 40.8199 307.038 40.9099 307.441C41.1099 308.311 41.3399 309.615 41.7199 311.249C42.0999 312.883 43.0499 314.718 43.8399 316.988C44.6299 319.258 45.4899 321.847 46.2499 324.774C47.0099 327.702 47.7099 330.959 48.4199 334.438C49.024 338.174 50.1179 341.802 51.6699 345.216C52.5099 346.998 53.4499 348.812 54.1999 350.786C54.9319 352.813 55.4223 354.93 55.6599 357.087C56.1562 361.551 56.8739 365.984 57.8099 370.368C59.8099 379.364 61.8099 387.935 63.5199 395.743C65.2299 403.551 66.9399 410.531 68.3099 416.439C69.6799 422.348 70.7199 427.048 71.4799 430.4L72.3099 434.208C72.3899 434.611 72.4599 434.94 72.5099 435.205C72.5209 435.318 72.5209 435.432 72.5099 435.545C72.459 435.441 72.422 435.33 72.3999 435.216L72.1299 434.24C71.8999 433.328 71.5799 432.065 71.1299 430.463L67.7499 416.556C66.3499 410.658 64.6799 403.657 62.8299 395.902C60.9799 388.147 59.1099 379.523 57.0599 370.517C56.1486 366.1 55.4609 361.635 54.9999 357.14C54.7823 355.034 54.3118 352.966 53.5999 350.987C52.8799 349.067 51.9499 347.264 51.1099 345.46C49.5646 342.019 48.4775 338.367 47.8799 334.608C47.1899 331.118 46.5399 327.872 45.7999 324.955C45.0599 322.037 44.2799 319.417 43.4899 317.168C42.6999 314.919 41.8499 313.042 41.4899 311.355C41.1299 309.668 40.9499 308.395 40.7999 307.515C40.7299 307.112 40.6799 306.772 40.6399 306.507C40.6063 306.383 40.5894 306.254 40.5899 306.125Z" fill="#263238"/>
<path d="M70.7282 435.523C63.9982 431.227 62.1282 418.296 64.9882 410.531C67.8482 402.765 72.8182 395.679 73.6182 387.405C74.2382 381.04 72.3082 374.484 73.7382 368.31C75.6782 359.909 83.4482 353.459 83.4082 344.802C83.4082 339.955 80.8082 335.372 81.0382 330.524C81.3282 324.583 85.6482 319.916 88.3382 314.675C92.4582 306.687 92.7782 297.214 94.2182 288.24C95.6582 279.265 98.9382 269.654 106.468 265.284C107.538 272.922 109.408 278.162 108.758 288.494C108.518 292.197 104.418 299.283 103.818 307.409C103.468 312.267 103.208 317.136 102.908 322.006C102.608 326.875 102.288 331.553 100.668 335.977C99.4282 339.361 97.4382 342.426 96.5082 345.927C94.7582 352.515 96.9782 359.665 95.5082 366.337C94.3082 371.991 90.5882 376.839 89.7982 382.568C88.6982 390.63 93.5682 399.031 91.0082 406.712C89.7382 410.52 86.7682 413.565 85.9082 417.5C85.2382 420.555 85.9082 423.791 85.3282 426.857C84.3282 431.8 75.4282 435.587 70.6782 435.258" fill="#285BBE"/>
<path d="M104.57 272.794C104.583 272.939 104.583 273.085 104.57 273.229C104.57 273.548 104.48 273.961 104.41 274.481C104.25 275.542 104.07 277.197 103.71 279.287C103.35 281.376 102.28 283.753 101.45 286.596C100.62 289.439 99.6999 292.717 98.9199 296.398C98.1399 300.079 97.4699 304.131 96.7699 308.501C96.0699 312.872 95.2999 317.635 93.2299 322.186C92.2299 324.467 91.2299 326.758 90.3899 329.187C89.5995 331.691 89.1057 334.288 88.9199 336.921C88.5148 342.515 87.8237 348.082 86.8499 353.597C84.7199 364.884 82.6999 375.64 80.8499 385.421L75.6899 411.348C74.1999 418.688 72.9899 424.64 72.1499 428.809C71.7199 430.835 71.3899 432.426 71.1499 433.55L70.8799 434.781C70.852 434.922 70.8119 435.061 70.7599 435.195C70.7486 435.053 70.7486 434.912 70.7599 434.77C70.8199 434.452 70.8899 434.038 70.9699 433.519C71.1799 432.383 71.4699 430.792 71.8499 428.755C72.6399 424.576 73.7799 418.603 75.1799 411.241C76.5799 403.879 78.3099 395.043 80.1799 385.283L86.1799 353.459C87.1445 347.964 87.8354 342.419 88.2499 336.846C88.4422 334.158 88.9528 331.507 89.7699 328.954C90.5999 326.472 91.6899 324.17 92.6499 321.91C94.7099 317.434 95.4499 312.745 96.1999 308.385C96.9499 304.025 97.6199 299.898 98.4499 296.27C99.2799 292.642 100.17 289.311 101.08 286.468C101.99 283.625 103.02 281.26 103.43 279.212C103.84 277.165 104.06 275.531 104.26 274.449C104.35 273.93 104.43 273.526 104.48 273.208C104.499 273.068 104.53 272.93 104.57 272.794Z" fill="#263238"/>
<path d="M409.441 268.583H402.471V292.473H409.441V268.583Z" fill="#285BBE"/>
<path d="M422.272 258.749H415.302V292.462H422.272V258.749Z" fill="#285BBE"/>
<path d="M435.92 254.156H428.95V292.462H435.92V254.156Z" fill="#285BBE"/>
<path d="M449.581 249.319H442.611V292.473H449.581V249.319Z" fill="#285BBE"/>
<path d="M167.519 299.601C168.041 299.679 168.548 299.847 169.019 300.1C170.125 300.673 171.052 301.572 171.689 302.69C172.326 303.807 172.645 305.096 172.609 306.401C172.578 307.632 172.232 308.831 171.609 309.87C170.917 311.025 169.918 311.937 168.739 312.49C167.472 313.088 166.057 313.236 164.704 312.913C163.351 312.59 162.133 311.813 161.229 310.698C160.811 310.174 160.473 309.583 160.229 308.947C159.969 308.343 159.804 307.698 159.739 307.038C159.594 305.814 159.763 304.572 160.229 303.442C160.717 302.243 161.524 301.221 162.55 300.499C163.576 299.778 164.778 299.389 166.009 299.379C166.537 299.358 167.064 299.433 167.569 299.601C167.569 299.601 167.009 299.485 166.019 299.527C164.608 299.587 163.258 300.151 162.189 301.129C161.452 301.79 160.873 302.626 160.499 303.569C160.074 304.651 159.926 305.833 160.069 306.995C160.142 307.619 160.304 308.227 160.549 308.799C160.796 309.404 161.133 309.963 161.549 310.454C162.408 311.501 163.561 312.229 164.838 312.533C166.115 312.836 167.45 312.699 168.649 312.14C169.221 311.882 169.748 311.523 170.209 311.079C170.666 310.673 171.061 310.194 171.379 309.658C171.844 308.883 172.153 308.014 172.285 307.106C172.417 306.197 172.369 305.27 172.146 304.382C171.922 303.494 171.527 302.666 170.985 301.949C170.443 301.231 169.767 300.642 168.999 300.217C168.069 299.718 167.509 299.601 167.519 299.601Z" fill="#263238"/>
<path d="M172.599 292.377C172.594 292.299 172.594 292.221 172.599 292.144C172.599 291.963 172.599 291.73 172.599 291.422C172.599 290.765 172.599 289.821 172.599 288.59L172.649 288.654L166.879 287.317L166.979 287.264L165.459 290.69V290.754H165.389C164.111 290.813 162.847 291.052 161.629 291.465H161.559L161.509 291.412L158.969 288.749H158.999L153.999 292.123L154.059 291.942L155.259 295.507V295.591L155.199 295.666C154.336 296.663 153.6 297.776 153.009 298.975V299.06H152.999H149.439L149.589 298.922C149.189 300.842 148.749 302.911 148.309 305.033L148.219 304.831L151.439 306.454L151.529 306.507V306.613C151.585 307.963 151.804 309.3 152.179 310.591V310.697L152.099 310.782L149.579 313.466V313.233L152.739 318.537L152.529 318.452L155.889 317.179H155.999L156.079 317.253C157.009 318.172 158.052 318.953 159.179 319.576C159.229 319.651 159.089 319.407 159.279 319.746V323.523L159.139 323.332L164.899 324.711L164.699 324.817C165.209 323.661 165.699 322.526 166.229 321.39L166.279 321.295H166.389C167.659 321.244 168.917 321.012 170.129 320.605H170.239L170.309 320.68L172.839 323.364H172.619L177.619 320.022L177.549 320.224C177.139 319.014 176.749 317.826 176.349 316.659V316.564L176.419 316.479C177.287 315.487 178.027 314.378 178.619 313.18V313.095H182.279L182.139 313.222C182.599 311.101 183.029 309.043 183.439 307.101L183.519 307.271L180.299 305.637H180.229V305.552C180.186 304.198 179.97 302.857 179.589 301.564V301.49V301.437L182.119 298.753V298.901L178.979 293.597H179.079L175.709 294.838C175.001 294.143 174.235 293.518 173.419 292.971L172.799 292.579L172.599 292.441L172.819 292.547L173.449 292.908C174.284 293.437 175.067 294.051 175.789 294.743H175.729L179.079 293.449H179.139V293.512L182.319 298.816V298.891L182.259 298.965L179.749 301.649V301.521C180.145 302.837 180.371 304.204 180.419 305.584L180.349 305.468L183.579 307.08L183.679 307.133V307.25C183.279 309.18 182.849 311.207 182.399 313.36V313.487H178.709L178.849 313.403C178.247 314.628 177.494 315.762 176.609 316.776V316.606C176.999 317.773 177.409 318.961 177.809 320.171L177.859 320.308L177.739 320.383L172.739 323.735L172.619 323.82L172.519 323.714L169.989 321.04H170.169C168.925 321.459 167.633 321.698 166.329 321.751L166.479 321.645C165.979 322.77 165.479 323.915 164.949 325.061L164.889 325.199H164.749L158.989 323.83H158.849V319.757C159.039 320.096 158.849 319.852 158.949 319.927C157.793 319.29 156.723 318.49 155.769 317.55H155.949L152.589 318.813L152.449 318.866L152.379 318.738L149.219 313.434L149.139 313.307L149.239 313.201L151.759 310.517V310.708C151.368 309.387 151.142 308.018 151.089 306.635L151.189 306.783L147.999 305.213L147.879 305.149V305.011L149.179 298.901V298.763H152.999L152.869 298.848C153.47 297.626 154.223 296.495 155.109 295.485V295.644L153.919 292.07V291.953L154.019 291.889L159.019 288.548L159.109 288.495L159.189 288.569L161.709 291.253H161.589C162.827 290.842 164.112 290.61 165.409 290.563L165.319 290.627L166.869 287.211V287.137H166.939L172.689 288.548H172.739C172.739 289.768 172.739 290.669 172.739 291.359C172.739 291.666 172.739 291.91 172.739 292.08C172.699 292.183 172.652 292.282 172.599 292.377Z" fill="#263238"/>
<path fill-rule="evenodd" clip-rule="evenodd" d="M161.721 244.789C162.984 245.489 164.154 246.363 165.201 247.388L168.921 245.988L172.411 251.833L169.631 254.803C170.058 256.248 170.303 257.746 170.361 259.259L173.921 261.051L172.491 267.777H168.551C167.888 269.117 167.061 270.358 166.091 271.469L167.421 275.415L161.901 279.117L159.101 276.263C157.743 276.715 156.334 276.975 154.911 277.038L153.221 280.814L146.851 279.297V275.118C145.587 274.416 144.416 273.539 143.371 272.508L139.651 273.919L136.151 268.063L138.941 265.104C138.517 263.658 138.271 262.161 138.211 260.648L134.651 258.855L136.071 252.098H140.001C140.659 250.757 141.483 249.515 142.451 248.406L141.141 244.439L146.651 240.726L149.451 243.686C150.813 243.234 152.225 242.973 153.651 242.911L155.341 239.135L161.711 240.652V244.831L161.721 244.789ZM156.101 252.745C154.751 252.424 153.341 252.536 152.05 253.065C150.759 253.594 149.645 254.517 148.848 255.718C148.052 256.919 147.608 258.343 147.575 259.811C147.541 261.278 147.918 262.724 148.659 263.964C149.399 265.205 150.469 266.184 151.735 266.78C153 267.375 154.403 267.559 155.767 267.308C157.13 267.058 158.394 266.384 159.396 265.373C160.399 264.361 161.097 263.056 161.401 261.624C161.604 260.672 161.627 259.687 161.47 258.725C161.313 257.763 160.979 256.844 160.487 256.019C159.994 255.194 159.354 254.481 158.601 253.919C157.849 253.357 156.999 252.958 156.101 252.745Z" fill="#285BBE"/>
<g opacity="0.8">
<path opacity="0.8" fill-rule="evenodd" clip-rule="evenodd" d="M161.721 244.789C162.984 245.489 164.154 246.363 165.201 247.388L168.921 245.988L172.411 251.833L169.631 254.803C170.058 256.248 170.303 257.746 170.361 259.259L173.921 261.051L172.491 267.777H168.551C167.888 269.117 167.061 270.358 166.091 271.469L167.421 275.415L161.901 279.117L159.101 276.263C157.743 276.715 156.334 276.975 154.911 277.038L153.221 280.814L146.851 279.297V275.118C145.587 274.416 144.416 273.539 143.371 272.508L139.651 273.919L136.151 268.063L138.941 265.104C138.517 263.658 138.271 262.161 138.211 260.648L134.651 258.855L136.071 252.098H140.001C140.659 250.757 141.483 249.515 142.451 248.406L141.141 244.439L146.651 240.726L149.451 243.686C150.813 243.234 152.225 242.973 153.651 242.911L155.341 239.135L161.711 240.652V244.831L161.721 244.789ZM156.101 252.745C154.751 252.424 153.341 252.536 152.05 253.065C150.759 253.594 149.645 254.517 148.848 255.718C148.052 256.919 147.608 258.343 147.575 259.811C147.541 261.278 147.918 262.724 148.659 263.964C149.399 265.205 150.469 266.184 151.735 266.78C153 267.375 154.403 267.559 155.767 267.308C157.13 267.058 158.394 266.384 159.396 265.373C160.399 264.361 161.097 263.056 161.401 261.624C161.604 260.672 161.627 259.687 161.47 258.725C161.313 257.763 160.979 256.844 160.487 256.019C159.994 255.194 159.354 254.481 158.601 253.919C157.849 253.357 156.999 252.958 156.101 252.745Z" fill="white"/>
</g>
<path fill-rule="evenodd" clip-rule="evenodd" d="M138.68 284.612C139.406 285.018 140.079 285.525 140.68 286.118L142.85 285.302L144.85 288.707L143.23 290.436C143.48 291.275 143.624 292.145 143.66 293.024L145.73 294.085L145 298.01H142.7C142.315 298.78 141.838 299.493 141.28 300.132L142.05 302.423L138.83 304.545L137.21 302.826C136.415 303.087 135.591 303.237 134.76 303.272L133.76 305.478L130.05 304.587V302.158C129.322 301.75 128.649 301.24 128.05 300.641L125.88 301.458L123.88 298.053L125.5 296.323C125.254 295.484 125.112 294.614 125.08 293.735L123 292.674L123.83 288.739H126C126.389 287.97 126.87 287.257 127.43 286.617L126.66 284.326L129.87 282.204L131.5 283.933C132.29 283.663 133.111 283.51 133.94 283.477L134.94 281.281L138.65 282.162V284.601L138.68 284.612ZM135.41 289.237C134.623 289.048 133.8 289.111 133.046 289.418C132.292 289.725 131.641 290.262 131.176 290.962C130.71 291.661 130.45 292.492 130.43 293.348C130.409 294.204 130.629 295.048 131.06 295.772C131.492 296.496 132.116 297.067 132.854 297.415C133.592 297.762 134.411 297.869 135.206 297.723C136.002 297.576 136.739 297.183 137.323 296.592C137.908 296.001 138.314 295.239 138.49 294.403C138.726 293.285 138.534 292.113 137.957 291.145C137.379 290.176 136.463 289.49 135.41 289.237Z" fill="#285BBE"/>
<g opacity="0.4">
<path opacity="0.4" fill-rule="evenodd" clip-rule="evenodd" d="M138.68 284.612C139.406 285.018 140.079 285.525 140.68 286.118L142.85 285.302L144.85 288.707L143.23 290.436C143.48 291.275 143.624 292.145 143.66 293.024L145.73 294.085L145 298.01H142.7C142.315 298.78 141.838 299.493 141.28 300.132L142.05 302.423L138.83 304.545L137.21 302.826C136.415 303.087 135.591 303.237 134.76 303.272L133.76 305.478L130.05 304.587V302.158C129.322 301.75 128.649 301.24 128.05 300.641L125.88 301.458L123.88 298.053L125.5 296.323C125.254 295.484 125.112 294.614 125.08 293.735L123 292.674L123.83 288.739H126C126.389 287.97 126.87 287.257 127.43 286.617L126.66 284.326L129.87 282.204L131.5 283.933C132.29 283.663 133.111 283.51 133.94 283.477L134.94 281.281L138.65 282.162V284.601L138.68 284.612ZM135.41 289.237C134.623 289.048 133.8 289.111 133.046 289.418C132.292 289.725 131.641 290.262 131.176 290.962C130.71 291.661 130.45 292.492 130.43 293.348C130.409 294.204 130.629 295.048 131.06 295.772C131.492 296.496 132.116 297.067 132.854 297.415C133.592 297.762 134.411 297.869 135.206 297.723C136.002 297.576 136.739 297.183 137.323 296.592C137.908 296.001 138.314 295.239 138.49 294.403C138.726 293.285 138.534 292.113 137.957 291.145C137.379 290.176 136.463 289.49 135.41 289.237Z" fill="white"/>
</g>
<path d="M359.531 245.574C361.629 244.934 363.464 243.568 364.745 241.694C366.026 239.819 366.68 237.545 366.601 235.231C366.481 233.109 365.751 231.136 365.831 229.057C365.961 225.874 367.981 223.106 369.501 220.305C371.021 217.505 372.031 213.824 370.261 211.193C369.121 209.485 367.091 208.721 365.701 207.236C364.311 205.751 363.701 203.767 362.961 201.868C362.221 199.969 361.291 198.007 359.611 196.999C357.931 195.991 355.361 196.426 354.671 198.346" fill="#263238"/>
<path d="M341.371 193.244C344.371 191.218 345.091 186.539 343.461 183.198C341.831 179.856 338.391 177.82 334.891 177.215C332.344 176.804 329.742 177.038 327.297 177.897C324.852 178.756 322.633 180.216 320.821 182.158C318.891 184.28 317.321 187.027 314.701 187.993C312.401 188.852 309.851 188.078 307.431 188.417C305.817 188.727 304.289 189.415 302.958 190.432C301.628 191.449 300.529 192.768 299.741 194.294C298.192 197.363 297.262 200.741 297.011 204.213C296.661 207.395 296.421 210.843 294.361 213.145C292.301 215.447 289.151 215.871 286.651 217.473C284.348 219.083 282.73 221.584 282.144 224.443C281.557 227.301 282.048 230.29 283.511 232.77C284.511 234.297 285.931 235.708 286.041 237.565C286.151 239.421 285.121 240.747 284.631 242.402C284.378 243.448 284.341 244.539 284.52 245.602C284.698 246.665 285.09 247.675 285.668 248.564C286.246 249.453 286.997 250.2 287.871 250.754C288.744 251.309 289.719 251.659 290.731 251.78C292.811 251.907 295.031 251.048 296.901 252.034C298.771 253.021 299.441 255.386 300.621 257.19C301.839 258.929 303.583 260.173 305.561 260.713C307.539 261.254 309.632 261.058 311.491 260.16C313.021 259.364 314.491 258.038 316.161 258.176C317.831 258.314 319.161 259.831 320.861 260.171C323.051 260.616 325.121 258.908 326.421 256.988C327.721 255.068 328.631 252.809 330.291 251.239C332.471 249.181 335.531 248.682 338.291 247.674C341.341 246.556 344.129 244.756 346.467 242.397C348.805 240.037 350.638 237.173 351.843 233.997C353.048 230.821 353.596 227.408 353.451 223.988C353.306 220.568 352.47 217.222 351.001 214.174" fill="#263238"/>
<path d="M348.001 197.413C349.193 197.551 350.293 198.158 351.083 199.114C351.874 200.071 352.298 201.307 352.271 202.579L349.411 271.182C349.291 279.286 338.131 283.837 329.951 283.636C321.691 283.434 321.431 279.138 321.321 271.426C321.151 258.548 321.171 253.71 321.161 253.785C321.151 253.859 310.731 251.928 308.601 237.48C307.541 230.287 307.901 218.512 308.491 208.891C309.031 200.224 314.491 189.605 322.601 190.539L348.001 197.413Z" fill="#FFBE9D"/>
<path d="M311.44 218.237C311.437 218.719 311.61 219.184 311.923 219.534C312.237 219.884 312.665 220.092 313.12 220.114C313.342 220.133 313.565 220.104 313.776 220.03C313.987 219.956 314.183 219.838 314.35 219.683C314.518 219.528 314.655 219.339 314.753 219.127C314.85 218.915 314.907 218.684 314.92 218.449C314.928 217.966 314.758 217.5 314.446 217.149C314.134 216.798 313.704 216.59 313.25 216.571C313.028 216.552 312.804 216.581 312.592 216.655C312.38 216.728 312.184 216.846 312.016 217.001C311.847 217.156 311.71 217.345 311.611 217.557C311.512 217.77 311.454 218 311.44 218.237Z" fill="#263238"/>
<path d="M310.84 215.022C311.06 215.266 312.38 214.227 314.26 214.237C316.14 214.248 317.51 215.245 317.72 215.001C317.93 214.757 317.6 214.46 317 213.994C316.188 213.393 315.22 213.074 314.23 213.081C313.254 213.073 312.301 213.396 311.51 214.004C310.93 214.471 310.73 214.916 310.84 215.022Z" fill="#263238"/>
<path d="M330.169 218.237C330.166 218.719 330.339 219.185 330.652 219.535C330.966 219.885 331.394 220.092 331.849 220.114C332.071 220.133 332.294 220.105 332.505 220.031C332.716 219.957 332.912 219.839 333.079 219.684C333.247 219.528 333.384 219.339 333.482 219.127C333.579 218.915 333.636 218.685 333.649 218.449C333.657 217.965 333.486 217.497 333.171 217.145C332.857 216.794 332.425 216.588 331.969 216.571C331.747 216.553 331.524 216.581 331.313 216.655C331.101 216.729 330.906 216.847 330.739 217.002C330.571 217.157 330.434 217.346 330.336 217.558C330.238 217.77 330.182 218.001 330.169 218.237Z" fill="#263238"/>
<path d="M329.31 215.436C329.53 215.68 330.85 214.64 332.73 214.651C334.61 214.662 335.98 215.712 336.19 215.415C336.4 215.118 336.07 214.874 335.47 214.407C334.657 213.807 333.69 213.488 332.7 213.495C331.724 213.491 330.772 213.814 329.98 214.418C329.4 214.895 329.2 215.33 329.31 215.436Z" fill="#263238"/>
<path d="M322.46 230.203C321.487 229.874 320.479 229.675 319.46 229.609C318.98 229.556 318.52 229.45 318.46 229.11C318.42 228.584 318.536 228.058 318.79 227.604C319.24 226.373 319.72 225.079 320.21 223.732C322.21 218.215 323.63 213.675 323.42 213.601C323.21 213.527 321.42 217.918 319.42 223.424C318.95 224.793 318.49 226.087 318.06 227.328C317.752 227.939 317.66 228.646 317.8 229.322C317.869 229.502 317.976 229.663 318.113 229.791C318.25 229.92 318.413 230.014 318.59 230.065C318.857 230.143 319.132 230.186 319.41 230.192C320.422 230.329 321.446 230.333 322.46 230.203Z" fill="#263238"/>
<path d="M321.11 253.785C327.521 253.906 333.838 252.14 339.36 248.682C339.36 248.682 334.74 258.866 321.11 257.476V253.785Z" fill="#EB996E"/>
<path d="M323.24 235.008C323.596 234.539 324.057 234.172 324.581 233.94C325.105 233.709 325.675 233.62 326.24 233.682C326.655 233.721 327.057 233.849 327.424 234.058C327.79 234.268 328.112 234.555 328.37 234.902C328.616 235.237 328.762 235.642 328.789 236.066C328.816 236.489 328.722 236.912 328.52 237.278C328.215 237.634 327.818 237.886 327.378 238.003C326.939 238.12 326.477 238.097 326.05 237.936C325.165 237.595 324.35 237.077 323.65 236.408C323.443 236.243 323.264 236.042 323.12 235.814C323.051 235.704 323.014 235.575 323.014 235.443C323.014 235.311 323.051 235.182 323.12 235.072" fill="#285BBE"/>
<path d="M328 231.592C327.69 231.592 327.68 233.714 325.93 235.273C324.18 236.833 322.01 236.557 322 236.864C322 236.992 322.48 237.278 323.4 237.31C324.595 237.335 325.758 236.907 326.68 236.101C327.571 235.335 328.145 234.232 328.28 233.024C328.35 232.123 328.12 231.582 328 231.592Z" fill="#263238"/>
<path d="M328.47 211.946C328.65 212.487 330.53 212.232 332.73 212.519C334.93 212.805 336.73 213.452 337.01 212.964C337.15 212.731 336.84 212.222 336.12 211.691C335.16 211.05 334.076 210.648 332.948 210.514C331.821 210.38 330.68 210.518 329.61 210.917C328.8 211.256 328.39 211.691 328.47 211.946Z" fill="#263238"/>
<path d="M311.54 209.252C311.87 209.708 313.17 209.252 314.72 209.252C316.27 209.252 317.6 209.559 317.9 209.092C318.04 208.859 317.83 208.403 317.25 207.979C316.479 207.46 315.58 207.197 314.667 207.226C313.755 207.254 312.871 207.572 312.13 208.138C311.58 208.562 311.4 209.029 311.54 209.252Z" fill="#263238"/>
<path d="M339.001 192.713C340.551 191.561 342.317 190.776 344.178 190.41C346.04 190.044 347.954 190.106 349.791 190.592C353.421 191.653 356.431 195.174 356.561 199.078C356.641 201.624 355.561 204.382 356.671 206.642C357.781 208.901 360.181 209.718 361.961 211.309C363.325 212.574 364.251 214.287 364.591 216.175C364.932 218.062 364.668 220.017 363.841 221.727C362.351 224.623 359.231 226.744 358.971 230.012C358.721 233.088 361.161 235.687 361.761 238.71C362.411 242.041 360.671 245.489 358.181 247.706C355.691 249.923 352.531 251.143 349.451 252.31C347.051 253.233 344.451 254.166 341.981 253.562C340.521 253.146 339.211 252.282 338.214 251.077C337.218 249.873 336.58 248.382 336.381 246.794C336.232 245.21 336.408 243.61 336.896 242.105C337.385 240.6 338.174 239.225 339.211 238.074C340.961 236.026 343.421 234.297 343.841 231.592C344.491 227.349 339.771 223.944 340.061 219.701C340.211 217.515 341.671 215.701 342.881 213.898C344.091 212.094 345.151 209.835 344.401 207.788C343.401 205.114 340.131 204.414 338.131 202.484C337.306 201.661 336.713 200.611 336.418 199.451C336.124 198.292 336.138 197.068 336.461 195.917C336.824 194.767 337.476 193.744 338.347 192.957C339.217 192.171 340.273 191.65 341.401 191.451" fill="#263238"/>
<path d="M340.47 189.457C340.477 190.91 340.181 192.346 339.604 193.664C339.027 194.981 338.184 196.148 337.133 197.08C336.082 198.012 334.851 198.687 333.526 199.056C332.202 199.425 330.817 199.48 329.47 199.216C327.39 198.813 325.11 197.699 323.31 198.877C321.51 200.054 321.31 203.12 319.66 204.679C317.26 206.897 313.45 204.817 310.4 205.74C308.05 206.483 306.58 208.859 305.01 210.875C303.44 212.89 301.11 214.789 298.75 214.057C298.821 211.805 299.136 209.57 299.69 207.395C300.253 205.207 301.511 203.293 303.25 201.974C304.279 201.406 305.28 200.783 306.25 200.107C308.25 198.442 308.66 195.525 309.86 193.191C310.654 191.688 311.773 190.408 313.126 189.456C314.479 188.505 316.027 187.908 317.64 187.717C320.32 187.431 323.08 188.279 325.64 187.579C327.57 187.07 329.26 185.744 331.21 185.341C335.02 184.577 338.56 187.462 341.32 190.358" fill="#263238"/>
<path d="M365.34 223.986C365.59 223.474 365.698 222.896 365.65 222.321C365.527 221.549 365.205 220.828 364.719 220.238C364.234 219.649 363.604 219.213 362.9 218.979C361.922 218.612 360.919 218.325 359.9 218.12C358.683 217.886 357.528 217.379 356.51 216.635C355.966 216.169 355.527 215.581 355.222 214.913C354.918 214.246 354.757 213.515 354.75 212.773C354.735 211.257 354.805 209.741 354.96 208.233C354.999 207.489 354.963 206.742 354.85 206.005C354.719 205.318 354.445 204.669 354.05 204.107C353.154 203.129 352.018 202.438 350.77 202.112C349.599 201.757 348.477 201.244 347.43 200.585C346.519 200.005 345.69 199.291 344.97 198.463C343.917 197.276 343.101 195.876 342.57 194.347C342.418 193.938 342.301 193.516 342.22 193.085C342.16 192.788 342.14 192.639 342.16 192.629C342.18 192.618 342.34 193.233 342.75 194.273C343.486 196.085 344.607 197.692 346.023 198.971C347.44 200.25 349.116 201.165 350.92 201.645C352.26 201.982 353.482 202.718 354.44 203.767C354.891 204.393 355.206 205.118 355.36 205.889C355.48 206.667 355.52 207.456 355.48 208.244C355.33 209.734 355.257 211.232 355.26 212.731C355.259 213.4 355.397 214.06 355.665 214.666C355.933 215.271 356.324 215.806 356.81 216.232C357.768 216.938 358.855 217.426 360 217.664C361.022 217.894 362.025 218.209 363 218.608C363.839 218.948 364.573 219.528 365.12 220.284C365.517 220.866 365.756 221.552 365.81 222.268C365.836 222.722 365.75 223.175 365.56 223.583C365.47 223.88 365.35 223.997 365.34 223.986Z" fill="#455A64"/>
<path d="M285.15 233.003L284.92 232.887C284.714 232.749 284.54 232.564 284.41 232.346C284.221 231.885 284.148 231.38 284.197 230.88C284.246 230.38 284.416 229.902 284.69 229.492C285.03 228.856 285.538 228.34 286.15 228.007C286.86 227.633 287.592 227.307 288.34 227.031C289.181 226.733 289.959 226.265 290.63 225.652C291.312 224.896 291.768 223.944 291.94 222.915C292.16 221.854 292.23 220.645 292.42 219.414C292.563 218.094 293.028 216.836 293.77 215.765C295.35 213.558 297.95 212.381 299.89 210.302C300.859 209.208 301.586 207.9 302.02 206.472C302.483 204.965 302.817 203.417 303.02 201.847C303.44 198.665 303.87 195.121 305.88 192.215C306.861 190.754 308.332 189.748 309.99 189.404C311.566 189.165 313.167 189.205 314.73 189.52C316.189 189.82 317.679 189.913 319.16 189.796C320.555 189.625 321.842 188.919 322.78 187.812C324.64 185.691 325.7 182.827 327.99 181.363C329.011 180.703 330.148 180.272 331.332 180.099C332.515 179.926 333.72 180.013 334.87 180.355C336.777 180.931 338.397 182.27 339.39 184.089C340.141 185.441 340.547 186.976 340.57 188.544C340.597 189.526 340.452 190.505 340.14 191.43C340.036 191.756 339.899 192.069 339.73 192.363C339.73 192.363 339.85 192.035 340.04 191.398C340.302 190.477 340.413 189.516 340.37 188.555C340.313 187.033 339.894 185.551 339.15 184.248C338.173 182.521 336.603 181.263 334.77 180.737C333.668 180.428 332.518 180.363 331.392 180.546C330.265 180.728 329.186 181.154 328.22 181.798C327.173 182.562 326.279 183.539 325.59 184.672C324.845 185.906 324.023 187.086 323.13 188.205C322.628 188.786 322.041 189.277 321.39 189.658C320.711 190.026 319.977 190.267 319.22 190.369C317.696 190.493 316.163 190.404 314.66 190.104C313.154 189.796 311.61 189.753 310.09 189.977C308.561 190.305 307.206 191.238 306.3 192.586C305.389 193.953 304.728 195.49 304.35 197.116C303.99 198.718 303.713 200.34 303.52 201.974C303.322 203.573 302.988 205.15 302.52 206.684C302.061 208.185 301.289 209.555 300.26 210.694C298.21 212.816 295.64 214.004 294.14 216.094C293.438 217.099 292.99 218.279 292.84 219.52C292.65 220.73 292.57 221.918 292.32 223.042C292.132 224.144 291.629 225.159 290.88 225.949C290.173 226.584 289.354 227.063 288.47 227.36C287.727 227.619 286.998 227.928 286.29 228.283C285.713 228.587 285.228 229.057 284.89 229.64C284.625 230.023 284.454 230.469 284.391 230.94C284.328 231.41 284.376 231.889 284.53 232.335C284.695 232.597 284.906 232.824 285.15 233.003Z" fill="#455A64"/>
<path d="M251.74 332.486L275.89 330.142C275.89 330.142 290.75 288.611 309.07 278.544L320.94 300.535L295.53 351.167H245.93L251.74 332.486Z" fill="#285BBE"/>
<path opacity="0.3" d="M251.74 332.486L275.89 330.142C275.89 330.142 290.75 288.611 309.07 278.544L320.94 300.535L295.53 351.167H245.93L251.74 332.486Z" fill="black"/>
<path d="M261.28 344.155C262.473 341.297 263.991 338.603 265.8 336.136C264.591 338.985 263.074 341.677 261.28 344.155Z" fill="#FAFAFA"/>
<path d="M278.389 343.657C276.293 341.48 274.447 339.048 272.889 336.411C274.006 337.424 274.997 338.582 275.839 339.859C276.825 341.016 277.681 342.291 278.389 343.657Z" fill="#FAFAFA"/>
<path d="M281.359 334.141C281.012 331.915 281.012 329.643 281.359 327.416C281.706 329.643 281.706 331.915 281.359 334.141Z" fill="#FAFAFA"/>
<path d="M272.859 348.982C272.016 348.733 271.23 348.303 270.549 347.72C269.349 346.882 268.449 346.107 268.549 345.98C269.39 346.241 270.174 346.674 270.859 347.253C271.999 348.08 272.939 348.855 272.859 348.982Z" fill="#FAFAFA"/>
<path d="M286.73 310.814C286.334 312.416 285.774 313.967 285.06 315.439C284.502 316.986 283.785 318.462 282.92 319.841C283.304 318.237 283.861 316.685 284.58 315.216C285.143 313.67 285.864 312.194 286.73 310.814Z" fill="#FAFAFA"/>
<path d="M296.52 293.989C296.6 294.106 295.74 294.955 294.59 295.888C293.936 296.523 293.172 297.016 292.34 297.342C292.26 297.214 293.12 296.366 294.27 295.443C294.921 294.804 295.686 294.31 296.52 293.989Z" fill="#FAFAFA"/>
<path d="M332.639 347.836L345.099 294.467C346.141 289.989 348.751 286.1 352.4 283.592C356.048 281.083 360.46 280.143 364.739 280.963C369.134 281.806 373.045 284.437 375.638 288.296C378.23 292.154 379.3 296.934 378.619 301.617L370.999 353.777C370.089 359.115 367.633 364.02 363.973 367.81C360.314 371.599 355.632 374.084 350.579 374.919L340.679 376.553L332.639 347.836Z" fill="#285BBE"/>
<path d="M371.901 277.515C370.601 276.387 369.081 275.579 367.451 275.149C365.688 274.714 363.854 274.714 362.091 275.149C359.944 275.724 357.95 276.813 356.261 278.332C352.611 281.578 350.631 285.758 349.261 288.749C348.591 290.245 348.081 291.475 347.721 292.324C347.555 292.778 347.351 293.214 347.111 293.629C347.209 293.156 347.349 292.694 347.531 292.25C347.841 291.369 348.291 290.128 348.921 288.579C349.66 286.782 350.515 285.042 351.481 283.371C352.681 281.316 354.175 279.473 355.911 277.908C357.655 276.318 359.727 275.187 361.961 274.608C363.794 274.166 365.699 274.191 367.521 274.683C368.744 275.016 369.893 275.604 370.901 276.412C371.17 276.633 371.42 276.878 371.651 277.144C371.831 277.409 371.911 277.504 371.901 277.515Z" fill="#263238"/>
<path d="M301.329 289.523C301.23 289.703 301.113 289.87 300.979 290.022L299.919 291.38C298.989 292.557 297.679 294.276 296.179 296.493C292.193 302.23 289.302 308.738 287.669 315.651C285.939 323.788 285.849 331.404 285.559 336.868C285.429 339.604 285.309 341.822 285.199 343.349C285.139 344.071 285.089 344.654 285.049 345.11C285.037 345.317 285.01 345.523 284.969 345.725C284.941 345.521 284.941 345.314 284.969 345.11C284.969 344.643 284.969 344.049 285.019 343.339C285.019 341.737 285.129 339.541 285.209 336.857C285.409 331.404 285.429 323.756 287.209 315.535C288.844 308.553 291.808 302.001 295.919 296.281C297.469 294.074 298.829 292.377 299.799 291.242C300.279 290.669 300.679 290.245 300.939 289.958C301.057 289.801 301.187 289.656 301.329 289.523Z" fill="#263238"/>
<path d="M381.15 289.407C379.78 279.859 374.82 277.579 369.67 274.608C367.99 273.632 359.88 271.426 353.45 269.76C352.83 265.634 351.73 258.229 351.45 256.67C351.11 254.474 318.69 259.958 318.28 260.786C318.01 261.327 317.28 269.898 316.79 275.637L309.03 278.512L298.94 292.175L293.67 300.11C290.564 304.688 288.345 309.872 287.14 315.365C286.007 321.448 285.521 327.646 285.69 333.844L284.12 368.851L352 389.198L357.2 353.703L374.7 328.434C376.19 318.218 382.83 301.139 381.15 289.407Z" fill="#285BBE"/>
<path d="M323.26 276.709C323.023 275.92 322.872 275.105 322.81 274.28C322.6 272.773 322.34 270.683 322.09 268.371C321.97 267.225 321.86 266.132 321.75 265.103C321.647 264.209 321.587 263.31 321.57 262.409C321.56 261.773 321.731 261.148 322.06 260.616C322.32 260.256 322.54 260.16 322.56 260.181C322.58 260.202 322.41 260.372 322.23 260.733C322.003 261.257 321.903 261.833 321.94 262.409C321.94 263.152 322.12 264.043 322.23 265.05C322.34 266.058 322.47 267.172 322.61 268.307C322.86 270.62 323.06 272.72 323.18 274.237C323.296 275.055 323.323 275.884 323.26 276.709Z" fill="#263238"/>
<path d="M331.91 274.545C331.573 273.842 331.331 273.092 331.19 272.317C330.286 268.644 329.948 264.839 330.19 261.051C330.197 260.265 330.305 259.483 330.51 258.728C330.67 258.728 330.38 262.303 330.77 266.673C331.16 271.044 332.07 274.502 331.91 274.545Z" fill="#263238"/>
<path d="M347.999 272.02C348.204 269.382 348.14 266.729 347.809 264.106C347.299 261.514 346.514 258.991 345.469 256.585C345.972 257.176 346.374 257.854 346.659 258.59C348.253 262.04 348.885 265.9 348.479 269.718C348.432 270.507 348.271 271.284 347.999 272.02Z" fill="#263238"/>
<path d="M301.999 303.272C303.544 300.147 305.553 297.307 307.949 294.859C306.096 297.764 304.11 300.572 301.999 303.272Z" fill="#FAFAFA"/>
<path d="M317.229 290.054C315.29 287.986 313.609 285.661 312.229 283.137C313.247 284.115 314.15 285.219 314.919 286.426C315.83 287.527 316.606 288.746 317.229 290.054Z" fill="#FAFAFA"/>
<path d="M333.191 281.801C332.215 283.03 331.148 284.176 330.001 285.227C328.978 286.413 327.871 287.516 326.691 288.526C327.496 287.147 328.49 285.903 329.641 284.835C330.672 283.637 331.869 282.614 333.191 281.801Z" fill="#FAFAFA"/>
<path d="M328.71 271.702C327.779 271.183 326.937 270.502 326.22 269.686C325.384 269.001 324.658 268.177 324.07 267.246C325 267.777 325.844 268.461 326.57 269.273C327.404 269.953 328.127 270.774 328.71 271.702Z" fill="#FAFAFA"/>
<path d="M342.699 263.788C341.632 264.318 340.496 264.675 339.329 264.849C338.202 265.194 337.033 265.366 335.859 265.358C336.925 264.833 338.057 264.475 339.219 264.297C340.35 263.951 341.522 263.78 342.699 263.788Z" fill="#FAFAFA"/>
<path d="M345.498 287.285C345.178 286.082 345.029 284.833 345.058 283.583C344.915 282.344 344.942 281.09 345.138 279.859C345.459 281.063 345.608 282.311 345.578 283.562C345.722 284.8 345.695 286.055 345.498 287.285Z" fill="#FAFAFA"/>
<path d="M340.399 298.54C339.658 297.204 339.067 295.78 338.639 294.297C338.059 292.857 337.636 291.352 337.379 289.81C338.694 292.602 339.701 295.546 340.379 298.583L340.399 298.54Z" fill="#FAFAFA"/>
<path d="M326.54 306.549C325.743 305.135 325.099 303.629 324.62 302.062C323.971 300.559 323.488 298.983 323.18 297.363C323.97 298.785 324.614 300.293 325.1 301.861C325.74 303.363 326.223 304.935 326.54 306.549Z" fill="#FAFAFA"/>
<path d="M313.5 315.577C312.576 312.665 311.992 309.644 311.76 306.581C312.298 308.01 312.674 309.503 312.88 311.026C313.254 312.512 313.462 314.039 313.5 315.577Z" fill="#FAFAFA"/>
<path d="M298 315.938C296.459 313.404 295.21 310.683 294.28 307.833C295.821 310.367 297.07 313.088 298 315.938Z" fill="#FAFAFA"/>
<path d="M297.669 326.482C296.4 327.44 295.039 328.254 293.609 328.911C292.249 329.727 290.806 330.378 289.309 330.853C290.577 329.883 291.942 329.064 293.379 328.413C294.737 327.602 296.176 326.954 297.669 326.482Z" fill="#FAFAFA"/>
<path d="M297.86 343.158C297.181 341.965 296.704 340.654 296.45 339.286C296.029 337.972 295.829 336.59 295.86 335.202C296.34 336.478 296.705 337.799 296.95 339.148C297.371 340.452 297.675 341.794 297.86 343.158Z" fill="#FAFAFA"/>
<path d="M294.65 354.87C293.465 354.073 292.371 353.134 291.39 352.069C290.297 351.144 289.319 350.074 288.48 348.887C289.666 349.683 290.76 350.623 291.74 351.687C292.834 352.613 293.812 353.682 294.65 354.87Z" fill="#FAFAFA"/>
<path d="M315.071 346.871C315.071 347.03 312.811 347.73 310.131 348.993C307.451 350.255 305.411 351.549 305.321 351.411C306.687 350.165 308.242 349.175 309.921 348.483C311.537 347.634 313.28 347.088 315.071 346.871Z" fill="#FAFAFA"/>
<path d="M309.1 341.068C308.456 339.932 307.961 338.708 307.63 337.43C307.13 336.216 306.794 334.934 306.63 333.621C307.272 334.754 307.763 335.975 308.09 337.249C308.596 338.465 308.936 339.751 309.1 341.068Z" fill="#FAFAFA"/>
<path d="M321.21 326.726C320.455 328.522 319.541 330.238 318.48 331.85C317.565 333.578 316.5 335.211 315.3 336.73C316.976 333.226 318.955 329.895 321.21 326.779V326.726Z" fill="#FAFAFA"/>
<path d="M334.23 328.095C332.913 326.663 331.792 325.041 330.9 323.279C329.859 321.613 329.038 319.803 328.46 317.9C328.6 317.837 329.76 320.192 331.35 323.003C332.94 325.814 334.35 328.01 334.23 328.095Z" fill="#FAFAFA"/>
<path d="M342 314.453C340.787 314.957 339.492 315.202 338.19 315.174C336.899 315.334 335.591 315.226 334.34 314.856C335.609 314.677 336.889 314.599 338.17 314.622C339.441 314.468 340.721 314.412 342 314.453Z" fill="#FAFAFA"/>
<path d="M360.531 298.954C357.358 300.978 354.009 302.676 350.531 304.025C353.71 302.012 357.058 300.314 360.531 298.954Z" fill="#FAFAFA"/>
<path d="M361.759 289.088C362.779 286.105 364.121 283.257 365.759 280.602C365.336 282.124 364.746 283.587 363.999 284.962C363.403 286.423 362.651 287.808 361.759 289.088Z" fill="#FAFAFA"/>
<path d="M373.52 296.832C372.905 295.264 372.397 293.651 372 292.006C371.443 290.416 370.995 288.785 370.66 287.126C372.155 290.153 373.124 293.441 373.52 296.832Z" fill="#FAFAFA"/>
<path d="M375.369 307.101C373.994 307.898 372.514 308.47 370.979 308.798C369.485 309.303 367.926 309.557 366.359 309.552C367.826 309.015 369.326 308.586 370.849 308.268C372.329 307.771 373.839 307.381 375.369 307.101Z" fill="#FAFAFA"/>
<path d="M355.209 319.64C355.059 319.64 355.489 317.03 355.609 313.816C355.729 310.602 355.529 307.992 355.679 307.971C356.141 309.885 356.293 311.869 356.129 313.837C356.139 315.813 355.827 317.776 355.209 319.64Z" fill="#FAFAFA"/>
<path d="M351.19 332.55C348.5 330.289 346.286 327.456 344.69 324.233C344.82 324.148 346.14 326.111 347.94 328.402C349.092 329.723 350.176 331.108 351.19 332.55Z" fill="#FAFAFA"/>
<path d="M371.4 329.824C370.091 330.698 368.692 331.409 367.23 331.945C365.835 332.658 364.369 333.206 362.86 333.579C365.567 331.987 368.431 330.717 371.4 329.792V329.824Z" fill="#FAFAFA"/>
<path d="M364.159 354.116C363.856 350.231 363.893 346.325 364.269 342.447C364.586 346.332 364.549 350.239 364.159 354.116Z" fill="#FAFAFA"/>
<path d="M348.651 352.716C348.904 348.657 349.842 344.68 351.421 340.973C351.561 341.026 350.801 343.604 350.041 346.839C349.281 350.075 348.801 352.748 348.651 352.716Z" fill="#FAFAFA"/>
<path d="M349.359 359.092C349.359 359.251 346.879 359.505 343.839 360.046C340.799 360.587 338.359 361.181 338.319 361.022C340.054 360.25 341.881 359.736 343.749 359.495C345.591 359.079 347.48 358.944 349.359 359.092Z" fill="#FAFAFA"/>
<path d="M332.2 355.008C333.069 353.674 334.076 352.446 335.2 351.348C336.191 350.126 337.312 349.029 338.54 348.08C337.671 349.414 336.665 350.642 335.54 351.74C334.547 352.96 333.426 354.056 332.2 355.008Z" fill="#FAFAFA"/>
<path d="M321.091 366.433C320.561 365.081 320.11 363.695 319.741 362.285C319.198 360.936 318.731 359.554 318.341 358.148C319.927 360.605 320.875 363.463 321.091 366.433Z" fill="#FAFAFA"/>
<path d="M338.999 373.031C335.588 371.831 332.296 370.282 329.169 368.406C330.893 368.922 332.568 369.611 334.169 370.464C335.85 371.159 337.467 372.019 338.999 373.031Z" fill="#FAFAFA"/>
<path d="M307.76 371.111C307.9 369.776 308.216 368.469 308.7 367.228C309.016 365.931 309.497 364.685 310.13 363.526C309.988 364.86 309.672 366.167 309.19 367.408C308.866 368.703 308.385 369.947 307.76 371.111Z" fill="#FAFAFA"/>
<path d="M328.361 374.813C328.361 374.972 325.491 374.484 321.951 374.293C318.411 374.102 315.541 374.293 315.531 374.081C317.655 373.643 319.826 373.529 321.981 373.742C324.145 373.771 326.294 374.132 328.361 374.813Z" fill="#FAFAFA"/>
<path d="M332.64 343.529C332.621 343.389 332.621 343.246 332.64 343.105C332.638 342.699 332.695 342.294 332.81 341.906C332.966 341.252 333.352 340.686 333.89 340.326C334.627 339.873 335.495 339.722 336.33 339.901L336.13 340.029C337.22 335.955 338.97 330.015 340.72 323.353C342.36 317.115 343.47 311.376 344.24 307.207C344.62 305.202 344.92 303.537 345.16 302.274C345.251 301.668 345.381 301.069 345.55 300.482C345.538 301.098 345.474 301.712 345.36 302.317C345.2 303.494 344.94 305.192 344.6 307.281C343.734 312.745 342.606 318.159 341.22 323.501C339.47 330.174 337.66 336.093 336.46 340.135L336.41 340.294H336.26C335.505 340.111 334.713 340.224 334.03 340.612C333.534 340.926 333.161 341.42 332.98 342.002C332.65 342.935 332.71 343.54 332.64 343.529Z" fill="#263238"/>
<path d="M355.061 358.285C354.981 358.285 354.361 356.885 353.061 354.742C349.728 349.148 345.028 344.617 339.461 341.631C337.331 340.496 335.921 339.976 335.951 339.88C336.293 339.938 336.628 340.034 336.951 340.167C337.855 340.478 338.741 340.85 339.601 341.281C345.35 344.116 350.15 348.741 353.361 354.541C353.844 355.409 354.274 356.309 354.651 357.235C354.84 357.56 354.978 357.914 355.061 358.285Z" fill="#263238"/>
<g opacity="0.2">
<path opacity="0.2" d="M336.55 339.106C340.141 339.201 343.696 339.885 347.09 341.132C350.68 342.554 354 345.291 355.32 349.109C355.534 349.54 355.63 350.026 355.596 350.512C355.563 350.998 355.401 351.464 355.13 351.857C354.874 352.091 354.562 352.245 354.229 352.303C353.895 352.361 353.553 352.32 353.24 352.186C352.614 351.908 352.049 351.496 351.58 350.976C349.38 348.855 347.09 346.903 344.82 344.824C342.55 342.745 339.23 340.58 336.27 340.082" fill="black"/>
</g>
<path d="M329.339 332.338C329.032 332.595 328.696 332.809 328.339 332.974C327.354 333.486 326.326 333.898 325.269 334.205C321.75 335.27 318.027 335.317 314.486 334.342C310.945 333.366 307.714 331.403 305.129 328.657C304.348 327.839 303.639 326.947 303.009 325.994C302.759 325.671 302.55 325.315 302.389 324.934C302.469 324.87 303.389 326.419 305.389 328.413C307.986 331.016 311.161 332.88 314.619 333.833C318.077 334.786 321.706 334.798 325.169 333.866C327.779 333.123 329.289 332.232 329.339 332.338Z" fill="#263238"/>
<g opacity="0.2">
<path opacity="0.2" d="M302.88 325.718C304.57 329.601 306.54 333.515 309.74 336.125C311.509 337.746 313.719 338.727 316.05 338.926C319.39 338.989 322.26 336.571 324.81 334.279C316.55 335.658 307.25 331.68 302.88 325.718Z" fill="black"/>
</g>
<path d="M339.859 273.739C339.699 273.739 339.859 270.089 339.479 265.645C339.099 261.2 338.249 257.667 338.399 257.625C338.729 258.347 338.961 259.115 339.089 259.905C339.521 261.775 339.822 263.675 339.989 265.591C340.167 267.509 340.214 269.438 340.129 271.362C340.138 272.164 340.047 272.962 339.859 273.739Z" fill="#263238"/>
<path d="M221.24 415.697C221.24 415.697 210.37 418.19 200.67 416.641C191.57 415.198 171.2 416.694 171.21 429.371C171.21 443.554 198.38 440.053 208.97 437.804C219.56 435.555 230.12 433.561 230.12 433.561L221.24 415.697Z" fill="#285BBE"/>
<path d="M196.84 433.869C196.243 432.277 195.804 430.624 195.53 428.936C195.095 427.284 194.827 425.588 194.73 423.876C195.315 425.469 195.74 427.122 196 428.808C196.449 430.459 196.731 432.155 196.84 433.869Z" fill="#263238"/>
<path d="M200.549 434.059C199.763 430.718 199.32 427.297 199.229 423.854C199.706 425.501 200.014 427.198 200.149 428.914C200.451 430.61 200.585 432.334 200.549 434.059Z" fill="#263238"/>
<path d="M204.13 432.574C203.711 431.137 203.456 429.652 203.37 428.151C203.111 426.672 203.027 425.164 203.12 423.663C203.792 426.58 204.128 429.572 204.12 432.574H204.13Z" fill="#263238"/>
<path d="M209.75 431.142C209.054 429.986 208.582 428.696 208.36 427.345C207.969 426.033 207.833 424.651 207.96 423.282C208.342 424.567 208.643 425.878 208.86 427.207C209.244 428.495 209.541 429.81 209.75 431.142Z" fill="#263238"/>
<path d="M211 425.902C211.466 425.788 211.945 425.752 212.42 425.796C213.722 425.843 215.009 426.112 216.23 426.591C216.653 426.751 217.051 426.976 217.41 427.26C217.622 427.424 217.797 427.635 217.923 427.879C218.049 428.123 218.124 428.393 218.14 428.67C218.118 428.976 218.033 429.273 217.892 429.541C217.751 429.809 217.557 430.041 217.323 430.222C217.089 430.402 216.821 430.527 216.538 430.587C216.254 430.647 215.962 430.641 215.68 430.569C214.532 430.236 213.53 429.485 212.85 428.448C211.721 426.903 211.075 425.023 211.002 423.07C210.928 421.117 211.431 419.188 212.44 417.553C212.645 417.29 212.926 417.107 213.24 417.033C213.404 417.011 213.57 417.027 213.727 417.08C213.885 417.133 214.029 417.222 214.15 417.341C214.536 417.761 214.775 418.307 214.83 418.89C214.954 419.849 214.906 420.824 214.69 421.765C214.391 423.129 213.756 424.384 212.85 425.403C212.611 425.681 212.347 425.934 212.06 426.156C211.965 426.242 211.857 426.31 211.74 426.358C211.74 426.358 212.12 425.997 212.74 425.297C213.55 424.26 214.11 423.029 214.37 421.711C214.551 420.815 214.575 419.891 214.44 418.985C214.389 418.516 214.196 418.077 213.89 417.733C213.813 417.665 213.722 417.615 213.624 417.587C213.526 417.559 213.424 417.554 213.324 417.572C213.224 417.59 213.129 417.631 213.046 417.692C212.962 417.753 212.892 417.832 212.84 417.924C211.927 419.474 211.481 421.282 211.562 423.107C211.642 424.932 212.245 426.688 213.29 428.14C213.888 429.09 214.779 429.788 215.81 430.113C216.024 430.172 216.247 430.183 216.465 430.144C216.682 430.105 216.89 430.017 217.073 429.887C217.256 429.756 217.411 429.586 217.528 429.388C217.645 429.189 217.721 428.966 217.75 428.734C217.734 428.525 217.676 428.322 217.579 428.139C217.482 427.956 217.35 427.797 217.19 427.673C216.874 427.405 216.519 427.19 216.14 427.037C214.959 426.539 213.716 426.225 212.45 426.103C211.46 425.923 211 425.944 211 425.902Z" fill="#263238"/>
<path d="M229.049 431.683L228.779 431.779L227.959 431.991L224.809 432.755C222.069 433.391 218.089 434.293 213.149 435.301C208.209 436.308 202.309 437.422 195.689 438.409C192.223 439.013 188.704 439.201 185.199 438.971C183.333 438.838 181.489 438.464 179.709 437.857C178.794 437.528 177.91 437.109 177.069 436.605C176.19 436.106 175.406 435.437 174.759 434.632C174.397 434.279 174.081 433.876 173.819 433.434C173.309 432.503 172.995 431.466 172.9 430.395C172.805 429.323 172.931 428.243 173.269 427.228C173.923 425.269 175.14 423.577 176.749 422.391C178.263 421.259 179.933 420.383 181.699 419.791C182.569 419.526 183.409 419.208 184.269 419.007C185.129 418.805 185.979 418.582 186.829 418.455C193.639 417.32 199.829 417.893 204.989 417.893C207.569 417.946 209.899 417.893 211.939 417.744C213.683 417.611 215.419 417.377 217.139 417.044L219.019 416.62L220.369 416.217L221.199 415.973C221.292 415.937 221.39 415.916 221.489 415.909C221.489 415.909 221.399 415.962 221.219 416.026L220.399 416.323L219.059 416.779L217.189 417.256C215.461 417.626 213.715 417.892 211.959 418.052C209.909 418.211 207.569 418.317 204.959 418.285C199.799 418.338 193.609 417.797 186.889 418.953C186.049 419.081 185.219 419.325 184.369 419.516C183.519 419.707 182.699 420.035 181.839 420.29C180.122 420.867 178.499 421.722 177.029 422.825C175.509 423.948 174.359 425.547 173.739 427.398C173.429 428.336 173.313 429.335 173.4 430.325C173.486 431.315 173.772 432.274 174.239 433.137C174.478 433.528 174.763 433.884 175.089 434.197C175.7 434.931 176.428 435.545 177.239 436.011C178.048 436.498 178.898 436.903 179.779 437.221C181.521 437.806 183.325 438.162 185.149 438.282C188.62 438.513 192.104 438.339 195.539 437.762C202.139 436.839 208.049 435.725 212.989 434.77C217.929 433.816 221.919 432.967 224.679 432.394L227.849 431.736L228.669 431.577C228.801 431.583 228.931 431.619 229.049 431.683Z" fill="#263238"/>
<path d="M189.311 438.568C189.148 437.594 189.057 436.608 189.041 435.619C188.921 433.805 188.721 431.291 188.371 428.543C188.021 425.796 187.601 423.313 187.261 421.521C187.028 420.564 186.871 419.588 186.791 418.603C187.163 419.513 187.441 420.463 187.621 421.436C188.167 423.753 188.591 426.101 188.891 428.469C189.185 430.834 189.359 433.213 189.411 435.598C189.474 436.589 189.441 437.584 189.311 438.568Z" fill="#263238"/>
<path opacity="0.4" d="M217.89 416.312L224.78 434.611L230.12 433.561L219.89 415.697L217.89 416.312Z" fill="black"/>
<path d="M307.65 366.157C306.54 366.539 235.37 345.386 206.59 336.804C202.854 335.687 198.935 335.428 195.097 336.045C191.259 336.661 187.588 338.139 184.33 340.379L183.98 340.612C179.256 343.853 175.589 348.563 173.483 354.098C171.376 359.633 170.932 365.722 172.21 371.535C173.031 375.278 174.545 378.811 176.663 381.929C178.782 385.046 181.463 387.686 184.55 389.696C203.55 402.033 243.7 427.981 244.93 427.472C246.54 426.814 296.701 425.435 296.701 425.435L236.35 379.385L265.06 399.074L307.65 366.189V366.157Z" fill="#263238"/>
<path d="M248.229 343.179L263.359 334.873L278.199 344.739L333.739 346.669L341.739 375.311L261.339 355.538C261.339 355.538 246.709 356.917 245.609 353.416C244.509 349.916 248.229 343.179 248.229 343.179Z" fill="#FFBE9D"/>
<path d="M293.74 389.155L286.26 415.23L287.19 423.175C293.776 430.216 302.557 434.467 311.886 435.133C321.215 435.799 330.453 432.833 337.87 426.793C342.467 423.048 346.187 418.228 348.74 412.708C351.294 407.188 352.611 401.117 352.59 394.968L352.48 367.748L293.74 389.155Z" fill="#263238"/>
<path d="M249.2 389.325C249.12 389.442 240.44 382.727 229.82 374.325C219.2 365.923 210.65 359.007 210.74 358.89C210.83 358.773 219.5 365.478 230.13 373.879C240.76 382.281 249.29 389.198 249.2 389.325Z" fill="#455A64"/>
<path d="M262.339 340.071C259.933 341.179 257.461 342.118 254.939 342.882C252.467 343.811 249.942 344.573 247.379 345.163C249.785 344.053 252.257 343.114 254.779 342.352C257.251 341.421 259.776 340.659 262.339 340.071Z" fill="#EB996E"/>
<path d="M263.471 344.962C262.627 345.216 261.764 345.39 260.891 345.481C259.301 345.757 257.111 346.171 254.711 346.754C252.311 347.338 250.171 347.985 248.621 348.473C247.797 348.789 246.951 349.033 246.091 349.205C246.853 348.754 247.662 348.398 248.501 348.144C250.496 347.393 252.529 346.763 254.591 346.256C256.652 345.755 258.739 345.379 260.841 345.131C261.709 344.976 262.591 344.919 263.471 344.962Z" fill="#EB996E"/>
<path d="M262.199 349.459C259.465 350.322 256.683 351.003 253.869 351.496C251.087 352.176 248.268 352.675 245.429 352.992C248.167 352.134 250.952 351.454 253.769 350.955C256.548 350.277 259.363 349.778 262.199 349.459Z" fill="#EB996E"/>
<path d="M242.579 304.693L256.529 353.406C256.608 353.677 256.762 353.917 256.97 354.094C257.179 354.272 257.433 354.379 257.699 354.403L295.699 357.426C296.036 357.45 296.352 357.61 296.582 357.872C296.812 358.134 296.94 358.479 296.939 358.837V361.351C296.939 361.539 296.904 361.725 296.835 361.899C296.767 362.072 296.666 362.229 296.539 362.36C296.413 362.492 296.262 362.595 296.098 362.664C295.933 362.733 295.757 362.766 295.579 362.762L191.579 360.64C191.313 360.635 191.055 360.546 190.837 360.383C190.62 360.22 190.453 359.992 190.359 359.728L172.079 308.926C172.003 308.717 171.975 308.492 171.996 308.269C172.018 308.046 172.09 307.832 172.205 307.645C172.32 307.457 172.476 307.301 172.66 307.19C172.843 307.079 173.048 307.016 173.259 307.006L241.169 303.643C241.483 303.614 241.797 303.704 242.055 303.896C242.312 304.088 242.498 304.37 242.579 304.693Z" fill="#455A64"/>
<path d="M213.281 325.676C212.771 325.878 212.317 326.21 211.957 326.643C211.598 327.076 211.345 327.596 211.221 328.158C211.175 328.745 211.275 329.335 211.512 329.867C211.749 330.4 212.114 330.857 212.571 331.192C213.119 331.613 213.773 331.852 214.45 331.878C215.126 331.905 215.795 331.718 216.371 331.341C216.949 330.886 217.363 330.235 217.545 329.496C217.727 328.757 217.665 327.975 217.371 327.278C216.911 325.931 214.591 324.986 213.251 325.676" fill="#E0E0E0"/>
<path d="M230.119 433.561L219.119 414.381L299.919 347.2C304.945 342.826 311.094 340.154 317.569 339.53C322.286 339.075 327.04 339.721 331.497 341.421C335.954 343.122 340.006 345.836 343.37 349.374C346.733 352.911 349.326 357.187 350.967 361.9C352.608 366.614 353.257 371.651 352.869 376.659L351.579 393.048L297.999 411.369L230.119 433.561Z" fill="#263238"/>
<path d="M333.739 388.031C333.739 388.031 333.679 388.105 333.529 388.243L332.869 388.816L330.299 391.001L328.429 392.56C327.749 393.133 326.939 393.621 326.109 394.289L323.429 396.241C322.949 396.581 322.429 396.952 321.959 397.302L320.349 398.363C318.159 399.753 315.789 401.344 313.099 402.787C311.769 403.529 310.409 404.335 308.979 405.089L304.509 407.327C297.84 410.567 291.021 413.449 284.079 415.962C269.319 421.361 255.679 425.244 245.909 428.384C243.459 429.148 241.249 429.869 239.309 430.506C237.369 431.142 235.709 431.683 234.309 432.171L231.189 433.232L230.369 433.497C230.275 433.533 230.178 433.557 230.079 433.571L230.349 433.444L231.149 433.126L234.249 431.948C235.589 431.429 237.249 430.888 239.189 430.187C241.129 429.487 243.319 428.766 245.759 427.981C255.509 424.735 269.139 420.799 283.869 415.41C291.249 412.748 298.119 409.777 304.269 406.839L308.729 404.622C310.169 403.879 311.529 403.084 312.859 402.352C315.549 400.93 317.919 399.36 320.119 398.002L321.729 396.995C322.239 396.655 322.729 396.294 323.209 395.934L325.999 394.014C326.829 393.409 327.639 392.889 328.329 392.327L330.219 390.799L332.849 388.678L333.549 388.147L333.739 388.031Z" fill="#455A64"/>
<path d="M335.701 396.995C335.454 397.188 335.181 397.341 334.891 397.451C334.351 397.705 333.561 398.055 332.571 398.437C329.988 399.447 327.342 400.262 324.651 400.877C321.958 401.487 319.228 401.898 316.481 402.108C315.431 402.182 314.571 402.214 313.981 402.214C313.674 402.238 313.364 402.22 313.061 402.161C314.183 401.947 315.314 401.798 316.451 401.715C318.531 401.471 321.451 401.047 324.541 400.336C327.631 399.625 330.451 398.755 332.451 398.077C333.515 397.654 334.6 397.293 335.701 396.995Z" fill="#455A64"/>
<path d="M296.7 350.425C296.79 350.552 279.5 364.969 258.08 382.621C236.66 400.273 219.22 414.509 219.14 414.381C219.06 414.254 236.34 399.848 257.76 382.186C279.18 364.523 296.62 350.308 296.7 350.425Z" fill="#455A64"/>
<path d="M291.999 421.712C288.129 419.526 283.779 420.82 280.069 422.146C277.599 423.027 275.069 424.427 272.529 423.674C270.719 423.133 269.369 421.552 267.979 420.226C265.175 417.491 261.883 415.378 258.297 414.014C254.711 412.649 250.903 412.06 247.099 412.281C244.927 412.392 242.875 413.374 241.359 415.028C237.549 419.41 240.419 425.096 243.829 428.819C249.905 435.37 257.928 439.492 266.539 440.488C273.629 441.273 283.379 440.233 290.539 436.966C294.969 434.951 297.239 429.402 294.919 424.926C294.265 423.573 293.249 422.455 291.999 421.712Z" fill="#285BBE"/>
<g opacity="0.4">
<path opacity="0.4" d="M292.001 425.212C288.121 423.027 283.771 424.321 280.061 425.647C277.591 426.528 275.061 427.928 272.521 427.175C270.711 426.634 269.361 425.053 267.971 423.727C265.167 420.991 261.875 418.879 258.288 417.514C254.702 416.15 250.895 415.56 247.091 415.782C244.919 415.892 242.867 416.875 241.351 418.529C240.584 419.397 240.034 420.454 239.751 421.605C240.485 424.336 241.89 426.811 243.821 428.776C249.896 435.327 257.919 439.45 266.531 440.445C273.621 441.23 283.371 440.191 290.531 436.924C291.802 436.35 292.928 435.466 293.816 434.343C294.704 433.22 295.329 431.891 295.641 430.463C295.416 429.367 294.971 428.335 294.338 427.437C293.705 426.538 292.898 425.794 291.971 425.255L292.001 425.212Z" fill="black"/>
</g>
<path d="M295.699 430.421C295.531 429.551 295.209 428.723 294.749 427.981C294.194 427.14 293.491 426.419 292.679 425.859C291.61 425.093 290.388 424.599 289.109 424.417C286.239 424.056 282.899 425.34 279.199 426.4C277.369 426.92 275.369 427.705 273.199 427.461C272.102 427.311 271.047 426.921 270.099 426.316C269.156 425.692 268.266 424.982 267.439 424.194C264.422 421.152 260.8 418.868 256.839 417.511C255.128 416.894 253.362 416.46 251.569 416.217C250.011 415.978 248.428 415.978 246.869 416.217C245.595 416.421 244.368 416.874 243.249 417.553C242.412 418.068 241.653 418.716 240.999 419.473C239.999 420.799 239.629 421.701 239.569 421.659C239.88 420.818 240.311 420.034 240.849 419.335C241.473 418.502 242.223 417.785 243.069 417.214C244.211 416.473 245.478 415.976 246.799 415.75C248.391 415.499 250.008 415.499 251.599 415.75C253.424 415.982 255.223 416.405 256.969 417.012C258.897 417.692 260.759 418.566 262.529 419.622C263.473 420.175 264.379 420.799 265.239 421.489C266.109 422.21 266.919 422.995 267.759 423.759C268.564 424.544 269.43 425.254 270.349 425.881C271.235 426.439 272.218 426.8 273.239 426.941C275.239 427.228 277.239 426.485 279.069 425.976C282.759 424.915 286.149 423.674 289.159 424.088C290.323 424.266 291.437 424.703 292.43 425.37C293.423 426.037 294.271 426.92 294.919 427.96C295.26 428.529 295.504 429.157 295.639 429.816C295.679 430.015 295.699 430.218 295.699 430.421Z" fill="#263238"/>
<path d="M295.699 430.421C295.531 429.551 295.209 428.723 294.749 427.981C294.194 427.14 293.491 426.419 292.679 425.859C291.61 425.093 290.388 424.599 289.109 424.417C286.239 424.056 282.899 425.34 279.199 426.4C277.369 426.92 275.369 427.705 273.199 427.461C272.102 427.311 271.047 426.921 270.099 426.316C269.156 425.692 268.266 424.982 267.439 424.194C264.422 421.152 260.8 418.868 256.839 417.511C255.128 416.894 253.362 416.46 251.569 416.217C250.011 415.978 248.428 415.978 246.869 416.217C245.595 416.421 244.368 416.874 243.249 417.553C242.412 418.068 241.653 418.716 240.999 419.473C239.999 420.799 239.629 421.701 239.569 421.659C239.88 420.818 240.311 420.034 240.849 419.335C241.473 418.502 242.223 417.785 243.069 417.214C244.211 416.473 245.478 415.976 246.799 415.75C248.391 415.499 250.008 415.499 251.599 415.75C253.424 415.982 255.223 416.405 256.969 417.012C258.897 417.692 260.759 418.566 262.529 419.622C263.473 420.175 264.379 420.799 265.239 421.489C266.109 422.21 266.919 422.995 267.759 423.759C268.564 424.544 269.43 425.254 270.349 425.881C271.235 426.439 272.218 426.8 273.239 426.941C275.239 427.228 277.239 426.485 279.069 425.976C282.759 424.915 286.149 423.674 289.159 424.088C290.323 424.266 291.437 424.703 292.43 425.37C293.423 426.037 294.271 426.92 294.919 427.96C295.26 428.529 295.504 429.157 295.639 429.816C295.679 430.015 295.699 430.218 295.699 430.421Z" fill="#263238"/>
<path d="M247.631 429.424C248.242 428.857 248.913 428.369 249.631 427.97C251.291 426.905 253.004 425.935 254.761 425.064C256.519 424.185 258.318 423.402 260.151 422.719C260.897 422.396 261.676 422.165 262.471 422.03C261.774 422.454 261.041 422.81 260.281 423.091C258.911 423.695 257.031 424.544 254.981 425.562C252.931 426.581 251.121 427.578 249.811 428.31C249.122 428.758 248.391 429.131 247.631 429.424Z" fill="#263238"/>
<path d="M249 433.54C251.441 431.982 253.969 430.582 256.57 429.349C259.098 427.954 261.703 426.721 264.37 425.658C261.929 427.216 259.401 428.615 256.8 429.848C254.274 431.248 251.669 432.481 249 433.54Z" fill="#263238"/>
<path d="M264.999 435.322C264.919 435.449 260.789 432.839 255.779 429.487C250.769 426.135 246.779 423.303 246.779 423.175C246.779 423.048 250.979 425.658 255.999 429.02C261.019 432.383 265.099 435.194 264.999 435.322Z" fill="#263238"/>
<path d="M267.34 431.057C266.633 430.646 265.964 430.166 265.34 429.625C264.13 428.692 262.45 427.408 260.57 426.029C258.69 424.65 256.979 423.43 255.729 422.55C255.017 422.12 254.347 421.615 253.729 421.043C254.491 421.352 255.218 421.747 255.899 422.221C257.199 423.016 258.969 424.194 260.899 425.573C262.83 426.952 264.44 428.299 265.6 429.318C266.245 429.819 266.83 430.403 267.34 431.057Z" fill="#263238"/>
</g>
<defs>
<clipPath id="clip0_56_2273">
<rect width="500" height="450" fill="white"/>
</clipPath>
</defs>
</svg>
