<svg width="35" height="35" viewBox="0 0 35 35" fill="none" xmlns="http://www.w3.org/2000/svg">
<path d="M32.0397 26.7313C32.0397 27.2563 31.923 27.7959 31.6751 28.3209C31.4272 28.8459 31.1063 29.3418 30.6834 29.8084C29.9688 30.5959 29.1813 31.1647 28.2917 31.5293C27.4167 31.8938 26.4688 32.0834 25.448 32.0834C23.9605 32.0834 22.3709 31.7334 20.6938 31.0188C19.0167 30.3043 17.3397 29.3418 15.6772 28.1313C14.0001 26.9063 12.4105 25.5501 10.8938 24.048C9.39175 22.5313 8.0355 20.9418 6.82508 19.2793C5.62925 17.6168 4.66675 15.9543 3.96675 14.3063C3.26675 12.6438 2.91675 11.0542 2.91675 9.53758C2.91675 8.54592 3.09175 7.598 3.44175 6.723C3.79175 5.83342 4.34591 5.01675 5.11883 4.28758C6.05216 3.36883 7.073 2.91675 8.15216 2.91675C8.5605 2.91675 8.96883 3.00425 9.33341 3.17925C9.71258 3.35425 10.048 3.61675 10.3105 3.99591L13.6938 8.76467C13.9563 9.12925 14.1459 9.46467 14.2772 9.7855C14.4084 10.0917 14.4813 10.398 14.4813 10.6751C14.4813 11.0251 14.3792 11.3751 14.1751 11.7105C13.9855 12.0459 13.7084 12.3959 13.3584 12.7459L12.2501 13.898C12.0897 14.0584 12.0167 14.248 12.0167 14.4813C12.0167 14.598 12.0313 14.7001 12.0605 14.8167C12.1042 14.9334 12.148 15.0209 12.1772 15.1084C12.4397 15.5897 12.8917 16.2168 13.5334 16.9751C14.1897 17.7334 14.8897 18.5063 15.648 19.2793C16.4355 20.0522 17.1938 20.7667 17.9667 21.423C18.7251 22.0647 19.3522 22.5022 19.848 22.7647C19.9209 22.7938 20.0084 22.8376 20.1105 22.8813C20.2272 22.9251 20.3438 22.9397 20.4751 22.9397C20.723 22.9397 20.9126 22.8522 21.073 22.6918L22.1813 21.598C22.5459 21.2334 22.8959 20.9563 23.2313 20.7813C23.5667 20.5772 23.9022 20.4751 24.2667 20.4751C24.5438 20.4751 24.8355 20.5334 25.1563 20.6647C25.4772 20.7959 25.8126 20.9855 26.1772 21.2334L31.0042 24.6605C31.3834 24.923 31.6459 25.2292 31.8063 25.5938C31.9522 25.9584 32.0397 26.323 32.0397 26.7313Z" stroke="#285BBE" stroke-width="1.5" stroke-miterlimit="10"/>
</svg>
