<svg width="35" height="35" viewBox="0 0 35 35" fill="none" xmlns="http://www.w3.org/2000/svg">
<path fill-rule="evenodd" clip-rule="evenodd" d="M35 17.5C35 27.165 27.165 35 17.5 35C7.83502 35 0 27.165 0 17.5C0 7.83502 7.83502 0 17.5 0C27.165 0 35 7.83502 35 17.5ZM18.1293 12.9194C16.4272 13.6274 13.0253 15.0927 7.92368 17.3154C7.09526 17.6449 6.6613 17.9671 6.62179 18.2823C6.55503 18.8148 7.22196 19.0246 8.13016 19.3101C8.25369 19.349 8.38169 19.3892 8.51291 19.4319C9.40643 19.7223 10.6084 20.0621 11.2332 20.0756C11.8 20.0879 12.4326 19.8542 13.131 19.3746C17.8976 16.157 20.3581 14.5307 20.5126 14.4957C20.6216 14.4709 20.7726 14.4398 20.875 14.5308C20.9773 14.6217 20.9672 14.794 20.9564 14.8402C20.8903 15.1218 18.2723 17.5557 16.9175 18.8153C16.4952 19.2079 16.1956 19.4864 16.1344 19.55C15.9972 19.6925 15.8574 19.8273 15.723 19.9569C14.8929 20.7571 14.2704 21.3572 15.7574 22.3371C16.4721 22.8081 17.0439 23.1975 17.6144 23.586C18.2374 24.0103 18.8588 24.4335 19.6629 24.9605C19.8677 25.0948 20.0633 25.2343 20.2539 25.3701C20.9789 25.887 21.6303 26.3514 22.4351 26.2773C22.9027 26.2343 23.3858 25.7946 23.6311 24.4832C24.2108 21.3839 25.3504 14.6687 25.6137 11.9016C25.6368 11.6591 25.6078 11.3489 25.5845 11.2127C25.5612 11.0765 25.5125 10.8824 25.3354 10.7387C25.1257 10.5686 24.8021 10.5327 24.6573 10.5353C23.9991 10.5469 22.9892 10.898 18.1293 12.9194Z" fill="#2AABEE"/>
</svg>
